<?xml version="1.0" encoding="UTF-8"?>
<svg width="1200pt" height="1200pt" version="1.1" viewBox="0 0 1200 1200" xmlns="http://www.w3.org/2000/svg">
 <g fill="#e4f9f4">
  <path d="m1030.7 650.34 3.2539-26.023c-5.8516 1.9219-13.336 1.3906-13.336 1.3906l2.8086 21.883c-122.04-44.328-177.27-1.2539-261.4 25.254l3.5547-28.434c-5.8516 1.9219-13.336 1.3906-13.336 1.3906l3.7109 28.898c-17.641 5.2891-36.609 9.7656-57.742 12.523l3.4062-27.234c-4.1133 1.3516-9.3789 0.97656-9.3789 0.97656l3.4102 26.57c-50.523 6.2109-113.37 2.5664-199.81-23.145-21.336-6.3477-41.676-11.629-61.113-16.008l10.516-84.121c-14.617 4.8008-33.309 3.4688-33.309 3.4688l9.9961 77.887c-56.234-11.723-104.45-15.508-145.6-13.91l4.6719-37.371c-7.4531 2.4492-16.984 1.7695-16.984 1.7695l4.6172 35.984c-167.6 9.4297-214.53 108.64-214.53 108.64 767.93 168.2 1091.9-31.715 1091.9-31.715-44.453-27.148-82.254-46.02-115.28-58.68z"/>
  <path d="m428.55 550.52c43.492 0 80.969-25.332 98.777-61.992l-98.777-207.25-98.777 207.25c17.809 36.656 55.285 61.988 98.777 61.988z"/>
  <path d="m272.47 587.33c22.18 0 41.289-12.918 50.371-31.613l-50.371-105.69-50.371 105.69c9.082 18.695 28.191 31.613 50.371 31.613z"/>
  <path d="m758.87 638.91c17.41 0 32.414-10.141 39.547-24.816l-39.547-82.973-39.543 82.973c7.1289 14.672 22.133 24.816 39.543 24.816z"/>
  <path d="m1027.2 618.82c17.41 0 32.418-10.145 39.547-24.816l-39.547-82.973-39.547 82.973c7.1328 14.676 22.137 24.816 39.547 24.816z"/>
  <path d="m696.88 656.12c12.246 0 22.797-7.1328 27.809-17.453l-27.809-58.348-27.809 58.348c5.0117 10.32 15.562 17.453 27.809 17.453z"/>
 </g>
</svg>
