<?xml version="1.0" encoding="UTF-8"?>
<svg width="1200pt" height="1200pt" version="1.1" viewBox="0 0 1200 1200" xmlns="http://www.w3.org/2000/svg">
 <path d="m599.5 98.398c51.148 0 98.496 26.051 125.6 67.953l5.1484 8.5977 355 612.5 3.0977 6.3008c8.8711 21.934 12.426 45.652 10.375 69.223-2.0508 23.566-9.6445 46.32-22.164 66.391-12.523 20.074-29.613 36.902-49.879 49.109-20.27 12.207-43.133 19.445-66.73 21.125l-9.9531 0.40234h-700l-2.4531-0.15234-5.5977 0.10156c-22.27-1.1445-44.004-7.2422-63.621-17.848-19.617-10.602-36.621-25.449-49.781-43.453l-5.4492-8c-11.906-18.707-19.52-39.824-22.285-61.828-2.7656-22.004-0.62109-44.348 6.2852-65.422l3.6016-9.6992 3-6.25 354.6-611.65c12.973-23.449 31.984-42.996 55.066-56.609 23.082-13.609 49.387-20.789 76.184-20.793z" fill="#12b0fb"/>
</svg>
