<?xml version="1.0" encoding="UTF-8"?>
<svg width="1200pt" height="1200pt" version="1.1" viewBox="0 0 1200 1200" xmlns="http://www.w3.org/2000/svg">
 <g fill="#e4f9f4">
  <path d="m779.57 588.09c-42.254-17.605-191.89-45.773-191.89-91.547 0-45.773 329.21-133.8 329.21-133.8s-294.01 49.293-394.36 82.746c-100.35 33.449-51.051 95.07 22.887 128.52 73.941 33.449 63.379 54.574 63.379 54.574-12.324 65.145-380.27 139.09-552.8 172.54l257.04 211.26c66.898-21.125 176.05-49.297 429.57-161.97 373.23-169.01 79.223-242.95 36.973-262.32z"/>
  <path d="m154.59 494.78v170.77h70.422v-165.49c65.137-12.324 116.19-68.66 116.19-137.32 0-77.461-63.379-139.08-139.08-139.08-75.703 0-139.08 63.379-139.08 139.08-1.7617 61.621 36.973 112.68 91.547 132.04z"/>
  <path d="m585.92 311.69v52.816h21.125v-52.816c21.125-5.2812 36.973-24.648 36.973-47.535 0-26.406-21.125-49.293-49.297-49.293-26.406 0-49.297 21.125-49.297 49.293 3.5234 22.887 19.367 42.25 40.496 47.535z"/>
  <path d="m1047.2 304.64c-52.816 0-96.828 44.012-96.828 96.828 0 45.773 29.93 82.746 72.18 93.309v105.63h49.293v-105.63c42.254-10.562 72.18-49.293 72.18-93.309 0.003906-52.816-42.25-96.828-96.824-96.828z"/>
 </g>
</svg>
