<?xml version="1.0" encoding="UTF-8"?>
<svg width="1200pt" height="1200pt" version="1.1" viewBox="0 0 1200 1200" xmlns="http://www.w3.org/2000/svg">
 <g fill="#5b6864">
  <path d="m633.83 1122.3c-4.3164-3.5508-8.3789-7.4023-12.148-11.531-30.066-39.176-60.391-78.16-89.746-117.86-26.859-36.328-50.859-74.891-79.211-109.97-60.785-75.199-98.496-162.16-135.8-250.05-18.594-46.57-30.48-95.543-35.301-145.46-5.2539-36.391-4.6523-73.387 1.7891-109.59 12.215-58.754 33.766-115.16 75.367-161.2 8.0391-8.8945 14.844-18.914 23.02-27.668v0.003907c55.102-59.648 129.15-98.391 209.57-109.64 26.004-3.3359 52.422-1.0039 77.438 6.8438 40.211 10.973 78.855 27.031 115 47.793 30.863 17.961 52.211 45.309 72.844 72.852 33.805 45.125 47.66 98.191 57.465 152.91 8.9688 43.645 10.031 88.547 3.1406 132.57-5.2148 29.047-12.043 57.871-19.637 86.398-9.4258 35.391-18.477 71.074-31.176 105.34-15.664 42.273-34.738 83.297-52.703 124.7-7.8438 18.082-16.137 36.004-25.078 53.562-7.0117 13.77-15.387 26.844-23.078 40.273-40.332 70.418-78.117 142.33-123.37 209.86-1.9102 2.8477-4.457 5.2773-8.3867 9.8633zm75.273-328.04c16.004-2.5664 17.105-6.6172 5.5938-21.75-9.4375 5.5898-6.6406 14.031-5.2969 22.098-5.7773-3.6992-11.406-5.6055-14.93 2.5977-3.3047 7.6992-0.60156 12.742 9.5938 16.82 1.9062-7.4766 3.4727-13.625 5.0391-19.77zm9.5312 17.66c-17.16 10.793-17.566 15.203-2.8359 30.602l-0.003906-0.003906c3.9531-1.668 6.9961-4.9531 8.3555-9.0195s0.90625-8.5234-1.25-12.23l17.469-0.97656-14.426-24.887c-3.6406 8.2266-5.4766 12.367-7.3125 16.512zm20.348-47.211 21.359-16.559c-4.0938-7.043-7.125-12.254-10.094-17.363-17.309 7.9844-13.305 21.395-10.992 34.301-3.4609-2.1328-6.918-4.2617-12.539-7.7266 0.5 6.1094 0.5625 10.004 1.2344 13.789l-0.003906-0.003907c1.0039 2.6484 2.3125 5.1758 3.8984 7.5234 3.4766-6.8047 5.3047-10.383 7.1328-13.965zm-21.52-47.184 13.668 16.801c15.871-17.492 15.73-20.801-1.2891-37.797-4.2852 7.5703-8.1641 14.43-12.039 21.301-6.9336 11.742-6.4258 14.781 5.0508 26.473zm-24.781 17.082c-4.1875 13.727 3.5977 23.797 11.547 38.598l-0.003907-0.003906c3.9492-5.5391 6.6094-11.887 7.7969-18.582-3.1328-9.6445-7.1406-18.984-11.973-27.902 0.99219-13.637-1.7539-27.281-7.9375-39.473-6.0195 2.4727-10.941 4.4922-15.859 6.5117 16.684-18.84 33.363-37.68 50.047-56.523h-0.003906c-1.6953 4.4766-3.8047 8.7852-6.2969 12.867-4.5391 6.1797-10.328 11.441-14.879 17.613-6.3555 8.625-7.3945 16.23 4.6094 21.824l0.003906 0.003906c3.3477 2.7969 6.0195 6.3125 7.8164 10.285 4.7422-1.1875 8.7695-4.2969 11.117-8.582 2.3477-4.2812 2.8008-9.3516 1.25-13.984-1.5156-3.6797-1.9688-7.7109-1.3086-11.637 0.66016-3.9219 2.4062-7.582 5.043-10.566 2.3047 8.1211 3.9375 13.859 5.5664 19.602l2.9688-0.11719 2.1055-13.02c5.3086 0.375 10.609 0.75391 15.898 1.1289l0.003906 0.003906c-3.0547 4.8203-4.2109 10.598-3.2578 16.219 0.95703 5.625 3.957 10.695 8.4297 14.238 18.234-20.195 36.109-39.875 53.773-59.738 1.9375-1.9883 2.9805-4.6836 2.8828-7.4609-1.0391-4.5625-3.1211-8.8281-6.0859-12.453-3.293 0.25781-6.4961 1.2031-9.4023 2.7812 10.586-19.02-0.84766-34.531-6.8359-51.578-32.641 22.828-35.242 33.309-16.949 66.527 8.0664-5.1133 16.113-10.215 24.133-15.297h0.003907c-7.2617 6.375-13.297 14.02-17.816 22.559-1.9414 6.4531-5.7266 12.199-10.891 16.531-5.1641 4.3281-11.484 7.0547-18.176 7.8438 13.133-18.594 2.0391-32.664-6.9297-47.863-10.102 8.4375-18.605 15.543-27.109 22.648 9.5-14.184 19.004-28.363 28.504-42.547-8.2188 5.4688-15.887 11.727-22.895 18.68-4.9727 4.9648-10.633 9.1875-16.809 12.539-36.922 16.938-76.887 22.129-116.41 28.754l-0.003906-0.003907c-6.332 0.4375-12.695-0.070312-18.879-1.5039-25.746-4.3359-50.797-12.094-74.484-23.062-24.195-10.16-44.953-27.062-59.805-48.695-8.0547-11.566-15.391-23.629-23.297-35.305-44.91-66.344-48.16-136.76-18.828-209.41 13.477-32.035 33.785-60.738 59.516-84.102 4.0312-2.5625 7.1367-6.3477 8.8555-10.805-2.1953-11.758 7.0781-16.129 12.484-22.887 19.762-24.719 39.742-49.262 59.645-73.871l18.312-13.305c-4.3008 13.574-15.238 22-0.76562 32.059l19.582-26.137c0.80859-0.73828 1.6211-1.4766 2.4336-2.2109 9.3164-7.5391 18.633-15.082 27.949-22.621l3.0039 3.2734c-7.4766 8.8281-14.953 17.656-23.438 27.672l14.383 17.949c11.137-12.727 21.312-22.543 18.238-38.211l28.012-7.8867c-6.1172 8.5938-9.7227 13.656-14.387 20.211 4.0273 4.5391 7.8555 8.8516 11.477 12.934l23.066-15.195c-17.965 30.906-19.977 33.02-36.543 39.723 9.4453-20.828 9.4453-20.828-5.9102-30.113-5.8945 8.6094-11.695 17.379-17.816 25.926-6.5195 9.1289-15.191 16.508-25.25 21.477 15.367-26.25 18.93-24.508-2.7891-39.246-14.883 16.117-29.926 32.414-47.27 51.195 84.953-9.2734 163.39-4.8398 233.08 44 6.3633-9.2539 12.629-18.363 19.328-28.094-4.4414-7.3633-8.6836-14.391-13.727-22.754-5.6875 5-9.8828 8.5781-13.953 12.293-3.5547 3.2422-6.9688 6.6406-10.445 9.9688l-3.2383-3.3555c7.1602-9.2852 14.32-18.566 21.805-28.27-5.2812-10.785-10.273-20.98-15.27-31.18l4.2852-2.1797c19.789 19.711 27.121 47.141 42.133 70.961-4.1445 2.9648-8.1328 6.1484-11.941 9.5352-4.5195 3.9141-7.4102 9.3789-8.1055 15.316-0.69141 5.9375 0.85938 11.922 4.3516 16.773 23.465 24.797 38.145 56.609 41.785 90.555 0.72266 1.5117 1.7461 2.8594 3.0078 3.9648 3.4023-5.1172 6.6562-10.016 9.5508-14.371-4.5781-21.27-14.574-40.824-8.8672-61.57-6.3203-12.418-26.52-14.777-20.941-33.508 15.891 2.4805 21.973-12.168 35.316-18.527-3.6172-6.3008-7.5742-12.402-11.852-18.273-10.254-12.531-20.637-25.008-31.727-36.789l-0.003906-0.003907c-7.7344-8.9453-16.555-16.891-26.258-23.648-37.512-21.285-78.316-36.152-120.73-43.988-29.031-7.7148-59.355-9.3008-89.031-4.6484-20.68 4.1719-40.914 10.312-60.426 18.332-17.434 6.9453-21.348 18.887-16.176 37.012 0.46875 2.0625 0.81641 4.1562 1.0352 6.2617l-15.238-10.074c-12.535 11.438-24.898 22.316-11.934 45.625l-18.309-11.273c-17.418 20.836-34.305 41.039-51.191 61.246l-3.375-2.5312c4.1562-6.1523 7.9922-12.547 12.531-18.402 11.242-14.504 22.801-28.766 34.246-43.113 4.4766-5.6094 6.8789-11.012-3.9922-16.996-30.309 24.516-61.145 49.855-81.223 85.559-14.895 27.129-26.68 55.848-35.137 85.613-16.836 51.035-22.027 105.19-15.195 158.49 2.0234 13.23 5.1602 26.293 7.2109 39.523 7.7148 38.016 20.059 74.945 36.758 109.96 12.984 30.922 32.66 58.977 48.391 88.816h-0.003906c20.805 40.797 44.293 80.168 70.312 117.85 25.27 35.582 46.922 73.746 72.438 109.14 29.984 41.586 62.418 81.406 95.594 124.32 24.441-35.156 39.59-71.832 59.684-107.48h-13.555c7.6602-8.8125 12.395-19.262 19.699-21.566 11.168-4.3789 20.207-12.898 25.234-23.789 9.4023-14.863 18.473-30.016 26.523-45.645 16.461-31.949 33.18-63.836 47.832-96.621 11.781-26.355 20.645-54.016 30.891-81.062l0.003906 0.003906c0.82812-4.8516 2.9453-9.3945 6.1328-13.145 9.4805-7.4453 15.551-18.398 16.844-30.383 12.523-43.352 25.625-86.551 37.16-130.16 11.473-38.582 16.805-78.727 15.801-118.96-2.6016-38.715-9.5273-77.02-20.652-114.19-8.7812-23.625-19.738-46.383-32.73-67.977-10.414 7.707-17.949 13.281-26.227 19.41 5.6875 7.3047 9.9258 12.746 13.996 17.973l18.961-4.4531-5.5781 13.031 11.938 3.4414h-0.003906c-3.9727 4.082-6.043 9.6484-5.707 15.332 0.33984 5.6875 3.0547 10.969 7.4844 14.551 11 9.7109 9.5586 21.414 11.773 32.922 0.66406 3.4492 1.8711 6.793 2.8281 10.184-5.4805-3.4375-10.961-6.8711-18.137-11.375-3.4219 6.1406-6.7539 12.117-9.9492 17.848l-7.8828-5.6289-2.7344 2.0898 11.098 29.148 4.1016-0.96484 0.62891-14.172h0.003907c4.6484-0.28906 9.1953-1.5 13.375-3.5586 3.6445-4.1719 6.7422-8.7891 9.2188-13.742l11.094-1.4688 2.6406 3.4414c-16.715 9.5117-15.785 31.879-35.059 41.531 2.5938 5.9258 5.2227 11.926 8.1289 18.555l15.348-11.672 3.6289 2.8672c-2.5547 4.1016-4.8555 8.3906-7.7109 12.27-9.6172 13.07-6.8945 21.895 7.918 29.105-0.45703 10.363-0.87891 19.898-1.3008 29.41-7.2383 4.1719-14.43 8.4297-21.723 12.5-4.3164 1.793-7.5781 5.4531-8.8594 9.9453-1.2852 4.4922-0.44531 9.3242 2.2734 13.125 3.5781 7.2188 6.5898 14.715 9.8555 22.09l-4.7578 2.6641c-5.9258-9.4492-11.855-18.906-17.793-28.375-36.887 28.75-41.613 34.266-18 72.539 16.656-8.8711 24.379-29.121 44.426-37.258-0.57031 2.207-1.4297 4.3359-2.5508 6.3242-8.4258 8.5039-17.008 16.852-25.48 25.309-16.465 16.438-16.617 16.551-5.3086 36.539 2.1562 2.8164 2.9336 6.457 2.1094 9.9062-0.82031 3.4531-3.1562 6.3516-6.3516 7.8945-9.7227 6.543-18.672 14.168-26.68 22.727-13.852 16.289-25.812 34.168-39.191 50.883-10.484 13.098-10.906 12.758 2.1758 24.332 11.945-9.0547 23.895-18.109 35.844-27.168l3.1562 3.5234c-19.195 19.449-38.391 38.898-56.73 57.48l6.168 24.105-15.531-13.293c-9.0273 12.859-1.2109 20.02 6.625 31.398l8.5977-18.508 22.121-6.9844c-4.5664 5.957-7.1289 9.8438-10.223 13.25-12.77 14.059-25.578 28.09-38.617 41.898-3.8086 2.6094-6.5273 6.5273-7.6367 11.008-1.1133 4.4805-0.53516 9.2109 1.6172 13.297-0.21875 2.0078-0.9375 3.9336-2.0898 5.5938l-10.676-7.7344c-6.7656 8.2734-12.52 16.355-19.344 23.398-8.5508 8.8242-5.9062 15.613 1.7891 23.391 13.445-13.242 26.105-25.711 38.77-38.184l3.75 3.4336c-12.547 15.336-25.09 30.676-37.629 46.02-12.148 14.945-24.465 29.766-36.23 45.012-12.238 15.867-23.902 32.176-35.82 48.289l-3.9805-1.8359v0.003906c1.3828-4.625 3.2773-9.082 5.6484-13.285 16.828-23.465 34.059-46.641 51.098-69.953 8.8477-12.105 8.7891-12.148-3.043-24.621l-49.977 67.453-4.1445-2.8242c4.5781-7.6406 8.8086-15.523 13.836-22.859 2.5859-3.3281 4.1875-7.3164 4.6211-11.512 0.43359-4.1953-0.31641-8.4258-2.168-12.215-8.9688-21.441-17.387-43.16-24.891-65.152h0.003906c-2.8711-10.535-5.0039-21.258-6.3867-32.086l4.2461-1.0898c6.3438 15.426 12.941 30.75 18.953 46.305 4.6484 12.027 14.273 22.402 10.078 37.496 0.8125 7.0156 3.1797 13.762 6.9336 19.746 7.043-8.3906 11.969-15.051 17.707-20.918 5.5-4.082 8.9102-10.391 9.3125-17.227 0.39844-6.8359-2.2539-13.5-7.2422-18.191l-11.117 2.0977c7.4414-15.293 7.4414-15.293-0.019531-27.73l-14.789 11.301-0.003906-0.003907c2.0352-6.3906 4.9492-12.465 8.6602-18.051 2.25-3.3945 3.1641-7.5039 2.5586-11.531-8.3633-19.309-17.527-38.273-26.734-57.203-2.4805-1.4492-5.2383-2.3594-8.0938-2.6719-9.7695 18.629-23.816 34.68-40.988 46.836 0.41797-4.7695 2.3164-9.293 5.4336-12.926 14.207-12.047 12.02-25.07 4.6133-39.625h-0.003906c-2.6289-3.3984-4.1367-7.5273-4.3203-11.824-0.17969-4.293 0.98047-8.5352 3.3164-12.141 5.668 13.742 10.207 24.746 16.121 39.086 10.688-19.234 30.711-27.605 30.816-49.367 17.918-3.3164 20.902-7.5 18.703-24.598h0.003906c-0.39844-5.6562-0.43359-11.332-0.11328-16.996l4.4727-0.23828c2.0156 5.5156 4.0312 11.031 6.2539 17.113 5.7266-4.1406 10.801-7.8125 15.879-11.484-2.7852 5.4766-5.7969 10.852-8.2773 16.465-2.6992 3.8867-4.1836 8.4883-4.2578 13.219 7.4844 21.332 16.129 42.254 24.688 64.078 10.301-6.9648 5.6797-12.574 3.1094-18.027-7-14.844-15.977-29.047-14.961-45.395 4.9062 3.4844 10.258 7.2812 15.609 11.082zm121.21-303.65c0.19141-43.168-10.484-85.684-31.035-123.64-22.242-42.543-58.023-64.113-102.05-75.324-27.418-6.6797-55.77-8.6914-83.855-5.9453-28.051 2.3867-55.457 3.0391-81.855 17.148-55.562 29.695-94.676 70.816-104.45 134.88-8.5117 55.816-13.277 111.39 25.617 159.79 6.6289 8.2461 13.453 16.355 19.637 24.926 23.273 32.688 59.297 53.996 99.152 58.645 28.059 3.1758 56.258 4.9219 84.488 5.2305 35.809 0.65234 70.438-12.793 96.418-37.441 22.898-19.84 41.594-44.066 54.98-71.246 13.383-27.184 21.188-56.77 22.953-87.016zm-177.13 318.61c6.1719 25.637 8.6367 51.633 25.258 75.574 8.2422-11.555 14.586-20.441 20.852-29.227-9.0469-22.695-17.738-44.504-26.586-66.707-17.559 6.4414-9.5859 18.344-6.1836 31.688zm225.22-303.88c-8.3359 10.777-20.094 19.371-21.594 29.488-2.2109 14.891-18.105 15.191-21.461 27.477-3.5938 10.379-7.9609 20.469-13.062 30.191 20.863-20.766 40.176-42.352 59.449-63.977 6.2891-7.0547 5.1562-13.836-3.332-23.18zm-376.82-215.37c31.812-11.191 46.086-35.605 64.203-55.68 4.5859-5.082 3.3555-10.348-4.8867-13.84-18.746 21.969-37.734 44.223-59.316 69.52zm197.07 653.47c9.6406-11.227 18.074-21.047 26.836-31.246l-12.84-15.621c-25.633 22.59-26.578 25.562-13.996 46.863zm149.21-420.26 4.25 1.8008c5.1016-6.4805 10.484-12.762 15.238-19.488 9.043-12.789 8.8203-13.422-4.2031-27.809-17.02 11.633-14.246 29.156-15.285 45.496zm-158.84 382.78c19.574-15.801 20.203-17.535 12.629-34.727-19.621 15.84-20.785 19.039-12.629 34.727zm173.98-534.21c-9.8164 15-1.0195 25.418 2.8008 37.426 13.691-14.359 13.691-14.359-2.8008-37.426zm-11.418 74.84-4.9414 0.46484c1.1133 9.4023 2.2266 18.805 3.5625 30.102 16.004-12.551 6.918-21.449 1.3789-30.566zm-389.31-218.97c4.6836-1.2266 8.9023-3.8086 12.121-7.4297 3.2188-3.6172 5.2969-8.1055 5.9648-12.902-9.0273 3.9883-18.289 7.6484-18.086 20.332zm302.66 517.79-5.0625 1.1641c2.0547 7.2695 4.1055 14.539 7.2891 25.801 5.9219-14.891 5.9219-14.891-2.2266-26.965z"/>
  <path d="m488.5 166.39c5.918-2.8828 11.523-6.3633 16.73-10.395 10.438-9.8281 20.008-20.574 33.289-34.457l5.3711 24.031c-2.6211-2.2969-5.2383-4.5898-9.1445-8.0156-13.48 13.953-29.984 24.734-33.258 42.562l-0.003906 0.003906c-7.082 4.6445-13.766 9.8711-19.988 15.621-15.395 18.289-32.004 35.52-49.723 51.57 1.2969-3.043 2.875-5.9531 4.7188-8.6992 14.094-17.395 28.734-34.359 42.398-52.082 3.9219-6.3477 7.1445-13.102 9.6094-20.141z"/>
  <path d="m582.45 951.61c-10.836-15.949-21.672-31.895-32.004-47.105 12.559 3.043 26.746 20.891 32.004 47.105z"/>
  <path d="m432.33 790c-9-17.621-18-35.246-27-52.867l4.1094-2.1484c9.4297 17.457 18.859 34.91 28.289 52.367z"/>
  <path d="m387.08 645.52c-12.633-7.1133-12.293-20.129-15.664-32.953 10.316 7.8398 16.062 20.293 15.328 33.227z"/>
  <path d="m335.23 429.65c-2.8242-9.5352-5.6484-19.07-8.4688-28.609l4.7969-1.3359c2.6445 9.6016 5.293 19.199 7.9375 28.801z"/>
  <path d="m329.91 507.7c-1.9453-7.7461-3.8906-15.492-5.8398-23.238l4.0938-1.3828c2.5273 7.6406 5.0508 15.277 7.5742 22.918z"/>
  <path d="m353.8 556.39 7.7812 20.281-5.4023 1.9023c-2.3906-6.832-4.7773-13.66-7.168-20.492z"/>
  <path d="m459.72 827.58c3.3828 6.2812 6.7656 12.562 10.145 18.848l-3.8398 2.2891c-3.8125-6.0391-7.6211-12.078-11.434-18.117z"/>
  <path d="m441.61 751.92-9.1133-15.902 4.2539-2.4844c3.0781 5.2773 6.1562 10.555 9.2344 15.832z"/>
  <path d="m406.73 690.84c-2.5273-4.4766-5.0586-8.9531-7.7656-13.746 1.4883-0.5 3.0195-0.85156 4.5742-1.0547 2.1328 4.4766 4.043 9.0547 6 13.617z"/>
  <path d="m316.85 463.37c-1.0625-5.2344-2.125-10.469-3.1875-15.703l4.9961-1.2891c1.418 5.2773 2.8398 10.551 4.2578 15.828z"/>
  <path d="m673.82 994.27c-3.4688 4.3633-6.9414 8.7266-10.41 13.09l-3.7383-2.7773c3.3242-4.4414 6.6445-8.8867 9.9688-13.328z"/>
  <path d="m348.85 470.29-5.1211-12.594 2.8164-1.7578c1.6016 2.0977 2.9922 4.3477 4.1523 6.7188 0.60938 2.2812 0.94141 4.6328 0.99219 6.9961z"/>
  <path d="m386.75 645.79 9.3477 10.219c-11.238 1.5547-8.7539-5.2305-9.0117-10.492z"/>
  <path d="m356.91 483.58c1.1523 3.0547 2.3047 6.1055 3.457 9.1602l-3.3008 1.2578-3.5391-9.125z"/>
  <path d="m741.03 424.98c2.1523 39.625-16.625 69.086-45.93 92.914h-0.003906c-20.582 16.254-44.598 27.605-70.219 33.203-15.938 2.8359-32.336 1.5625-47.641-3.707-34.363-9.332-64.477-30.184-85.305-59.062-6.8125-9.7344-10.898-21.117-11.832-32.965-3.9922-49.582 16.965-97.902 55.895-128.87 29.973-26.031 71.391-34.453 109.15-22.191 7.3594 2.4336 14.551 5.3828 21.926 7.7695 44.648 14.457 67.297 46.219 72.332 91.82 0.77344 7.0039 1.0977 14.059 1.6289 21.09zm-171.96-37.91 2.6172-14.562c-14.184 11.594-29.055 21.102-35.211 37.992h-0.003906c0.76953 2.1055 2.0156 4.0117 3.6406 5.5586 10.125-10.164 19.703-19.777 29.281-29.391-1.4609 7.3398-2.9219 14.68-4.4688 22.48-16.359 4.3867-19.602 9.5938-14.992 25.422 0.77344 2.6602 1.7227 5.2695 2.5938 7.9023l-22.602-7.7148c1.6406-5.4609 9.0352-16.348-7.5742-18.473l0.29688 0.29688c-1.8516-6.3633-4.0938-12.656-5.3125-19.141l-0.007813-0.007812c0.78125-2.7891 2.2031-5.3594 4.1562-7.5039l10.809 8.8008c5.5391-5.0625 13.207-8.25 3.5898-17.449h0.003906c-2.8281-4.793-4.5586-10.152-5.0703-15.691 5.0195 1.3242 10.301 1.2891 15.305-0.10547 8.8789-8.9453 17.23-18.402 25.004-28.324-16.812 3.5195-31.348 13.996-40.004 28.836-15.273 14.777-26.148 33.508-31.406 54.098-4.2656 12.945-2.9805 27.078 3.5469 39.047 6.9297 11.418 14.539 22.414 22.781 32.926 19.672 27.5 51.73 43.422 85.531 42.473 27.59-0.89453 48.266-15.211 68.242-30.473 29.18-22.289 51.496-49.043 40.949-90.023 5.8477-24.613-6.375-41.738-21.105-60.051-18.656-23.195-42.93-30.531-69.973-33.98-21.383-2.7266-30.559 14.414-42.453 26.945h-0.003906c-2.6055 2.3867-4.875 5.1172-6.7539 8.1094-1.4023 3.3867-2.457 6.9102-3.1484 10.512l2.8438 1.6797c11.09-11.652 22.18-23.305 35.887-37.707v23.762c-5.1445-1.3164-10.391-5.3398-15.023 1.2695l-0.003906-0.003906c-4.9023 5.0312-9.0391 10.758-12.266 17-1.2539 4.3125-3.8281 8.1289-7.3594 10.906-3.5312 2.7812-7.8477 4.3828-12.336 4.5859zm-6.7383-23.285-2.8086-2.7891c-3.3672 4.0469-6.7344 8.0977-10.102 12.145v-0.003907c2.3555 0.79688 4.957 0.19922 6.7266-1.5469 2.2422-2.4336 4.1406-5.1875 6.1836-7.8047z"/>
  <path d="m670.55 189c-0.54297-14.168 9.5273-19.613 15.215-27.129 3.2695-2.875 5.5938-6.6758 6.6641-10.898 1.0703-4.2227 0.83594-8.6719-0.67188-12.758l13.516 13.734z"/>
  <path d="m709.13 211.31c6.4453-25.973 10.988-31.574 30.77-36.832-9.2656 11.09-18.531 22.184-30.77 36.832z"/>
  <path d="m580.69 138.03-10.504-13.344c10.688-1.1797 10.91 5.7031 12.934 11.137-0.80859 0.73047-1.6211 1.4688-2.4297 2.207z"/>
  <path d="m657.98 780.99c-2.3008-2.4219-4.0781-5.2969-5.2188-8.4375 0.91016-2.1328 2.6484-3.8086 4.8164-4.6367 1.7109 0.71875 3.0391 2.1289 3.6641 3.8789-0.61328 3.2109-1.7148 6.3125-3.2617 9.1953z"/>
  <path d="m628.77 374.5c-6.1367 2.8125-11.859 6.4453-17.012 10.801-15.762 17.516-30.898 35.621-45.68 53.977-2.8047 4.7617-4.9062 9.9062-6.2422 15.266-3.375-0.42578-6.7422-0.84766-10.969-1.3828l3.2969-11.023c20.164-23.215 40.246-46.5 60.551-69.594v0.003906c2.3594-2.6172 3.9023-5.8711 4.4375-9.3555 0.53516-3.4844 0.039062-7.0469-1.4297-10.254 2.0078 2.0117 4.8516 2.9453 7.6602 2.5195 2.8086-0.42969 5.2461-2.168 6.5664-4.6836 4.0117-5.9453 9.7656-10.504 16.473-13.055-1.7812 3.6758-3.5703 7.3438-5.3359 11.027-4.1133 8.582-8.2188 17.168-12.316 25.754z"/>
  <path d="m573.32 459.41c12.77-18.219 25.254-36.645 38.418-54.578 6.9961-9.5312 17.461-16.941 16.719-30.625 5.6406-3.5859 11.574-6.7891 16.832-10.867 4.7695-3.6992 8.8008-8.3516 16.66-15.992 0.085937 8.3594-3.0977 16.422-8.875 22.469-10.855 10.867-21 22.422-30.379 34.586-3.0273 6.0195-5.0039 12.508-5.8555 19.191-0.54688 0.75391-1.1094 1.4961-1.6875 2.2227-10.293-4.125-13.168 5.2383-18.332 10.223-7.9492 7.668-15.676 15.566-23.5 23.371z"/>
  <path d="m678.69 401.69-54.531 57.02c7.4102-24.562 36.68-53.859 54.531-57.02z"/>
  <path d="m688.97 454.93c-16.668 16.832-33.34 33.66-50.008 50.492l-3.2891-3.1641c14.012-19.176 30.387-36.5 48.742-51.566z"/>
  <path d="m637.96 409.29c-9.5664 22.672-29.73 36.453-42.23 56.664l-5-3.7695 24.422-36.375c0.57812-0.72656 1.1406-1.4648 1.6875-2.2227 6.4766-5.3594 12.953-10.719 19.43-16.074 0.56641 0.58594 1.1289 1.1797 1.6914 1.7773z"/>
  <path d="m636.27 407.52c7.2422-13.867 18.566-25.176 32.441-32.402 2.0078 11.41-9.1562 12.648-13.84 18.281-4.9141 5.9141-5.1016 17.266-16.91 15.895-0.55859-0.59375-1.1211-1.1836-1.6914-1.7734z"/>
  <path d="m653.83 464.03-18.738 13.648c1.5742-7.8008 1.5742-7.8008 15.82-16.672z"/>
  <path d="m564.98 459.15 8.668-0.10156c-0.51172 10.664-8.8438 14.812-18.594 18.652z"/>
  <path d="m522.34 416.28c-3.5898 6.4219-7.1797 12.84-10.766 19.262-2.707-10.832 5.0859-14.223 11.066-18.961z"/>
  <path d="m676.22 440.04c-3.3945 2.6523-6.7852 5.3047-10.18 7.957l-3.1094-3.3516c2.9102-3.1992 5.8203-6.3984 8.7305-9.6016z"/>
 </g>
</svg>
