<?xml version="1.0" encoding="UTF-8"?>
<svg width="1200pt" height="1200pt" version="1.1" viewBox="0 0 1200 1200" xmlns="http://www.w3.org/2000/svg">
 <g fill="#5b6864">
  <path d="m910.7 465.55c2.1172 23.844-2.9062 47.777-14.434 68.758-4.1992 8.4258-7.6484 17.203-10.305 26.234-11.906 27.465-28.156 52.832-48.129 75.129-13.984 17.723-27.25 36.043-40.148 54.562-17.07 24.512-34.211 49.031-49.996 74.344v0.003907c-29.422 44.672-54.621 91.988-75.277 141.33-12.855 33.066-23.715 66.875-32.512 101.24-6.4922 25.168-14.023 50.105-20.797 75.215 0.023437 4.8672-3.5039 9.0234-8.3086 9.793-2.3398 0.066407-4.6016-0.86719-6.2148-2.5625-1.6172-1.6953-2.4375-4-2.2578-6.3359-0.41797-2.5039-1.207-4.9336-2.3438-7.207-21.562-42.578-32.242-89.164-46.246-134.59-7.1875-23.316-19.258-44.926-27.48-67.941-13.855-35.086-31.281-68.656-52-100.18-14.539-22.027-30.25-43.258-47.062-63.602-8.6523-11.27-17.609-22.379-27.285-32.758-32.516-36.52-59.227-77.82-79.199-122.45-13.074-26.207-21.211-54.594-24.008-83.746-1.4414-17.875-6.793-35.367-7.5-53.246-2.1328-53.895 15.945-102.79 42.629-149.92 13.727-21.086 28.863-41.223 45.301-60.27 6.8555-7.9258 14.66-14.977 23.242-20.992 13.551-10.773 26.953-21.918 41.426-31.289v0.003906c33.43-22.395 71.359-37.191 111.12-43.348 14.246-2.0273 28.859-0.63281 43.109-2.6367 12.164-1.7227 24.512-1.7031 36.672 0.058594 59.316 8.582 115.13 33.316 161.33 71.496 30.25 24.23 48.832 56.793 67.207 89.676h0.003907c17.223 31.426 29.84 65.164 37.473 100.18 8.3516 30.98 12.387 62.965 11.988 95.051zm-243.99 414.32c4.9453-9.207 10.148-18.293 14.664-27.695h-0.003906c1.0547-2.8828 1.1406-6.0352 0.24609-8.9727-4.5234-17.289-9.457-34.461-14.027-51.738-0.33594-2.5781-0.33984-5.1875-0.015625-7.7695l2.2734-0.40625c5.3359 17.719 10.672 35.438 16.004 53.156 1.0781-0.22656 2.1172-0.62109 3.0781-1.1602 19.047-30.148 37.922-60.406 57.152-90.441 2.2852-3.6328 3.2383-7.9453 2.6992-12.203-0.53906-4.2578-2.543-8.1953-5.6602-11.141-6.2109 6.8242-11.484 14.445-15.672 22.668-3.4141 6.7773-7.6055 13.133-12.496 18.934-5.7266 9.4766-15.977 17.754-11.426 30.875-0.11328 0.98828-0.46094 1.9336-1.0117 2.7656l-6.4766-2.0039c-3.7383 5.0508-7.2891 9.8477-10.836 14.641 1.6914-9.5273 7.9609-17.621 9-26.176h-0.003906c-0.11328-9.5312-1.5898-18.996-4.3828-28.109l1.625-0.35156 8.0117 17.992c18.781-24.508 18.461-24.41 11.527-50.172-5.1836-19.258-9.543-38.77-13.949-58.25h-0.003906c-0.72656-4.7305-1.0977-9.5078-1.1172-14.297l3.1641-0.66797c5.2812 29.613 13.055 58.723 23.242 87.023 6.332-8.0703 11.523-13.996 15.84-20.488h0.003906c2.4844-3.2188 3.7695-7.207 3.6289-11.273-1.582-4.0156-3.9023-7.6953-6.8398-10.852 0.48828-5.5391 0.49219-11.109 0.011719-16.648-2.9883-17.184-6.6914-34.219-9.9141-51.355 0.066407-3.3477 0.50781-6.6797 1.3164-9.9297 5.5547 22.168 10.258 40.918 15.223 60.734 13.316-13.344 17.273-25.895 10.633-41.293h0.003906c-1.7305-6.4766-2.5234-13.168-2.3477-19.871l3.1641-0.53516c2.875 9.8555 5.75 19.711 9.1367 31.324 6.2539-8.5273 11.547-15.027 16.012-22.035 2.168-3.3633 2.7812-7.4922 1.6875-11.34s-3.7891-7.0391-7.3984-8.7578l-1.1797-1.0195 4.6484-18.91c4.625-2.375 8.6953-5.7109 11.93-9.7812 6.3633-7.1836 12.625-14.453 18.926-21.684-5.5586 10.559-11.703 20.797-18.406 30.668-3.5664 3.6289-5.6836 8.4336-5.957 13.512-0.26953 5.0781 1.3203 10.082 4.4805 14.07 8.5938-3.2344 10.617-15.363 23.926-14.785-5.8555 6.9375-10.055 12.621-14.984 17.574v-0.003906c-2.957 2.5586-4.9688 6.0352-5.7148 9.8711-0.74219 3.8359-0.17188 7.8125 1.6172 11.289 3.4258 4.7812 4.1328 10.992 1.875 16.418-3.4336-6.4961-6.8672-12.992-11.09-20.977-4.4961 5.8516-7.6562 10.668-11.52 14.84-3.2188 3.0703-5.3672 7.0938-6.1328 11.473-0.76563 4.3828-0.10547 8.8945 1.8789 12.875 1.4023 3.8984 2.5664 7.8789 3.4844 11.922l-3.7969 1.6211c-2.8984-5.2812-5.8008-10.562-9.125-16.625-8.2109 11.141-18.637 20.699-8.5898 34.527l10.891 1.2773c-7.8555 8.4336-12.066 15.719-3.3984 24.242 2.0586-2.707 3.7461-4.6758 5.1523-6.8164 25.668-39.07 51.508-78.031 76.875-117.29v-0.003907c18.293-27.09 32.332-56.816 41.641-88.152-16.473-21.527-17.613-48.223-26.258-74.609-4.9375 5.7617-8.8438 9.7656-12.102 14.23-8.6484 11.852-16.188 24.609-25.707 35.695-13.051 15.203-6.5391 29.184-2.125 46.762 6.8281-9.6484 11.906-16.891 17.059-24.078h0.003906c5.543-6.4023 7.3789-15.215 4.8555-23.297-2.6875-5.6602-2.6211-12.246 0.1875-17.848 2.4961 8.5273 4.2461 14.512 6.0664 20.734 4.6484-2.2539 8.0703-3.9102 12.762-6.1836-10.723 22.672-10.73 22.676-3.6719 48.945 0.82031 1.8672 1.4336 3.8203 1.8281 5.8242-0.13672 2.5781-0.50781 5.1328-1.1211 7.6406l-3.375 0.46094c-2.8828-11.727-5.7656-23.457-9.2969-37.832-7.5625 10.594-12.848 18.398-18.57 25.875l0.003907-0.003906c-4.3633 5.2812-5.9062 12.344-4.1484 18.961 2.4414 10.484 4.4219 21.105 6.1719 31.754 0.074219 3.0234-0.26562 6.0469-1.0039 8.9844-4.3398-10.082-7.5273-20.617-9.5039-31.41-1.4062-4.1406-3.2031-8.1445-5.3711-11.945 0.28516-14.477 2.7969-29.379-7.3789-41.746-0.4375-1.9141-0.3125-3.918 0.36328-5.7617 0.70312-5.082 1.5-10.156 2.2383-15.117 2.0977 0.66797 4.3203 0.86328 6.5039 0.57422 8.6367-13.164 22.066-23.91 21.465-41.445 6.875 0.84766 6.875 0.84766 22.273-17.301-1.8984-13.023-3.8125-26.152-5.7266-39.285l3.3672-0.84766c0.72266 2.2422 1.6094 4.4453 2.1445 6.7422 6.0586 25.949 11.609 52.043 18.316 77.801v-0.003906c1.2422 10.426 5.8164 20.176 13.047 27.789 8.7539-25.023 16.215-48.832 11.367-74.051-3.4766-18.074-7.7656-35.969-11.281-54.035-9.4492-48.148-28.656-93.848-56.445-134.29-28.391-40.637-67.793-72.324-113.57-91.348l-19.57 31.246 16.984 23.098c20.258-29.66 20.258-29.66 31.008-31.012-5.7031 7.1367-10.266 12.473-14.406 18.117-7.3086 9.957-16.996 19.605-7.8672 33.703l-9.8008-7.082c-11.598 19.312-22.656 37.734-33.715 56.156-0.72266-12.875 11.957-22.57 6.293-35.754 3.0039-0.4375 6.2109 3.9961 9.1016-1.4727 4.5781-8.6602 9.8945-16.949 15.285-26.051l-15.531-22.223c-20.895 22.957-21.195 24.812-8.9297 47.023l-0.007812 0.003907c0.28516 0.95703 0.39062 1.9609 0.30469 2.957-4.8711-4.3984-9.7422-8.793-14.859-13.414l-12.598 18c3.4414-9.1875 5.6836-18.777 6.668-28.535-3.418-9.1367-8.6016-17.512-15.254-24.645-7.9492 10.672-13.816 19.297-9.6367 30.891-13.098-1.7188-10.887-12.414-13.727-19.801l7.4297 3.4805c10.852-17.988 17.074-22.121 0.054687-35.051-14.695 17.09-14.902 17.957-7.4648 31.465l-13.172-3.2852c-1.5977-4.293-2.9531-8.4062-4.6484-12.359-1.9336-4.5117-4.168-8.8867-6.2695-13.324l13.625 11.184c17.258-20.32 17.391-21.797 3.4805-39.812h-0.007813c-9.168 7.0664-15.223 17.422-16.883 28.875l-9.5664 3.0703 0.27734 0.22656c-1.2969-4.625-2.9219-9.1484-4.8711-13.539-3.1875-6.0859-7.1758-11.727-10.816-17.547l21.973 15.285c6.3711-11.066 12.848-22.316 19.629-34.09-27.152-4.707-27.297-4.6484-40.07 16.266-0.49219 0.91406-0.92578 1.8594-1.3047 2.8242-15.855 22.062-15.863 22.395-1.5156 43.363 0.85937 1.2578 1.5781 2.6211 2.4961 3.832 6.418 8.4375 6.4297 8.4297-3.2188 15.652 2.9375-15.156-9.457-21.512-16.785-33.25l-9.2734 16.887 16.742 24.34 8.7695-7.082c-1.1953 7.2344-2.3906 14.473-3.7656 22.797-2.9023-3.5078-5.8516-6.8047-8.5039-10.332-4.4219-5.5117-8.5312-11.262-12.309-17.23-3.1562-5.3359-6.7617-2.4336-10.484-1.3594 3.1055-14.078-7.3672-21.582-14.457-33.234l-7.8359 13.664 6.4961 19.074c-1.5742-3.0898-4.2148-5.5078-7.4336-6.8008-3.2188-1.2969-6.7969-1.3828-10.074-0.24609 3.8398-11.512-2.8359-16.492-8.5742-22.723-2.8008 2.3008-5.125 4.2109-7.4492 6.1211 3.7344-10.926 7.4727-21.852 11.559-33.805-14.723-0.46484-20.027 9.0859-24.887 20.512 4.5391 4.3633 3.4531 14.113 13.621 13.008l-0.003906-0.003906c-0.55078 4.082 0.011718 8.2344 1.6328 12.02s4.2383 7.0586 7.5703 9.4727c6.3633 6.4492 10.367 14.859 11.355 23.863-8.0859-9.8242-16.168-19.648-26.945-32.746l-4.7773 9.418c1.6562-9.5391 3.1328-19.02-8.332-25.367l-7.793 14.52c2.5508 4.6211 4.3828 8.1758 6.4336 11.59 2.6562 4.418 5.9453 2 9.1133 0.31641l-3.3594 12.34c-9.5508-3.6094-9.4414-17.105-21.211-14.176-0.47656-0.77734-0.74219-1.6641-0.77344-2.5742 1.2344-9.4609-7.0781-12.398-11.008-18.273v-0.003907c-27.863 18.438-52.223 41.68-71.945 68.641-8.5391 9.2344-16.266 19.188-23.094 29.75-12.695 21.637-22.219 44.98-28.285 69.32-5.1797 20.633-7.9258 41.797-8.1836 63.066 0.26562 11.371 0.50391 22.766 0.082031 34.145 0.003907 35.539 8.2891 70.59 24.207 102.36 15.18 36.738 35.707 71.027 60.914 101.76 12.434 16.656 25.855 32.551 40.199 47.59 15.676 13.988 29.141 30.273 39.938 48.297 27.621 46.223 54.926 92.68 78.105 141.44 23.695 47.02 41.391 96.828 52.664 148.26 1.3906 5.1484 3.1641 10.184 5.3008 15.07l3.8984-1.2305c-4.2188-20.703-8.4336-41.41-12.652-62.113l3.2539-0.90625c3.9414 14.207 7.8828 28.414 12.516 45.105 6.3047-6.2656 8.9961-15.309 7.1445-24.004-7.1055-23.977-13.188-48.289-19.512-72.516v0.003906c-0.30859-2.3984-0.3125-4.8203-0.011719-7.2188l2.4844-0.46094c6.3711 24.227 12.746 48.453 19.57 74.402 10.383-19.621 10.609-24.664 4.2422-40.883v0.003906c-2.125-5.7617-3.8125-11.676-5.043-17.691-4.957-21.977-9.8711-43.969-14.473-66.035-1.4258-6.8438-1.8047-13.938-2.6602-20.918 12.129 33.867 14.875 70.508 31.109 105.81 6.8555-23.785 15.719-44.359 3.9648-66.027l-0.003907-0.003906c-2.793-6.6133-4.7539-13.551-5.832-20.652-1.7773-7.2461-3.2461-14.582-4.8516-21.875 10.773 16.316 10.66 37 22.695 53.32 4.2617-9.1055 8.0234-17.145 11.785-25.18zm-17.922-696.25 19.234 29.898c6.582-11.949 11.734-21.305 16.637-30.203-0.42187-6.2461-7.0078-10.48-3.4883-17.676l10.691 8.5391c4.9961-10.402 9.3555-19.477 14.191-29.543-8.8945-4.2891-15.949-7.6914-24.457-11.793-11.23 17.387-21.633 33.484-32.812 50.781zm-138.7-3.7695 27.238-47.617v0.003906c-6.7148-0.50391-13.434 0.90625-19.371 4.0742-5.9414 3.1641-10.863 7.9531-14.188 13.805-7.125 12.379-2.3984 20.172 6.3203 29.738zm162.59-45.797c-15.445-8.2695-16.816-7.9414-25.09 5.2461-1.6562 2.6406-3.2031 5.3477-4.8711 7.9805-7.9453 12.527-7.6445 15.566 3.7383 28.605 8.875-14.16 17.531-27.965 26.223-41.832zm-97.512-6.0703c-13.395-0.12109-25.488-3.5391-32.723 11.207l14.32 21.621c6.7109-11.973 12.148-21.672 18.402-32.828zm-32.16 57.086c11.438-14.555 9.9062-21.465-6.7852-34.906-8.707 12.047-7.7305 17.578 6.7852 34.906zm104.66-59.441c-10.773 0.91406-19.594-3.9102-24.246 5.7461-4.2266 8.7656 2.0938 14.094 8.6797 20.383 4.957-8.3242 9.3984-15.777 15.566-26.129zm-194.19 58.297 3.7656 0.88672c3.8516-9.0117 7.7031-18.023 11.559-27.035l-1.8203-1.7656-20.398 14.02z"/>
  <path d="m606.13 544.76c-23.781 1.6992-47.52-3.8789-68.059-15.992-10.051-5.9414-18.836-13.797-25.859-23.125-14.191-17.59-23.25-38.758-26.168-61.168-2.9219-22.414 0.40234-45.195 9.6094-65.836 6.7266-16.68 18.016-31.125 32.578-41.68 14.559-10.559 31.801-16.801 49.742-18.008 20.336-3.6875 41.211-3.1484 61.328 1.582 13.488 2.5312 26.363 7.6172 37.934 14.992 9.707 9.6445 17.109 21.359 21.648 34.27 5.3125 12.785 9.0977 26.152 11.277 39.824 1.7578 10.191 1.7656 20.609 0.023438 30.801-3.6641 26.695-15.324 51.656-33.453 71.594-18.301 19.785-43.672 31.551-70.602 32.746zm90.75-111.81c-0.60938-8.1289-0.85156-16.32-1.9062-24.375-2.6875-20.535-16.375-34.617-29.254-48.703v-0.003906c-6.6758-6.8984-14.504-12.582-23.129-16.793-23.691-12.273-51.57-13.539-76.273-3.4648-2.4023 1.0039-4.8789 1.8203-7.4062 2.4375-32.578 6.582-49.988 28.891-57.984 58.887-7.1328 26.598-3.7031 54.922 9.5742 79.043 10.207 23.051 30.168 40.34 54.438 47.156 41.906 11.461 75.195 6.0234 107.8-31.164v-0.003906c15.711-17.203 24.336-39.715 24.137-63.016z"/>
  <path d="m750.04 214.74c-10.656 17.781-19.012 31.723-27.367 45.664l-2.9609-1.5781c5.4453-9.0039 5.3281-19.465 13.508-28.48 7.7305-8.5195 15.641-20.707 5.0273-33.16h0.003906c-0.46484-0.92578-0.60547-1.9805-0.39453-3 0.32422-1.4961 0.76953-2.9688 1.332-4.3984 3.293 4.0977 6.1367 7.6367 9.6875 12.055 4.6484-5.6016 8.75-10.539 12.852-15.48l2.8789 1.3711c-0.92187 3.4883-2.1719 6.8789-3.7422 10.129-8.1133 13.539-8.2148 13.578 0.44922 25.625 1.75 2.4336 3.3633 4.9727 4.5508 6.7344 10.586-4.8086 9.5273-18.602 21.562-19.871 2.7734 7.6641-3.5898 10.555-6.7695 14.594-5.7266 7.2773-11.234 14.363-4.5508 24.492l-8.4766-4.4375c-9.793 16.227-19.617 32.508-29.477 48.844l-2.7344-1.2461c3.7734-8.0078 7.3164-16.133 11.395-23.992h0.003906c2.9531-6.1016 6.4727-11.914 10.512-17.355 8.6289-10.926 7.3594-17.648-2.6133-28.504-1.7695-2.5391-3.332-5.2148-4.6758-8.0039z"/>
  <path d="m804.09 310.77c-11.707 6.0742-19.945 17.223-22.312 30.195-4.0547 12.574 9.7227 20.805 14.242 32.969l9.3711-6.0234c0.87109 8.3672-6.2812 12.281-9.4727 21.23-3.7891-8.9492-5.9023-15.008-8.8477-20.605-3.043-5.7734-6.8984-11.098-11.785-18.805-5.2695 8.4688-9.8906 15.891-14.508 23.309l-1.4062-0.71094-0.003906 0.003906c3.8789-11.484 8.3672-22.75 13.441-33.758 7.418-14.664 15.906-28.766 25.398-42.184 8.7539-11.543 19.109-21.785 30.75-30.418-0.089843 2.4922-0.65625 4.9453-1.668 7.2266-5.5547 7.5781-12.062 14.512-17.242 22.312-2.543 4.8516-4.543 9.9688-5.957 15.258z"/>
  <path d="m864.73 358.28c-25.262 35.238-48.859 68.156-72.457 101.07 3.8867-12.785 10.121-24.73 18.383-35.23 7.2734-12.121 15.234-23.895 23.602-35.312 7.8867-10.754 13.039-24.246 30.473-30.527z"/>
  <path d="m805.26 233.47c0.84375 2.7539 1.0312 5.6641 0.55078 8.5039-18.57 28.473-37.453 56.746-56.215 84.988 5.0391-18.68 42.262-81.996 55.664-93.492z"/>
  <path d="m666.96 879.61c-3.4141-1.6211-6.3633-4.082-8.5742-7.1484-6.5977-24.098-12.477-48.418-18.438-72.707 0.14062-2.1367 0.62109-4.2383 1.4219-6.2266 8.7891 29.938 17.066 58.141 25.344 86.344z"/>
  <path d="m808.33 365.1 8.9141-24.461-8.4258-20.953c4.3438 4.7539 8.6836 9.5078 13.664 14.957 5.9414-7.2461 11.449-13.969 16.957-20.691l3.0234 2.3711 0.003906 0.003906c-10.27 17.008-21.672 33.305-34.137 48.773z"/>
  <path d="m690.24 606.18c2.125 10.371 4.25 20.738 6.375 31.109-8.0078-9.0664-5.8633-20.445-6.375-31.109z"/>
  <path d="m769.26 568.03c-1.7969-8.5117-3.5977-17.023-5.3945-25.535l3.1211-0.78125c4.875 7.9219 5.7188 17.68 2.2734 26.316z"/>
  <path d="m596.89 951.96 3.7188 15.438-3.3906 0.73047-2.3672-15.742z"/>
  <path d="m589.6 175.97-4.7695 15.254-3.1836-1.2617c0.19531-5.6992 3.3008-10.898 8.2305-13.766z"/>
  <path d="m628.03 817.55c0.8125 4.1367 1.625 8.2773 2.4375 12.414l-2.4805 0.60547-2.5234-12.398z"/>
  <path d="m722.45 331.42 7.9141 4.9023-1.6016 2.7617-8.5-4.1875z"/>
  <path d="m631.46 755.51-0.39062-10.074 1.875-0.14062 0.58594 10.043z"/>
  <path d="m772.48 604.05-5.3359 9.8203-3.0859-1.8867c2.4141-2.9805 4.832-5.9648 7.2461-8.9453z"/>
 </g>
</svg>
