<?xml version="1.0" encoding="UTF-8"?>
<svg width="1200pt" height="1200pt" version="1.1" viewBox="0 0 1200 1200" xmlns="http://www.w3.org/2000/svg">
 <g fill="#e4f9f4">
  <path d="m881.47 468.25c0 35.5-28.781 64.281-64.281 64.281s-64.281-28.781-64.281-64.281 28.781-64.281 64.281-64.281 64.281 28.781 64.281 64.281"/>
  <path d="m531.04 646.41c-171.99-20.113-342.18 41.688-470.41 154.72 299.34-199.45 890.67 297.37 1085.4-132.13-200.45 117.06-408.77 1.5156-614.96-22.59z"/>
  <path d="m1046.2 626.55c-73.816-37.605-148.98-52.418-217.64-54.953l5.7109-34.27c-8.5508 2.8086-19.484 2.0312-19.484 2.0312l2.7305 31.934c-45.789-0.83594-88.414 3.6445-125.48 10.258l8.0703-64.559c-11.863 8.7617-23.723 16.703-23.723 16.703l6.3633 49.578c-77.809 14.973-128.82 38.52-128.82 38.52 0-0.007813 378.25 98.504 492.27 4.7578z"/>
  <path d="m687.37 508.46c43.859-25.383 73.391-72.777 73.391-127.1s-29.531-101.71-73.391-127.1c-43.859 25.383-73.391 72.777-73.391 127.1s29.527 101.71 73.391 127.1z"/>
 </g>
</svg>
