<?xml version="1.0" encoding="UTF-8"?>
<svg width="1200pt" height="1200pt" version="1.1" viewBox="0 0 1200 1200" xmlns="http://www.w3.org/2000/svg">
 <g fill="#e4f9f4">
  <path d="m1159.2 922.8c-122.4-87.602-327.6-146.4-559.2-146.4-76.801 0-150 6-218.4 18v-145.2c16.801 13.199 38.398 21.602 61.199 21.602 54 0 97.199-42 99.602-94.801 39.602-13.199 68.398-50.398 68.398-93.602 0-43.199-28.801-80.398-67.199-93.602-1.1992-54-44.398-97.199-99.602-97.199h-4.8008c-15.602-33.602-50.398-57.602-90-57.602-39.602 0-74.398 24-90 57.602h-4.8008c-54 0-98.398 43.199-99.602 97.199-39.602 13.199-67.199 50.398-67.199 93.602 0 44.398 28.801 80.398 68.398 93.602 2.3984 52.801 45.602 94.801 99.602 94.801 22.801 0 44.398-8.3984 61.199-21.602v159.6c-112.8 25.199-207.6 64.801-276 114-21.602 15.602-7.1992 49.199 18 44.398 160.8-24 345.6-37.199 541.2-37.199 195.6 0 380.4 13.199 541.2 37.199 25.199 4.8008 39.602-28.801 18-44.398z"/>
  <path d="m1004.4 481.2c0 55.008-44.59 99.602-99.598 99.602-55.008 0-99.602-44.594-99.602-99.602 0-55.008 44.594-99.598 99.602-99.598 55.008 0 99.598 44.59 99.598 99.598"/>
  <path d="m904.8 350.4c13.199 0 24-10.801 24-24v-52.801c0-13.199-10.801-24-24-24s-24 10.801-24 24v52.801c0 13.203 10.801 24 24 24z"/>
  <path d="m778.8 388.8c4.8008 4.8008 10.801 7.1992 16.801 7.1992s12-2.3984 16.801-7.1992c9.6016-9.6016 9.6016-25.199 0-33.602l-37.199-37.199c-9.6016-9.6016-25.199-9.6016-33.602 0-9.6016 9.6016-9.6016 25.199 0 33.602z"/>
  <path d="m697.2 505.2h52.801c13.199 0 24-10.801 24-24s-10.801-24-24-24h-52.801c-13.199 0-24 10.801-24 24s10.801 24 24 24z"/>
  <path d="m778.8 573.6-38.402 38.398c-9.6016 9.6016-9.6016 25.199 0 33.602 4.8008 4.8008 10.801 7.1992 16.801 7.1992s12-2.3984 16.801-7.1992l37.199-37.199c9.6016-9.6016 9.6016-25.199 0-33.602-8.3984-9.6016-22.801-9.6016-32.398-1.1992z"/>
  <path d="m880.8 637.2v52.801c0 13.199 10.801 24 24 24s24-10.801 24-24v-52.801c0-13.199-10.801-24-24-24s-24 9.6016-24 24z"/>
  <path d="m998.4 573.6c-9.6016 9.6016-9.6016 25.199 0 33.602l37.199 37.199c4.8008 4.8008 10.801 7.1992 16.801 7.1992s12-2.3984 16.801-7.1992c9.6016-9.6016 9.6016-25.199 0-33.602l-37.199-37.199c-9.6016-8.4023-24-8.4023-33.602 0z"/>
  <path d="m1036.8 481.2c0 13.199 10.801 24 24 24h52.801c13.199 0 24-10.801 24-24s-10.801-24-24-24h-52.801c-13.199 0-24 10.801-24 24z"/>
  <path d="m1015.2 396c6 0 12-2.3984 16.801-7.1992l37.199-37.199c9.6016-9.6016 9.6016-25.199 0-33.602-9.6016-9.6016-25.199-9.6016-33.602 0l-37.199 37.199c-9.6016 9.6016-9.6016 25.199 0 33.602 4.8008 4.8008 10.801 7.1992 16.801 7.1992z"/>
 </g>
</svg>
