<?xml version="1.0" encoding="UTF-8"?>
<svg width="1200pt" height="1200pt" version="1.1" viewBox="0 0 1200 1200" xmlns="http://www.w3.org/2000/svg">
 <g fill="#5b6864">
  <path d="m955.12 406.24c-0.082031 39.129-5.8594 78.039-17.152 115.5-15.262 48.039-28.625 96.742-45.742 144.1-11.137 27.516-24.191 54.215-39.059 79.906-22.051 41.566-44.957 82.68-67.566 123.95-23.039 42.055-44.91 84.82-69.641 125.86-19.547 32.434-42.734 62.664-64.117 94.004-6.0352 8.8438-11.711 17.969-17.027 27.262-11.152 19.496-19.844 20.57-32.254 2.6172-19.723-28.531-38.469-57.738-58.344-86.16-13.246-18.938-27.148-37.484-41.801-55.352l-0.007813-0.003907c-24.285-28.156-45.863-58.539-64.457-90.742-30.477-55.832-63.07-110.55-92.242-167.05-20.062-38.852-34.094-80.809-53.945-119.79-34.828-68.379-39.828-142.64-46.367-216.64-1.7773-29.922 4.1484-59.801 17.211-86.781 28.641-68.445 77.957-126.23 141.05-165.27 14.055-8.5352 26.461-19.809 40.598-28.184h-0.003906c8.0547-3.5312 16.523-6.0234 25.203-7.4219 23.895-6.6367 47.961-12.703 71.645-20.023v-0.003906c39.352-10.484 80.703-10.977 120.3-1.4297 54.719 9.5703 107 29.914 153.8 59.844 28.711 21.016 53.961 46.395 74.836 75.215 25.648 32.668 43.766 70.594 53.051 111.07 5.6406 28.25 9.6602 56.793 12.035 85.5zm-602.29-200.32-15.52 19.488 12.664-4.4492c-16.055 20.914-31.598 42.25-48.293 62.641-23.277 28.426-40.352 59.758-36.844 97.18 4.1484 44.273 11.789 88.223 18.25 132.27v-0.003906c1.293 4.9727 3.1328 9.7852 5.4883 14.348 4.6172-15.516 8.25-31.309 10.883-47.281 4.5312-19.941 10.516-39.551 15.875-59.301l-0.30469-0.28125c-1.6875 18.105-2.8203 36.285-5.1992 54.301l0.003906-0.003906c-1.5391 21.414-5.2695 42.609-11.133 63.262-4.332 9.4805-4.4766 20.348-0.39453 29.941 16.379 37.762 30.723 76.57 49.531 113.08 25.691 49.863 54.293 98.262 82.559 146.75 19.051 32.688 39.141 64.809 59.773 96.523 16.188 24.883 34.008 48.703 50.941 73.105 21.184 30.52 42.039 61.266 63.441 91.633v0.003906c4.75 5.6016 9.9688 10.789 15.605 15.5 31.176-42.012 61.125-81.191 78.203-129.8l-13.449 2.2695c26.039-22.367 39.344-51.977 54.707-80.172 6.3242-11.605 12.844-23.109 19.555-34.504 23.574-39.809 47.605-79.348 70.809-119.37l0.003907-0.003906c12.539-20.391 23.727-41.582 33.48-63.441 19.254-45.469 33.598-92.863 42.781-141.38 11-60.195 24.629-119.94 18.91-181.68v0.003907c-0.79687-24.598-7.0898-48.703-18.41-70.555l-40.934 36.895-4.207-4.2578 43.562-48.594 0.003907 0.003906c-4.1484-8.0938-8.7188-15.969-13.691-23.59-9.5781-13.457-21.184-25.574-29.914-39.52h0.003906c-19.23-30.137-46.461-54.328-78.652-69.875-17.223-8.7656-18.492-9.4805-32.371 4.0117-9.4258 9.1602-17.215 20.004-25.754 30.078-3.4062 4.0195-6.8672 7.9922-10.301 11.988l-4.5117-3.168 40.59-57.402c-26.484-18.188-55.613-18.379-86.711-23.934l-21.207 62.914-3.5078-1.0078 2.8867-24.852-9.3906 0.84375 0.40234 0.36719 21.277-44.848c-12.445 1.4609-23.055-0.53906-27.34 3.7656-19.137 19.219-36.383 40.316-54.484 60.578-12.902 16.004-27.422 30.637-43.328 43.668 15.148-25.297 27.289-45.672 39.598-65.941h0.003906c1.168-2.1133 3.0156-3.7695 5.2383-4.707 19.566-5.8477 26.188-24.684 40.125-36.348h0.003906c-1.0234-1.1523-2.1875-2.168-3.4727-3.0156-5.0273-1.7656-10.508-1.7734-15.539-0.023438-5.0352 1.75-9.3242 5.1523-12.176 9.6562-27.062 35.352-67.93 61.008-75.422 115.35l-7.5-23.477-39.43 50.859-4.125-2.4414c7.5078-17.812 15.016-35.625 22.523-53.445l1.6758 12.875c22.352-14.133 35.973-38.664 36.16-65.105-17.297 13.781-30.492 32.039-38.148 52.789-2.5547-1.6523-5.4414-2.7188-8.4531-3.125-7.168 6.6328-13.543 14.109-20.301 21.191-10.57 11.082-21.246 22.066-31.875 33.09l-0.003906 0.003906c7.7773-18.133 19.336-34.391 33.902-47.695 16.145-14.512 33.445-29.469 32.582-55.293-26.062 26.168-50.559 53.594-74.598 81.41-3.1992 3.8594-4.9883 8.6875-5.0781 13.695 0.89844 5.3789 2.5938 10.598 5.0312 15.477l-18.441 34.52-4.8086-1.9961 10.41-41.414c-2.4023 0.070313-4.793 0.375-7.1367 0.90625-19.289 8.0391-23.656 28.594-35.703 42.723l0.38672 0.3125c3.5586-21.621 8.625-41.371 31.594-52.379 13.195-6.3203 18.066-20.152 15.426-39.957-6.6562 7.4609-10.875 12.266-15.18 16.992-5.0156 5.5078-9.9883 11.062-15.211 16.371-3.9219 3.9844-8.207 7.6094-12.328 11.395l-1.9883-2.6719 23.305-34.723 6.7812-8.9961 14.707-12.66-1.9609-2.0156-8.9688 6.8633-13.156-1.3008c-8.2617 9.3672-16.523 18.734-24.789 28.105zm218.43-113.03c-5.4531-0.30078-10.918-0.26562-16.363 0.10156-8.9453 1.3906-17.867 3.0742-26.691 5.1016-20.922 4.8047-24.441 9.668-24.645 33.434l23.148-20.383 4.1445 2.3789-7.6172 37.848c18.562-17.25 34.715-36.918 48.023-58.48zm-157.62 101.98c14.844-17.172 37.715-29.023 37.723-60.113-18.012 19.84-39.344 32.461-37.723 60.113zm52.723-60.824c4.1914-1.7383 7.8047-4.6289 10.418-8.3398 2.6172-3.707 4.1289-8.082 4.3633-12.613-12.945 2.8984-13.621 12.133-14.781 20.953z"/>
  <path d="m380.22 195.93c-5.3945 3.543-10.793 7.0859-16.188 10.625 4.5312-9.582 9.0625-19.16 13.59-28.742l13.156 1.3008-3.7773 7.8164z"/>
  <path d="m913.75 389.47c-43.969 45.449-87.938 90.902-131.91 136.35l-4.4805-3.1094c15.121-25.5 22.719-54.805 41.445-79.617h0.003906c-0.96484-13.309-0.84375-26.672 0.36328-39.957 5.168-32.207-8.8633-57.957-25.023-83.254-5.3281-8.3359-12.973-15.293-17.645-23.918v-0.003906c-4.7539-7.4062-7.332-15.996-7.4492-24.797 0.17969-17.262 4.6055-34.211 12.883-49.359-4.4258-0.91406-8.8828-1.8359-14.566-3.0078-2.7227 17.34-5.2227 33.258-8.4844 54.004-15.777-12.355-28.195-22.348-40.973-31.848-3.0586-1.1758-6.2344-2.0234-9.4727-2.5273-6.8125-1.2539-13.125-4.4297-18.195-9.1484-0.39062-6.8906 1.5898-13.711 5.6133-19.316 3.1328-4.9961 6.7695-9.6562 10.859-13.902-5.0859-3.168-8.9727-5.5938-15.227-9.4961-4.2305 13.465-8.0508 25.629-13.125 41.777-28.488-12.156-55.938-25.711-87.262-18.496l-1.9102-17.457c-10.004 16.523-10.027 16.391-30.117 20.367-29.859 5.9102-58.246 12.746-82.816 34.402h0.003906c-45.168 39.277-73.887 94.129-80.441 153.62-1.9375 14.691-2.8047 29.52-3.8672 41.074v0.003906c4.2539 2.6875 7.9414 6.1875 10.84 10.301 6.207 17.918 11.23 36.238 17 54.316 1.875 5.8828 3.8555 11.688 5.8164 17.418l0.003906-0.003907c7.3516 13.512 16.555 25.934 27.348 36.895l0.48047 0.46484c7.4883 7.3164 15.781 13.754 24.723 19.191 21.699 13.297 46.172 20.273 68.645 31.598 60.68 15.793 118.02 10.047 170.81-26.652 4.2266-2.1055 8.6641-3.7656 13.234-4.9531 5.1797-1.3984 10.082-3.6836 14.488-6.7539 26.457-24.906 53.164-49.613 78.438-75.691 30.441-31.41 59.59-64.082 89.156-96.336v-0.003906c2.0156-2.7812 3.7031-5.7891 5.0234-8.9609zm-281.52 210.47c-7.2891 1.2734-14.707 1.8359-23.609 2.9141v0.003906c-41.484-4.5469-81.793-16.602-118.96-35.574-13.258-8.3828-24.031-20.156-31.211-34.098-11.68-20.871-21.727-42.617-30.051-65.039-22.188-57.332-12.594-109.64 25.715-157.77h-0.003906c20.344-25.082 45.566-45.766 74.148-60.801 41.434-24.633 92.738-25.793 135.24-3.0586 8.6094 4.4219 18.59 6.1367 27.336 10.352v0.003906c15.984 6.375 31.207 14.523 45.375 24.289 21.82 16.629 38.859 38.727 49.391 64.059 10.531 25.332 14.184 52.996 10.582 80.191-4.1016 27.797-14.074 54.398-29.25 78.039-30.75 50.363-74.371 85.934-134.7 96.484z"/>
  <path d="m651.87 922.17c-9.8047 12.727-18.629 24.184-28.316 36.758 0.97266-17.246 4.1406-25.297 24.645-45.695h-0.003907c14.992-15.273 22.066-36.629 19.16-57.828l-39.02 42.426-3.0742-1.457c1.5625-4.5625 3.6289-8.9375 6.168-13.039 16.711-21.395 30.785-46.453 51.738-62.418 16.309-12.43 27.434-29 43.43-40.848h-0.003906c2.2344-1.0508 4.3242-2.3828 6.2227-3.9609 20.359-26.91 49.977-44.828 70.234-71.457 8.1094-10.66 16.238-11.59 31.668-11.57-8.8867 7.2344-17.324 15.004-25.266 23.266-5.6523 7.5352-12.469 14.113-20.199 19.496-15.676 10.113-30.855 23.211-30.977 40.469v0.003906c-7.5938 1.2148-14.918 3.7227-21.664 7.4141-15.668 14.449-30.473 29.879-45.051 45.457-13.773 14.723-14.98 33.66-18.801 54.113 27.863-9.6758 27.086-34.02 37.105-52.812v24.801c10.133-8.5469 17.664-15.664 25.984-21.699 7.5898-5.5039 16.031-9.8359 24.098-14.684l3.8281 5.3086c-12.629 10.52-24.652 21.898-38.039 31.352-17.684 12.488-30.945 26.77-30.301 50.289 14.84-5.0312 26.789-16.223 32.773-30.707 5.8633 9.875 5.8633 9.875-5.1797 33.57h0.003906c-7.0938 1.3438-13.875 3.9922-20.004 7.8125-17.969 19.129-34.844 39.285-52.145 59.043l0.003906 0.003907c-8.4414 10.055-17.609 19.477-27.43 28.188 3.9492-28.5 35.523-47.164 28.41-81.594zm13.457 17.73h-0.003906c14.996-12.18 23.508-30.609 23.059-49.918-9.2773 4.0664-16.746 11.391-20.992 20.586-4.2461 9.1953-4.9805 19.629-2.0664 29.332z"/>
  <path d="m642.98 773.15c7.4688-11.617 15.746-22.695 24.77-33.152 19.969-20.352 36.621-43.781 60.48-60.715 10.789-7.6562 14.84-26.082 25.945-31.676v0.003906c11.941-6.2422 22.871-14.242 32.434-23.734 24.848-23.398 50.344-46.109 75.434-69.254 4.1641-3.8438 7.5977-8.4805 12.531-14.074l0.003906 0.003906c2.3242 2.2852 4.1797 5.0039 5.4688 8.0039-4.5391 8.0195-9.75 15.641-15.578 22.773-2.2344 2.6523-9.3555 2.1055-10.457 4.6523-9.9805 23.102-37.07 25.281-51.562 43.461h-0.003907c-15.145 17.348-31.34 33.746-48.496 49.102-33.523 32.762-67.16 65.406-100.91 97.938h-0.003906c-3.2227 2.4922-6.7109 4.6172-10.402 6.3438z"/>
  <path d="m701.41 657.73c32.156-47.594 83.066-79.223 114.02-130.74l17.324-3.4141-32.332 61.215-0.003906-21.656-95.184 98.512z"/>
  <path d="m793.54 675.48c-40.699 43.84-84.266 84.93-130.41 123 11.109-15.539 19.102-36.297 34.129-45.262 17.945-10.703 27.223-26.312 40.34-40.031h0.003906c16.496-15.074 34.141-28.848 52.766-41.195 1.0586 1.1602 2.1133 2.3242 3.168 3.4883z"/>
  <path d="m782.43 221.91c0.57422-21.078 14.504-31.363 35.605-42.91l-13.789 59.621 37.789-21.945 3.4141 4.75c-9.875 9.0391-20.238 17.531-31.051 25.426-11.273 7.4297-10.543 27.688-31.875 26.773 10.48-20.082 22.957-38.812 17.418-65.277-6.9336 5.1289-12.41 9.1797-17.879 13.234z"/>
  <path d="m790.37 671.99c13.59-16.395 26.172-33.797 41.156-48.801 9.7852-7.8086 20.457-14.426 31.801-19.719-1.293 15.289-25.543 40.305-69.789 72.004-1.0547-1.1602-2.1094-2.3242-3.168-3.4844z"/>
  <path d="m791.11 157.76c-26.578 22.492-43.691 54.188-47.93 88.746-4.5859-39.918 16.742-79.926 47.93-88.746z"/>
  <path d="m698.09 136.64-42.805 61.043c-2.1758-22.461 9.875-40.129 42.805-61.043z"/>
  <path d="m315.34 420.8c0.14453-36.086 14.574-68.742 25.156-102.32v0.003907c-6.1914 34.539-14.699 68.625-25.469 102.02z"/>
  <path d="m916.28 337.99-50.059 53.82c8.082-24.355 26.352-43.996 50.059-53.82z"/>
  <path d="m447.89 716.94-13.758 69.18-4.875-0.98438v0.003906c0.36719-23.688 4.7891-47.133 13.07-69.328z"/>
  <path d="m819.46 320.05c11.082-19.125 24.461-36.824 39.84-52.699-7.4844 21.277-21.41 39.695-39.84 52.699z"/>
  <path d="m352.39 619.61c-0.35938-22.195 4.832-44.129 15.098-63.809 0.03125 22.156-5.1367 44.012-15.098 63.809z"/>
  <path d="m844.12 506.45 29.906-33.34c-2.0664 22.504-5.3516 26.172-29.906 33.34z"/>
  <path d="m607.52 812.38c11.82-13.078 23.641-26.152 35.461-39.23l-0.34375-0.32422c-11.316 13.539-22.637 27.078-33.953 40.621z"/>
  <path d="m608.68 813.44-20.941 32.039-4.4688-3.1523h-0.003907c4.8789-12.199 13.332-22.641 24.25-29.949z"/>
  <path d="m564.39 960.52c2.8711 13.363 0.30859 22.066-16.844 26.793z"/>
  <path d="m369.77 534.16 4.7422-33.113c3.4805 14.859 3.4805 14.859-4.7422 33.113z"/>
  <path d="m731.06 191.03-8.1953 24.125h0.003907c-2.1016-3.9375-2.8789-8.4492-2.2148-12.863 0.66406-4.4141 2.7344-8.4961 5.9023-11.641 1.5117-0.18359 3.0469-0.054688 4.5039 0.37891z"/>
  <path d="m453.02 680.81 4.8555-21.242 4.8672 1.0703-5.6172 21.074z"/>
  <path d="m498.31 828.61-5.457 15.922-3.7305-1.0625 3.7695-16.605z"/>
  <path d="m792.12 771.33-5.9297 19.344-4.3008-1.1289 4.5781-19.598z"/>
  <path d="m479.72 875.93 5.207-13.961 4.043 1.2383-3.9102 14.984z"/>
  <path d="m335.39 254.97 8.8633-10.117 3.0156 2.1055-7.8125 11.613z"/>
  <path d="m354.21 280.59-3.875 19.133-6.1055-2.4062c3.457-5.4688 6.9141-10.938 10.367-16.41z"/>
  <path d="m397.95 677.64-4.2773 10.16-3.0039-0.91797 3.207-11.742z"/>
  <path d="m399.39 652.57 1.2734-12.688 2.6211 0.20312v12.676z"/>
  <path d="m632.65 136.54-7.3477 14.777-4.4727-3.3516c4.0742-3.6836 8.1484-7.3711 12.223-11.059z"/>
  <path d="m645.24 998.47-3.5547 11.84-3.4062-0.90234 3.1172-12.031z"/>
 </g>
</svg>
