<?xml version="1.0" encoding="UTF-8"?>
<svg width="1200pt" height="1200pt" version="1.1" viewBox="0 0 1200 1200" xmlns="http://www.w3.org/2000/svg">
 <g fill="#5b6864">
  <path d="m926.78 362.52c-1.7266 17.449-3.6133 34.883-5.125 52.348-0.88281 10.199-1.2734 20.445-1.6875 30.68-0.36328 9.0156-0.30078 18.051-0.75 27.059l0.003906 0.003907c-0.41016 2.8555-1.0977 5.6641-2.0547 8.3828-4.0625 15.852-7.6016 31.859-12.312 47.512-6.0078 19.957-12.977 39.625-19.492 59.434-0.90234 2.7383-1.4297 5.6016-2.3711 8.3281-2.0312 8.1406-4.8672 16.062-8.4648 23.641-4.0625 8.7148-7.3242 17.777-9.75 27.078-6.6523 18.938-13 37.988-20.164 56.73-5.7578 15.066-12.711 29.676-18.77 44.637-2.4297 6-3.5117 12.543-5.9141 18.559-2.0859 4.2227-4.4102 8.3203-6.9648 12.277-0.97656 1.8711-1.7305 3.8516-2.2422 5.8984-4.9492 13.992-11.785 27.242-20.32 39.383-3.8594 6.625-6.2969 14.062-9.7734 20.934-4.4961 8.8906-9.4414 17.555-14.098 26.367-2.6055 4.9336-4.9531 10.008-7.5391 14.953-3.125 5.9766-6.4492 11.848-9.5586 17.832-11.594 22.297-23.152 44.609-34.672 66.945-4.3867 8.543-8.0859 17.457-12.766 25.828h0.003906c-4.1992 7.7969-9.0273 15.238-14.438 22.25-11.566 17.371-21.578 35.727-29.922 54.855-7.3945 13.539-14.867 27.035-22.414 40.492-2.6172 4.6367-5.6094 9.0781-8.625 13.473-4.4922 6.5508-9.2031 6.4844-13.48-0.21484-8.3711-13.113-16.781-26.199-24.898-39.469l0.003906-0.003907c-9.0938-17.004-19.152-33.473-30.129-49.328-16.086-20.539-26.184-44.77-42.359-64.926-10.805-14.348-19.969-29.863-27.32-46.25-7.1719-14.305-15.539-27.977-25.012-40.875-15.32-20.871-28.051-43.523-37.902-67.461-5.6406-14.094-12.578-27.676-19.102-41.406-5.3516-11.27-10.672-22.57-16.512-33.59-7.4922-14.129-16.078-27.703-23.113-42.043-7.8672-16.027-14.562-32.633-21.691-49.02-3.9258-9.0234-7.8125-18.07-11.508-27.191-4.6367-11.441-8.9102-23.035-13.625-34.445-3.4609-8.375-7.8555-16.387-10.996-24.867-4.9961-13.508-8.8594-27.441-13.996-40.891-6.4531-18.414-10.352-37.625-11.598-57.094-0.91797-9.7578-3.5781-19.352-5.4258-29.027-4.8672-22.922-5.9062-46.488-3.0742-69.75 1.7422-12.406 3.2656-24.844 4.832-37.273h0.003907c2.8008-21.664 9.3477-42.672 19.348-62.09 13.246-28.352 29.668-55.105 48.949-79.754 8.7305-9.7891 17.969-19.117 27.672-27.945 5.8086-5.9297 11.961-11.508 18.43-16.711 6.3828-4.8906 13.613-8.6758 20.387-13.07 5.0938-2.9766 9.9609-6.3242 14.562-10.016 22.355-17.598 47.332-31.574 74.016-41.43 9.7188-3.6953 19.953-5.8398 30.336-6.3594 10.523-1.0898 20.938-3.2656 31.402-4.9492 1.7148-0.27734 3.4375-0.53906 5.168-0.67578l0.003906 0.003907c7.1133 0.35937 14.234-0.53516 21.035-2.6406 4.9062-1.0859 9.9922-1.0742 14.895 0.023438 11.121 0.8125 22.285 1.4023 33.316 2.9336 12.098 1.6797 24.051 4.375 36.09 6.5l-0.003906 0.003906c4.8516 1.1094 9.793 1.7617 14.762 1.9492 15.668 1.5781 30.758 6.7617 44.094 15.137 7.7305 3.3125 15.277 7.0352 22.609 11.156 6.3633 4.043 12.438 8.5234 18.172 13.418 9.8789 7.9727 19.703 16.023 29.254 24.375 8.5195 7.4492 16.762 15.223 24.902 23.086 8 7.2812 15.598 14.992 22.754 23.105 14.918 17.152 27.367 36.301 36.992 56.898 5.7461 13.031 11.656 25.996 17.172 39.129v-0.003906c1.4102 5.7852 4.2695 11.117 8.3125 15.488 3.1836 5.0586 4.8906 10.906 4.9336 16.879 1.7305 9.3008 2.9336 18.695 4.3516 28.055 0.83594 5.5039 1.6641 11.008 2.4883 16.516zm-43.539-42.266c-0.53906-2.2109-1.1992-4.3984-1.5977-6.6328-1.2656-7.0898-2.4375-14.199-3.75-21.934l-6.5 4.0508v0.003906c-0.15234-0.58203-0.22656-1.1836-0.21875-1.7852 0.10938-0.57031 0.36328-1.1094 0.73828-1.5547 2.3945-2.5078 4.0273-5.6406 4.7188-9.0352 0.6875-3.3945 0.40625-6.918-0.82031-10.156-0.52734-4.5508-0.57812-9.1445-0.15234-13.703l2.6562-0.14844 3.0703 20.738 1.6523 0.39453c2.4961-2.3477 4.332-5.3125 5.3203-8.5977-1.1055-5.2773-3.0977-10.332-5.8945-14.945-1.5195-1.2812-3.5977-1.6797-5.4844-1.0547-6.375 4.3086-12.383 9.1523-18.551 13.77-1.1484 0.85938-2.4492 1.5156-3.6797 2.2656-0.74219-1.3984-1.3359-2.8711-1.7617-4.3984-1.1523-6.6875-2.1172-13.406-3.3398-21.324l-7.957 9.6133-1.8164-0.8125h-0.003906c0.42578-2.4844 1.3672-4.8516 2.7656-6.9492 5.2617-5.0273 7.4961-12.449 5.8867-19.547-0.16406-3.1992-0.10547-6.4102 0.16797-9.6016l2.0273-0.035156c0.83984 5.3477 1.6797 10.695 2.6875 17.098l11.453-10.258c-4.4727-7.7891-8.6367-15.035-12.949-22.547v-0.003906c-6.6758 8.7734-15.578 15.598-25.781 19.77 7.3906-8.0117 14.637-15.859 21.812-23.637-9.0195-12.844-19.613-24.504-31.539-34.707 0.25781 8.3164 0.46484 14.867 0.69141 22.145 1.6445-2.0469 3.5664-3.8555 5.707-5.3789 1.8633-0.40625 3.7891-0.41016 5.6562-0.019531-0.4375 1.625-1.1016 3.1797-1.9727 4.6211-1.1445 1.0391-2.457 1.875-3.8828 2.4766-4.2773 1.7305-6.7109 6.2656-5.793 10.785 0.23438 2.9258 0.14844 5.8711-0.25781 8.7773l-1.8867-0.078126-1.0039-11.609v0.003906c-0.84766 0.29688-1.7109 0.53906-2.5898 0.73047-0.67969 0.011719-1.3594-0.046874-2.0273-0.17187 7.3125-8.7891 0.26953-17.402 1.9102-26.52l-18.777 10.379-0.76562-1.1055c6.0664-6.3086 12.137-12.621 19.137-19.898-7.6367-5.5664-14.043-10.43-20.727-14.871-1.7539-0.24609-3.5234 0.3125-4.8164 1.5195-5.1953 4.6055-10.191 9.4414-15.152 14.301h-0.003906c-3.4531 5.6211-3.7109 12.641-0.68359 18.504 4.3789 4.4375 9.3516 8.2852 15.324 13.477-0.44531-3.4141-0.69922-6.8477-0.76172-10.293 0.50391-9.7969 1.1719-19.586 2-29.363v0.003906c0.55469-1.4453 1.4258-2.75 2.543-3.8164l1.5234 0.67969c-0.11328 2.0352-0.19141 4.0781-0.34766 6.1094-0.57031 7.293-1.2773 14.578-1.6797 21.879h-0.003906c0.51562 1.9531 0.81641 3.957 0.90234 5.9766-2.8047 4.832-1.4297 11.004 3.1602 14.188 2.2734 1.8164 4.2969 3.9297 6.0156 6.2812 14.473 16.328 27.527 33.855 39.031 52.398 4.2578 7.7773 8.4922 15.605 12.082 23.703 4.2578 9.6133 7.7773 19.555 11.668 29.328 6.3047 12.633 9.957 26.418 10.73 40.516-0.27344 13.918 0.91016 27.859 1.0273 41.793 0.089844 10.598-0.60156 21.195-0.67578 31.797l-0.003906-0.003906c0.27734 3.0156 0.82422 5.9961 1.6328 8.9102 5.7656-4.7812 9.2383-11.781 9.5508-19.27l2.0547 5.0977v0.003906c6.2539-4.3477 10.672-10.859 12.402-18.277 1.2227-11.418 1.5391-22.93 2.293-35.23l-21.762 20.832c-0.59375-1.4336-0.39844-3.0742 0.51172-4.3281 5.9023-6.8516 11.695-13.82 17.965-20.324v-0.003907c3.1562-2.7891 5.0039-6.7695 5.0977-10.984 0.22266-8.6445 1.6094-17.262 2.5078-25.891l1.9766 0.15234c-0.16797 3.9414-0.36719 7.8828-0.49219 11.824-0.12109 3.9258-0.16406 7.8516-0.24609 11.922l7.0273-4.5703c-0.96875-7.4883-1.8594-14.949-2.9609-22.375l0.003907 0.003906c-0.46094-1.1797-1.1328-2.2656-1.9766-3.2031-0.79688-1.0156-1.4297-2.1484-1.8867-3.3516 0.027343-1.4961-0.035157-2.9922-0.18359-4.4805-3.4336-9.0039-6.9688-17.977-10.738-26.844h0.003907c-0.81641-1.3594-2.25-2.2344-3.832-2.332-4.9414 1.2812-8.4102 5.7227-8.4492 10.828 0.36328 9.4727 0.63672 18.949 0.94531 28.426zm-338.2-200.49c-0.79297 1.5234-1.8047 2.9258-3 4.1641-3.5898 2.4492-6.4336 5.8516-8.207 9.8242-1.7734 3.9688-2.4102 8.3555-1.8438 12.664-0.007812 3.1836-0.375 6.3555-1.0938 9.4531l-1.7891-0.20703c0.21484-12.023 0.42578-24.047 0.66016-37.219-2.3789 2.0039-3.7852 3.2344-5.2422 4.4023-4.8906 6.4453-10.578 12.25-16.93 17.266-1.9844 1.0625-3.9102 2.2383-5.7617 3.5195l0.074219 0.070313v-0.003907c2.043-3.1875 4.457-6.1211 7.1875-8.7461 4.1016-2.7188 6.3789-7.4727 5.9258-12.375-0.31641-3.8594-0.39062-7.7383-0.22266-11.609 0.24609-4.1016 1.0234-8.1758 1.5664-12.262l2.1445 0.27734c-0.35937 8.6406-0.71484 17.277-1.1055 26.691 8.168-7.1016 14.863-13.574 12.008-24.77l0.003906 0.003906c0.12891-2.1836 0.76172-4.3086 1.8516-6.2031l2.1055 0.28516 2.1406 11.898c6.2852-7.9141 11.465-14.438 16.648-20.965l-0.78906-1.5234-0.003906 0.003906c-1.6289 0.17188-3.2461 0.43359-4.8438 0.78516-1.3047 0.75391-2.7188 1.3008-4.1953 1.6172-10.41-0.43359-20.77 1.6992-30.168 6.2031-15.359 5.6914-30.168 12.879-45.156 19.559h0.003906c-7.0078 2.6328-13.758 5.9023-20.168 9.7578-10.441 7.3047-20.5 15.148-30.129 23.492-17.449 14.914-35.078 29.695-51.527 45.668h-0.003906c-8.2617 8.9258-15.672 18.602-22.129 28.906-6.2305 8.3203-11.715 17.176-16.391 26.461-2.3203 5.4023-5.6406 10.316-9.7852 14.484-1.9609 2.1484-3.5078 4.6445-4.5586 7.3594-10.113 21.965-17.996 44.891-23.527 68.43-2.8125 13.953-4.8203 28.055-6.0156 42.234 0.12891 5.2344 0.78906 10.441 1.9727 15.543 0.67969 18.91 2.5664 37.762 5.6445 56.434 5.0781 21.145 6.4141 43.195 11.574 64.312h0.003906c3.9648 23.004 11.188 45.324 21.453 66.289 10.273 17.934 13.766 38.906 23.441 57.465 10.238 19.641 17.57 40.773 27.094 60.816 6.8555 14.43 15.734 27.887 22.785 42.234h0.003906c6.8047 16.023 15.289 31.285 25.309 45.52 1.6523 2.6055 3.0469 5.3633 4.168 8.2344 8.1992 16.184 16.039 32.562 24.723 48.48 10.312 14.875 19.258 30.656 26.719 47.148 0.76172 1.3359 1.6758 2.5742 2.7227 3.6953 2.0898 3.2227 4.2812 6.3984 6.0977 9.7734 7.8711 14.629 14.695 29.918 23.621 43.863 16.242 25.379 34.121 49.707 50.527 74.984 11.023 16.984 20.637 34.883 30.973 52.316 5.8008 9.7852 11.742 19.488 17.715 29.168 3.5742 5.793 7.3359 11.469 11.879 18.551 3.3828-7.543 11.977-10.77 7.0234-19.426v0.007812c-0.035156-1.3359 0.26562-2.6602 0.87891-3.8477 0.99609-3.3203 1.7383-6.7109 2.2305-10.141 0.93359-12.137 1.5898-24.297 2.2695-36.453 0.29297-5.2539 0.39453-10.516 0.62109-16.938-9.457 6.5938-17.75 12.379-26.043 18.16l-1.6875-1.8867c0.66797-1.3672 1.5352-2.625 2.5781-3.7266 5.0508-4.1992 10.371-8.0664 15.918-11.578 3.4688-1.2188 6.3906-3.625 8.25-6.7969 1.8594-3.168 2.5352-6.8945 1.9062-10.516-0.22266-3.2812-0.12891-6.5781 0.28516-9.8438 0.11328-5.293 0.14453-10.586 0.21094-15.879l-1.7656-1.0273c-9.6484 7.1719-19.301 14.34-28.949 21.512l-1.7109-1.5352v0.003906c1.5742-2.7109 3.5273-5.1836 5.7969-7.3438 7.5469-5.3711 15.613-10.008 23.141-15.402 2.0898-1.7188 3.4375-4.1797 3.7617-6.8672 0.68359-7.8594 0.72656-15.781 0.85156-23.68 0.066406-4.0391-0.21875-8.082-0.40234-13.922-11.113 10.648-21.125 20.238-31.137 29.828l-0.92969-1.0703c1.7539-2.1914 3.3516-4.5273 5.2852-6.543 7.0586-7.3516 14.277-14.551 21.328-21.906 3.5781-2.5625 5.9297-6.4961 6.4922-10.859 1.0547-22.148 2.7461-44.273 4.5273-66.379 0.50391-6.2656 2.1016-12.445 3.1953-18.664l1.5469 0.30078c-1.7188 28.449-3.4414 56.895-5.25 86.816 9.7305-6.0117 17.945-10.988 26.016-16.195 1.1953-0.96875 1.9414-2.3828 2.0703-3.9141 0.40234-6.4531 0.49219-12.926 0.74609-21.172-8.5117 8.3398-15.816 15.496-23.121 22.652l-1.7539-1.5703v-0.003907c0.52344-1.2852 1.1953-2.5039 2.0039-3.6328 4.3438-5.1797 8.9648-10.117 13.848-14.793 6.75-4.9648 10.523-13.008 10.031-21.375-0.72656-10.168 3.1641-20.543-1.2891-30.629v0.003906c0.085938-0.94531 0.37109-1.8633 0.83594-2.6875 1.0391-3.5078 1.8203-7.082 2.3359-10.703 1.0742-13.059 1.7891-26.148 2.7578-39.219 0.31641-2.4023 0.77344-4.7852 1.375-7.1289l1.5195 0.26953c-0.57422 15.961-1.1445 31.926-1.7656 49.207 9.0859-8.2266 16.93-14.992 24.316-22.227v-0.003906c2.4062-2.2734 3.9922-5.2773 4.5156-8.5469 1.4219-17.312 2.2695-34.672 3.3438-52.012 0.12891-1.1211 0.32812-2.2383 0.58984-3.3398l1.1758 0.15625c-0.51562 18.625-1.0352 37.246-1.5508 55.871 13.828-8.25 25.824-16.66 37.652-25.301 1.3438-1.3164 2.1992-3.0547 2.418-4.9258 0.41406-3.0703 0.66016-6.1562 0.74219-9.25 0.40234-5.7852 0.80469-11.574 1.2031-17.359l-1.8164-0.94922c-10.402 10.465-20.805 20.934-31.207 31.398h0.003907c5.8984-12.875 15.145-23.934 26.766-32.023 3.0195-2.2188 5.3672-5.2227 6.7969-8.6836 1.4297-3.4609 1.8789-7.25 1.3086-10.949 0.039063-7.7852 0.61719-15.559 1.7266-23.266l2.1797 0.078125c-0.25391 10.281-0.51172 20.559-0.80078 32.258l0.003907-0.003906c19.277-12.992 37.32-27.73 53.902-44.023 1.5352-2.3711 2.4023-5.1094 2.5195-7.9336 0.37109-2.4688 0.48828-4.9648 0.35156-7.4609-0.16797-7.5586-0.44531-15.113-0.69922-23.242-10.203 7.9414-19.938 15.48-29.633 23.074-9.5469 7.4805-19.043 15.023-28.582 22.516-9.582 7.5273-19.188 15.02-28.984 22.684 0.38281-0.68359 0.67578-1.293 1.0391-1.8516h0.003906c9.1797-11.727 20.113-21.965 32.422-30.352 13.477-11.117 27.801-21.207 41.711-31.805 4.4219-2.3594 8.1016-5.8945 10.637-10.219 2.5312-4.3242 3.8203-9.2656 3.7148-14.277-0.24219-7.7031-0.089843-15.414 0.45703-23.102-19.254 14.801-37.199 28.598-55.145 42.391-0.039062-1.3945 0.52344-2.7383 1.5469-3.6914 12.289-10.238 24.484-20.602 37.012-30.539 8.9688-7.1172 20.488-12.051 19.52-26.473-0.03125-2.9727 0.11719-5.9414 0.44922-8.8984-8.5117 7.8906-15.148 16.414-22.973 23.664-9.5703 8.8672-20.121 16.676-30.273 24.91-15.332 13.125-33.551 22.441-53.168 27.184-13.523 2.9961-26.91 6.6836-40.23 10.504-13.254 4.1875-26.996 6.6211-40.879 7.2344-2.1094-0.066406-4.2188 0.15625-6.2695 0.66406-16.898 4.4531-34.547 5.3086-51.797 2.5195-11.613-1.8984-23.113-4.4414-34.441-7.6172-11.984-2.0078-23.566-5.9453-34.289-11.66-6.4453-3.9062-13.328-7.1094-19.668-11.172-8.1406-5.0938-16.023-10.594-23.605-16.488-8.1367-6.4688-15.035-14.629-23.566-20.438-11.875-9.9297-21.965-21.812-29.832-35.145-8.2578-11.082-14.703-23.516-23.051-34.516-9.6406-13.531-16.863-28.629-21.352-44.625-5.1172-18.289-8.8203-36.938-11.086-55.793-4.6172-22.578-5.7383-45.734-3.3164-68.652 1.5117-16.312 5.332-32.328 11.348-47.566 4.7188-10.137 10.094-19.988 14.352-30.309 7.8398-17.594 17.656-34.238 29.258-49.617 13.738-18.699 30.988-34.543 50.785-46.645 16.422-10.438 32.613-21.27 49.363-31.156 9.2344-5.4492 19.418-9.2734 29.148-13.891 4.7383-2.7891 9.707-5.168 14.848-7.1172 11.883-3.2891 24.012-5.6875 36.387-8.5273l-0.35156-2.9688c6.4727-0.054687 12.559 0.15625 18.609-0.23828 4.7969-0.31641 9.5312-1.5117 14.32-2.0742v-0.003906c6.6406-1.1641 13.367-1.7812 20.109-1.8359 10.777 0.53516 21.523 2.0664 32.227 3.5703 4.2773 0.60156 7.8789 0.90625 9-3.1562h0.003906c1.6875 1.8086 3.7188 3.2578 5.9766 4.2656 13.531 3.0078 26.629 7.7109 38.984 14 5.3633 2.4062 11.109 3.9531 18.316 6.4609-2.0664-11.332-3.875-21.262-5.8672-32.184-4.0742 3.7891-7.1211 6.6211-10.172 9.4531l-1.2344-1.2305c4.1211-9.2695 10.98-17.051 19.656-22.301-5.5938-2.8086-10-5.0195-14.453-7.2578-1.0547 0.86719-2.1016 1.7148-3.1328 2.5859-6.1211 5.1562-14.008 9.1016-13.109 19.094-0.34375 0.375-0.75391 0.68359-1.2109 0.90625l-2.4062-6.3242c-3.0742 2.9023-5.5 5.3359-8.1055 7.5664-1.1211 0.74609-2.3281 1.3477-3.6016 1.7969 0.28906-1.4805 0.67578-2.9414 1.1641-4.3711 0.51172-0.57031 1.0938-1.0742 1.7305-1.5 4.0625-3.6328 7.4648-7.9414 10.055-12.73 0.875-5.4102 0.83984-10.93-0.10938-16.328l-2.7617-1.418c-1.625 3.3711-3.9062 6.3867-6.707 8.8672-10.227 4.3672-18.199 12.754-22.051 23.184-5.4258-6.0742-5.1875 3.3906-9.1758 3.207 2.9648-5.2891 5.3477-10.883 7.1094-16.68 0.55859-5.9453 0.46484-11.93-0.27344-17.855-11.164 7.8203-19.348 19.191-23.219 32.262l-7.9258-0.70312c8.8984-10.176 3.0742-22.109 4.8359-33.586-6.4883 7.8047-18.348 10.395-19.656 20.809-5.5781-3.6797-7.6367 3.4375-11.32 4.2422h0.003906c3.5391-4.5078 6.4336-9.4922 8.5938-14.805 0.72266-6.2305 0.64453-12.527-0.23828-18.734-2.9805 3.5781-6.4531 6.7148-10.312 9.3125-5.2031 2.4961-8.1172 8.1367-7.1445 13.824-0.20703 5.6797-0.35156 11.363-0.51953 17.043l-1.5234 0.10938-2.7148-19.371c-4.5234 3.4258-8.6016 7.3984-12.145 11.832-2.1719 4.8359-3.6875 9.9414-4.5117 15.18l-2.0156-0.17188c0.45312-8.1953 0.91016-16.391 1.3633-24.582l-1.1133-0.92969-29.715 27.707-2.1641-1.1289c5.7461-3.0078 10.168-8.0508 12.402-14.141 2.2305-6.0898 2.1133-12.793-0.33203-18.805-5.207 2.6328-9.4414 6.8555-12.078 12.062-2.6406 5.2031-3.5469 11.113-2.5898 16.871l-2.4141-0.6875-1.0781-11.684-4.3867 2.25c5.1094-6.4883 7.2188-14.844 5.793-22.98-13.234 8.7461-20.434 22.504-16.23 30.609zm132.5 24.379c-12.891 0.070313-24.133-0.09375-35.355 0.28906-6.1562 0.21094-12.273 1.3906-18.418 2.0625l0.003906 0.003906c-5.3008 1-10.688 1.4805-16.082 1.4336-12.59-0.61328-25.172 1.3555-36.973 5.7812-11.512 3.7148-22.488 9.0586-33.77 13.512v-0.003906c-10.148 3.1562-20.055 7.0273-29.652 11.59-16.121 9.0625-31.621 19.184-46.402 30.293-21.664 16.855-41.285 36.184-58.465 57.59-10.953 13.043-19.457 27.957-25.109 44.023-4.8398 14.219-8.7109 28.766-13.332 43.062-5.0195 16.676-7.3789 34.039-6.9883 51.449 0.125 12.355 1.2812 24.68 3.457 36.84 2.6562 18.535 6.5195 36.879 11.57 54.906 4.8203 14.266 11.234 27.938 19.129 40.762 9.7656 17.035 20.551 33.469 32.297 49.207 14.082 16.59 30.301 31.242 48.234 43.574 20.801 14.16 44.051 24.328 68.566 29.988 20.051 5.6641 40.57 9.5352 61.309 11.566 19.711 0.6875 39.434-1.0234 58.73-5.1016 8.7031-1.6328 17.27-3.9492 25.613-6.918 14.746-3.5547 29.266-7.9883 43.477-13.281 10.598-5.2188 20.512-11.723 29.516-19.363 8.5781-6.7852 16.746-14.066 24.465-21.816 4.5742-4.6641 8.7617-9.6914 12.52-15.035 6.6016-8.9609 12.875-18.164 19.27-27.281 5.6641-8.0742 8.4883-17.586 14.781-25.633v0.003906c6.4609-8.8867 11.312-18.836 14.344-29.398 7.793-19.996 13.129-40.867 15.891-62.152 1.207-18.188 3.3594-36.348 3.6758-54.543 0.27344-15.578-1.793-31.184-2.2266-46.793v-0.003906c-1.6797-17.441-6.9648-34.348-15.523-49.641-2.0977-4.5234-4.3125-8.9922-6.3125-13.559-1.8555-4.2344-3.0508-8.8125-5.3008-12.809-8.7969-17.207-19.66-33.277-32.34-47.859-10.988-13.207-24-24.594-38.547-33.734-13.273-7.3711-25.73-16.203-38.656-24.215-14.938-9.2578-30.227-17.371-48.816-12.273h0.003907c-0.67188-0.10547-1.3125-0.35547-1.8789-0.72656zm-7.2188 885.99 1.3086 0.17969c2.0898-3.2109 4.2344-6.3828 6.2539-9.6406 5.1797-8.3633 10.805-16.496 15.336-25.199 8.3594-16.059 15.598-32.707 24.164-48.648 10.941-20.363 23.336-39.957 34.012-60.453 14.879-28.566 28.891-57.594 42.977-86.566 6.918-14.223 13.316-28.703 19.684-43.188 7.7617-17.664 15.801-35.238 22.66-53.254 5.3281-14 9.0469-28.609 13.449-42.957 7.4805-24.363 17.488-48.117 17.645-74.242 0.035156-6.0703 0.55078-12.133 0.92578-19.898-8.6641 7.9258-16 14.688-23.391 21.391v0.003906c-5.3203 5.3242-10.98 10.301-16.941 14.895-2.9766 1.5117-5.4727 3.8203-7.2109 6.6719-1.7383 2.8477-2.6484 6.125-2.6289 9.4609 0.21875 8.1055-0.37109 16.23-0.64844 25.711 5.5352-4.7852 9.7305-8.4727 14-12.078 4.4258-3.7383 8.7617-7.6172 13.492-10.93 1.8984-0.36719 3.8633-0.23438 5.6953 0.38281-0.58594 1.6094-1.4492 3.1055-2.5508 4.418-9.457 7.6797-19.105 15.121-28.566 22.797v-0.003906c-1.5078 1.1172-2.5469 2.7578-2.9062 4.6016-0.42578 11.309-0.49609 22.633-0.67969 33.953l1.6328 0.72266c2.8906-2.6719 6.0234-5.0742 9.3516-7.1758 2.2305-0.375 4.5195-0.20703 6.6758 0.48828-0.59766 1.7344-1.5195 3.3398-2.7109 4.7344-2.9609 2.1719-6.0898 4.1055-9.3555 5.7812-4.168 1.9531-6.5273 6.4414-5.7695 10.977 0.26172 4.4492 0.27344 8.9102 0.03125 13.359-0.14062 5.3438-0.44922 10.68-0.68359 16.02l-2.2383-0.007812-0.98828-31.656c-17.953 13.977-34.844 27.094-51.676 40.289-1.8672 1.0469-3.3438 2.6758-4.207 4.6367-1.1523 9.9648-1.7578 19.992-2.5469 30 1.6797-0.003906 3.3164-0.53906 4.6719-1.5352 11.898-9.5039 23.715-19.117 35.703-28.512 4.4766-3.582 9.2266-6.8086 14.207-9.6484 2.4023-0.64062 4.9141-0.77734 7.3711-0.39453l0.51172 2.2773c-1.9727 1.3438-3.8594 2.8398-5.9375 3.9961v-0.003906c-3.707 1.6406-7.2969 3.5312-10.746 5.6602-11.219 8.4805-21.633 18.137-33.375 25.773-4.9219 2.1641-8.9453 5.9609-11.398 10.746s-3.1836 10.27-2.0664 15.527c-0.019531 1.1602-0.17187 2.3125-0.45703 3.4336-0.375 7.7422-0.70703 15.488-1.1289 24.957 4.4609-4.1602 7.5898-6.8867 10.496-9.8398 1.1641-1.9805 3.207-3.2891 5.4961-3.5156 2.2852-0.22656 4.543 0.65234 6.0742 2.3672-5.9961 4.7539-11.727 8.9141-16.965 13.621-2.6445 2.0391-4.543 4.8984-5.3945 8.125-1.0703 10.371-1.1055 20.848-1.7227 31.273v0.003906c-0.39844 1.4609-1.0586 2.8398-1.9531 4.0664-0.92188-1.2227-1.7109-2.543-2.3516-3.9375-0.15625-1.1523-0.12109-2.3164 0.10547-3.457 0.28125-8.7656 0.55078-17.531 0.82812-26.367-0.69531-0.082031-1.3984-0.050781-2.0859 0.085937-10.789 7.7344-21.555 15.496-32.301 23.289h-0.003907c-1.1797 0.64453-2.0938 1.6914-2.5742 2.9531-0.52734 8.1602-0.76172 16.34-1.082 24.512l1.832 0.54297c1.3203-1.2734 2.5625-2.6445 3.9766-3.7969 5.8281-4.7461 11.562-9.6328 17.688-13.965l-0.003906-0.003906c2.0781-0.40234 4.2188-0.25781 6.2227 0.41406-0.86328 1.832-2.0195 3.5078-3.418 4.9727-7.7383 5.75-15.801 11.07-23.441 16.941-1.8555 1.6328-2.9844 3.9453-3.1289 6.4141-0.1875 16.418 0.046875 32.84 0.015625 49.262-0.24219 1.6016-0.71875 3.1602-1.4102 4.6211l-1.6797-0.070312-3.0898-8.3906c-8.6875 6.0508-17.203 11.727-25.383 17.859-2.2852 1.6484-3.8359 4.1211-4.3281 6.8945-0.73047 19.082-0.97266 38.184-1.3672 57.273zm244.16-679.06-2.0703-0.33984c-3.6172 3.8203-6.4766 8.293-8.4258 13.18-1.3438 10.156-1.9492 20.395-1.8125 30.641 0.60547 1.9141 1.4727 3.7305 2.5781 5.4062 0.72656 1.5664 0.92188 3.3281 0.54297 5.0117-4.2109 3.5625-6.2031 9.1016-5.2227 14.535-0.20703 4.9453-1.1562 9.8633-1.7773 14.789l-2.2695-0.20703 0.80078-18.129c-7.8164 5.9023-15.734 10.734-15.504 21.82-0.28125 8.1289-1.0039 16.238-2.1641 24.285-0.16016 1.7969 0.082031 3.6289 0.19141 7.1133 2.9492-2.6289 4.707-4.0234 6.2617-5.6172 4.8594-4.9883 9.4883-10.215 14.559-14.973l-0.003906-0.003906c1.8125-0.88672 3.8047-1.3438 5.8203-1.3398-0.03125 1.8086-0.47656 3.5859-1.3008 5.1992-4.2383 4.9961-9.0547 9.4648-14.348 13.32-4.5156 2.6328-8.2227 6.457-10.715 11.051-2.4922 4.5977-3.6719 9.7891-3.4141 15.008-0.03125 6.0039-0.48438 12.004-0.73828 17.824 6.0469-0.94141 8.3242-10.098 16.969-5.3594-5.4414 4.6602-10.191 8.5391-14.688 12.691l-0.003906 0.003906c-1.5703 1.2891-2.6562 3.0742-3.0781 5.0586-0.95312 13.113-1.7227 26.246-2.2109 39.387-0.22656 6.0703 0.30859 12.164 0.49609 18.25 0.28906 0.039062 0.58203-0.042969 0.80859-0.22656 0.22656-0.18359 0.36719-0.45312 0.39063-0.74609 3.7617-13.145 7.5508-26.285 11.266-39.441 2.4609-8.7188 4.6094-17.531 7.2812-26.184 2.8164-9.1172 6.4961-17.977 9.043-27.16 2.5078-9.0391 4.3359-18.293 5.957-27.543 0.96875-6.0039 1.5078-12.07 1.6133-18.152-0.58984-3.3281-0.97266-6.6875-1.1523-10.059 2.4453-14.633 4.3359-29.332 7.4492-43.91 1.0898-11.73 0.71094-23.547-1.1289-35.184zm-205.18 507.76 1.8281 0.85937c9.9258-7.625 19.824-15.293 29.797-22.859 3.7617-2.4883 5.8672-6.832 5.4844-11.324 0.13672-4.6094 0.57031-9.207 1.2969-13.762 0.66406-8.1445 1.2031-16.297 1.875-25.539v-0.003907c-1.7656 0.78516-3.4844 1.6758-5.1406 2.6758-9.9805 7.2734-19.754 14.844-29.949 21.797h0.003906c-3.1875 1.8594-5.0938 5.3203-4.957 9.0078-0.10937 10.812-0.30859 21.625-0.43359 32.438-0.023438 2.2344 0.12891 4.4727 0.19531 6.7109zm111.07-255.43c2.0156-1.0508 3.9375-2.2656 5.75-3.6367 11.5-10.898 22.934-21.867 34.301-32.902 1.2031-2.2969 2.7461-4.3984 4.5742-6.2383 1.6523-0.51562 3.0352-1.6719 3.832-3.2148 0.79688-1.5391 0.94531-3.332 0.41406-4.9844-0.12891-2.8789 0.38672-5.7852 0.50781-8.6836 0.26562-6.4297 0.46484-12.863 0.70312-19.656-0.82031 0.12109-1.6172 0.37109-2.3633 0.73828-10.887 10.688-21.617 21.539-32.633 32.094-11.734 12.457-17.27 29.512-15.086 46.484zm16.688-54.184 0.99219 0.71094c10.562-10.852 21.172-21.656 31.613-32.625h0.003906c1.0117-1.4219 1.5703-3.1211 1.5938-4.8711 0.88281-9.3203 1.6016-18.66 2.3828-28.102l-5.1719 0.16016c11.156-15.816 6.4375-33.977 11.336-51.402v0.003906c-5.3359 0.70703-9.4961 4.9688-10.074 10.32-0.35938 5.3867-1.0156 10.75-1.9648 16.062-3.8438 13.902-8.1328 27.691-12.629 41.398-3.5938 10.957-7.6719 21.758-11.676 32.574-1.9688 5.3203-4.2578 10.52-6.4062 15.773zm-162.12 336.36c10.055-7.3672 18.754-13.645 27.305-20.117 1.1172-1.0312 1.8008-2.4531 1.9141-3.9688 0.67578-8.9883 1.2812-17.988 1.6094-26.996 0.17578-4.8828-0.24609-9.7891-0.44531-16.211-7.8828 6.7344-14.703 12.234-21.109 18.176h-0.003907c-3.4219 2.3945-6.0195 5.7852-7.4375 9.7148-1.332 12.59-1.2969 25.32-1.832 39.402zm-34.465 98.336 2.0742 0.98828c4.3828-3.0195 8.9609-5.8008 13.105-9.1172 6.5469-5.2383 14.238-9.9844 12.258-20.43l0.003906 0.003907c0.070313-0.375 0.17188-0.74609 0.30859-1.1055 0.36328-8.7656 0.71094-17.531 1.0859-26.961h-0.003906c-1.2656 0.22266-2.5078 0.57813-3.6992 1.0625-7.3281 4.6289-14.652 9.2695-21.871 14.066v0.003906c-1.1133 0.78125-1.8594 1.9883-2.0625 3.332-0.50781 12.715-0.82812 25.438-1.1953 38.156zm62.984-80.984h0.003907c-6.4492 4.9219-13.164 9.4844-20.113 13.668-3.5508 1.2656-6.5234 3.7695-8.3867 7.043-1.8594 3.2773-2.4844 7.1172-1.7539 10.812 0.12109 2.6953-0.015625 5.3945-0.40625 8.0664-0.22266 6.5352-0.38281 13.07-0.59766 20.688 10.578-7.3867 16.344-19.328 29.77-19.879 0.50391-13.598 0.98047-26.617 1.4883-40.398zm-38.051 105.64h0.003906c-1.1133 0.5625-2.1719 1.2305-3.1562 1.9961-7.3047 7.1641-14.57 14.367-21.797 21.609h-0.003906c-0.69531 0.66797-1.1484 1.5508-1.2812 2.5078-0.51172 10.461-0.91406 20.93-1.3008 30.281 6.6133-3.918 13.094-7.7383 19.543-11.609l-0.003906-0.003906c1.1562-0.5625 2.1797-1.3594 3.0156-2.3359 4.7812-4.6211 6.8047-11.398 5.3359-17.883-0.26562-2.293-0.20703-4.6055 0.17188-6.8789-0.10156-5.707-0.32812-11.41-0.52734-17.684zm10.18-90.727c9.5039-7.3594 18.32-14.164 27.082-21.039 0.51562-0.57031 0.79688-1.3164 0.78516-2.0859 0.24609-7.8555 0.42578-15.711 0.64453-24.566-3.8711 2.3516-7.0742 4.043-9.9844 6.1406-3.125 2.2578-5.8477 5.0703-8.9688 7.3359l0.003907 0.003906c-5.2227 3.7891-9.0078 9.2305-10.742 15.441-1.7344 6.207-1.3203 12.824 1.1797 18.77zm107.76-778.84c-2.7695-1.3711-5.3164-3.1562-7.5469-5.293-1.0195-1.8008-2.832-3.0117-4.8867-3.2617-2.0547-0.25391-4.1094 0.48828-5.5273 1.9922-6.3633 4.2656-12.449 8.9805-18.414 13.805-3.9648 3.1641-5.2617 8.6211-3.1484 13.234 2.6289 3.4648 6.125 6.1758 10.141 7.8516 1.6758 0.25781 3.3633-0.375 4.4531-1.6719 1.4102-3.1172 2.3984-6.4062 2.9336-9.7852 0.52734-3.0781-1.5391-6.8711 3.3203-9.293l2.3828 10.891 1.7227 0.003906c4.6758-5.9297 9.3477-11.855 14.57-18.477zm-143.61 885.32 1.7461 0.58594c8.1289-9.207 16.246-18.422 24.352-27.648 0.58594-0.75781 0.90234-1.6914 0.89062-2.6484-0.125-6.6016-0.36719-13.199-0.58203-20.09-8.2812 5.4844-16.441 10.852-24.527 16.32v-0.003906c-0.73438 0.625-1.1797 1.5195-1.2305 2.4766-0.27734 10.336-0.44922 20.672-0.64844 31.008zm215.13-757.7 23.668-18.605c-2.3906-3.3672-4.5898-6.7227-7.0664-9.8672-1.9297-2.4531-3.8945-6.3047-7.7461-3.5508v-0.003907c-3.9531 2.0117-7.1562 5.2422-9.1289 9.2109-0.66797 7.5977-0.57812 15.238 0.27344 22.816zm-88.781-142.42c-3.625-2.1172-7.4805-4.6797-11.602-6.6953-5.6328-1.9336-11.805 0.82031-14.125 6.3086 0.24609 6.8359 0.89453 13.652 1.9414 20.41zm-87.91-38.012c-4.9492-1.3008-10.051-1.918-15.168-1.832-3.7188 0.58984-9.6016 2.0781-7.0391 9.0508v0.003906c-0.039063 1.7148-0.34766 3.4141-0.91406 5.0352-0.25391 4.4727-0.29688 8.9609-0.46484 14.867 8.2305-9.4648 15.312-17.605 23.586-27.125zm-105.62 30.559c10.293-9.3594 21.238-17.508 16.555-33.969-1.1016 0.75391-2.1562 1.5703-3.1562 2.4531-2.0312 2.9922-4.6602 5.5273-7.7188 7.4492-4.0078 1.0312-6.6094 4.8945-6.0625 8.9922-0.22656 4.75 0.21094 9.5312 0.38281 15.074zm82.027-34.93c-7.9844-0.51562-14.086-1.0547-20.199-1.2461-3.0469-0.09375-4.6172 1.0664-3.2891 4.7461 0.80469 2.9141 1.2344 5.9219 1.2734 8.9453 0.23438 2.7422 0.20312 5.5078 0.28906 8.2617l1.8633 0.88281c6.3047-6.7852 12.613-13.57 20.062-21.59zm26.73 30.84 1.543 0.39844c6.3164-6.0469 12.629-12.094 19.945-19.098-5.6758-1.918-10.438-3.8203-15.371-4.9844v-0.003906c-1.8555 0.082031-3.5352 1.125-4.4297 2.7539-0.89844 6.9336-1.1914 13.945-1.6875 20.934zm-45.184 984.11 1.875 0.8125c5.6016-11.562 11.203-23.129 16.805-34.691l-1.5586-1.0469h-0.003906c-6.9336 2.1172-12.621 7.1289-15.59 13.746-1.3477 6.9727-1.8633 14.082-1.5273 21.18zm-44.055-983.12c6.8555-4.6719 12.379-11.039 16.031-18.484 0.47266-1.8516 1.6367-3.4492 3.25-4.4727 4.9297-0.75391 8.8945-4.4453 10-9.3047-3.0703-0.125-6.0977 0.74219-8.6367 2.4688-5.6289 4.6445-10.637 10.039-16.227 14.734-3.4219 4.2305-5.0117 9.6484-4.418 15.059zm-34.641-7.0586c3.8828-4.8633 7.4453-9.9766 10.664-15.305 1.4531-2.7266 1.3086-5.6289 5.5938-4.168h-0.003906c1.1602-0.3125 2.2148-0.92578 3.0547-1.7773-0.53516-1.0195-1.3281-1.8828-2.3047-2.4961-3.5156-0.25781-7.043 0.24219-10.348 1.4609-4.0117 1.8984-7.0234 5.4102-8.293 9.6602s-0.67188 8.8398 1.6367 12.625zm38.18-12.723 10.102-12.238c-8.6016-0.54688-11.109 2.1523-10.102 12.238zm119.63 4.9844 0.39453 12.703 7.4688-9.2656zm48.398 67.555-7.1602 4.1406 7.7734 4.6016c0.12891-1.2969 0.19141-2.5977 0.19141-3.9023-0.089844-1.1172-0.35547-2.2227-0.80469-4.8398z"/>
  <path d="m501.83 143.63-14.367 16.395-1.4336-1.3828c3.9883-6.207 9.4375-11.34 15.875-14.945z"/>
  <path d="m883.14 320.36c4.0117-3.25 8.0273-6.5 12.039-9.75h-0.003906c0.84375-1.0391 1.9023-1.8828 3.0977-2.4805 1.5742-0.011718 3.1406 0.24219 4.6289 0.75-0.17969 1.3672-0.65625 2.6758-1.3945 3.8359-5.2656 4.7695-10.805 9.2383-16.09 13.992-2.6719 2.4062-5 5.1953-7.4844 7.8125l-1.5625-0.6875c2.2891-4.5273 4.5742-9.0586 6.8633-13.586z"/>
  <path d="m607.38 611.79c-3.8086-10.469-10.547-19.625-19.414-26.371-15.508-14.809-31.82-28.758-48.863-41.773-16.176-12.523-30.805-26.93-43.578-42.91-17.961-22.148-30.648-48.094-37.109-75.871-7.918-26.18-9.7305-53.828-5.3047-80.82 1.5234-10.324 5.0703-20.242 10.434-29.195 3.5352-5.0547 6.4219-10.531 8.5938-16.305 5.125-10.473 13.914-18.703 24.703-23.125 7.125-4.1797 14.648-7.6328 22.461-10.312 5.082-1.4844 10.391-2.0547 15.676-1.6797 18.23-0.79297 36.168 4.7852 50.73 15.785 11.477 9.4844 21.188 20.922 28.684 33.789 1.7852 3.1602 4.0156 6.0703 6.6875 10.066 2.7461-4.6016 5.7617-9.0391 9.0234-13.293 9.0039-11.121 20.277-20.191 33.066-26.602 8.8789-4.9922 18.363-8.8242 28.215-11.41 11.816-2.7969 24.094-3.0547 36.016-0.75391 15.094 4.3945 27.793 14.664 35.254 28.504 4.293 5.0781 8.2852 10.402 11.957 15.949 3.0781 6.8242 5.3672 13.984 6.8203 21.332 0.42969 3.7969 0.44531 7.6328 0.039062 11.434 0.78125 9.1406 0.76953 18.332-0.027344 27.473-2.9766 17.398-7.5156 34.535-11.551 51.746-4.9297 21.023-20.152 35.73-32.656 51.977-9.5039 12.316-19.66 24.113-30.426 35.34-7.9375 8.293-17.242 15.281-25.945 22.836-12.039 10.445-23.633 21.473-36.266 31.145l-0.003906-0.003906c-10.406 9.3984-19.652 20.012-27.531 31.609-1.3086 1.6094-1.7148 3.9727-3.0742 5.5156l-0.003906 0.003906c-2.0742 2.1094-4.2812 4.0898-6.6055 5.9219zm-24.988-296.74c6.1641-0.60938 11.574-4.3594 14.305-9.918-0.93359-3.1289-2.5547-6.0117-4.7461-8.4336-0.95312-1.5312-2.1562-2.9062-3.4727-4.6523-3.3086 3.332-6.2891 6.3242-9.2617 9.3242-1.3633 0.81641-2.1797 2.3047-2.1367 3.8945 0.046875 1.5859 0.94141 3.0273 2.3438 3.7695 1.4062 1.8125 2.4414 3.8828 3.0469 6.0938l-9.5195-5.7305c-6.8398 4.2109-6.9102 4.3398-0.39453 9.6758 1.5977 1.4961 3.5859 2.5117 5.7305 2.9297 1.707-2.1016 3.0898-4.4453 4.1055-6.9531zm29.281 261.55c5.0508-1.9961 9.1523-5.8398 11.469-10.75 2.3125-4.9141 2.668-10.523 0.98828-15.688l-5.707 7.1484-2.0391-1.3359c2.0078-3.2305 4.0625-6.4336 6.0156-9.6953h-0.003907c1.6797-2.0273 2.9297-4.3789 3.6719-6.9062 0.81641-8.8242 0.55469-17.762 1.5703-26.555h0.003906c-0.31641-5.832 1.8086-11.531 5.8594-15.734l-4.0352 39.812 1.8828 1.1406c6.7109-7.5312 13.047-15.441 20.23-22.488l-0.003906-0.003906c6.7891-7.6328 10.309-17.625 9.8086-27.828 0.96875-10.156 2.4922-20.25 4.5547-30.242 0.79688-1.7148 1.9492-3.2461 3.3789-4.4844l1.3242 1.168c-2.1875 15.27-4.3711 30.539-6.5781 45.934 6.0352-5.5664 11.059-11.012 16.879-15.398 11.777-8.875 11.309-22.066 13.125-34.773-3.832 2.7656-7.4883 5.7695-10.945 8.9922-3.5312 3.1055-7.1484 6.1211-10.727 9.1758l-1.3164-1.2695v0.003907c2.7148-3.5078 5.6914-6.8008 8.9062-9.8555 11.277-6.5391 18.793-18.027 20.27-30.977 0.38672-2.4922 0.60938-5.0078 0.66406-7.5273l-5.8828 3.2695-1.2539-1.375h0.003906c0.66016-1.3398 1.5469-2.5625 2.6211-3.6016 4.7422-3.0898 7.7383-8.2422 8.0742-13.887 1.2383-9.8633 3.5664-19.59 5.5391-29.355 0.41797-1.2695 0.98828-2.4805 1.6992-3.6094l1.7266 0.32422v9.4297c14.078-13.695 27.758-27.039 41.5-40.32 1.7656-1.707 3.543-5.3633 6.4844-2.2305 3.0039 3.2031-0.48047 4.9609-2.5742 6.8086-4.5039 3.9688-9.0625 7.875-13.461 11.957l-0.003906-0.003906c-3.6523 2.5273-6.7461 5.7695-9.1016 9.5352-1.7656 6.1523-2.9023 12.473-3.3906 18.855 2.6641-2.0938 4.6797-3.7148 6.7383-5.2852 7.3086-5.5703 14.578-11.203 21.984-16.641 2.7656-2.0273 5.6914-2.9414 6.8398 1.5977-8.6797 7.043-17.871 13.438-27.492 19.137-13.121 6.6328-10.934 19.176-15.449 30.957v-0.003906c2.4453-2.0469 5.0898-3.8516 7.8945-5.3789 2.1211-0.47656 4.3047-0.61328 6.4688-0.40625-1.0352 1.7227-2.3008 3.2969-3.7656 4.6758-3.8086 1.457-7.0781 4.0352-9.3789 7.3984-2.2969 3.3633-3.5156 7.3477-3.4922 11.422 0.066406 3.2773-0.46875 6.5391-1.5898 9.625-1.0977 2.332-0.125 5.1172 2.1875 6.2617 2.957 1.9492 3.0781 3.8164-0.91797 5.6641v-0.003906c-2.4219 1.5547-4.2461 3.8789-5.1875 6.5938-1.3633 3.8398-2.4688 7.7656-3.3086 11.75l-1.9023-0.38672 1.2109-11.824c-10.219 8.8008-22.418 14.73-24.898 29.398-0.4375-1.4648-0.87109-2.9297-1.3203-4.3984-7.4453 7.6836-14.891 15.359-22.336 23.031 16.383-9.5391 16.383-9.5391 19.84-4.4141-5.9609 3.0312-12.055 5.7461-17.707 9.1836-2.875 1.5039-5.1055 3.9922-6.293 7.0117-2.0742 9.7305-3.168 19.676-4.8047 30.684 2.0547-1.7734 3.4336-2.9648 4.8125-4.1562 4.3789-3.7852 8.5273-7.8789 13.172-11.301h0.003906c16.91-12.59 32.184-27.242 45.469-43.613 8.6875-10.57 16.215-22.109 25.027-32.566 9.0117-9.0273 15.539-20.227 18.949-32.516 0.41797-2.0586 1.5977-3.9531 2.0664-6.0078 2.8203-12.336 6.3242-24.59 8.0312-37.082 1.3438-9.8242-0.44922-20.062 0.71484-29.93l0.003906 0.003907c2.3828-14.246-1.6328-28.812-10.973-39.824-6.8945-8.125-12.316-17.633-19.832-25.074v-0.003906c-6.4336-6.3398-14.656-10.551-23.562-12.066-8.9023-1.5156-18.055-0.25781-26.223 3.6016 3.8672 3.5117 7.6016 6.7227 11.121 10.16 0.76562 1.1328 2.0742 1.7812 3.4414 1.7109 1.3672-0.066406 2.5977-0.84766 3.25-2.0547 3.1914-3.3203 6.7539-6.2617 10.621-8.7656 1.9297-0.24219 3.8906 0.027344 5.6836 0.78516-0.71484 1.7188-1.7188 3.2969-2.9727 4.6719-4.3633 3.3047-9.0117 6.2344-13.574 9.3281l9.8477 15.191c4.7344-4.0234 9.2656-7.6055 13.438-11.57h-0.003906c1.4375-1.8984 2.5977-3.9922 3.4531-6.2148l7.5156 4.2773c-5.9297 5.168-12.121 10.023-18.555 14.547-1.6445 0.98047-2.8164 2.5898-3.2461 4.4531-0.42578 1.8672-0.074219 3.8242 0.98047 5.4219 1.5195 3.8789 3.2969 7.6484 5.3203 11.285 4.043-2.7734 7.8594-5.7539 12.039-8.0703 2.0078-0.55859 4.1055-0.70312 6.168-0.42578-0.89844 2.0547-2.1484 3.9375-3.6875 5.5664-4.3438 2.4492-8.5586 5.1211-12.625 8.0039-14.254 12.98-28.121 26.379-42.176 39.578-1 0.75781-2.0781 1.4023-3.2188 1.9219-0.41406-0.96484-0.29688-2.0781 0.30859-2.9414 9.8164-10.117 19.719-20.152 29.484-30.32v0.003907c4.0156-2.832 7.1875-6.6992 9.1836-11.188-0.48047-5.7031-2.0273-11.266-4.5625-16.398l-2.5898-0.53906c-4.2461 4.7344-8.2305 9.7461-12.828 14.113h0.003907c-4.1055 3.5586-8.3906 6.9023-12.844 10.016 0.42969-1.9023 1.1914-3.7188 2.2461-5.3594 6.3438-6.668 13.012-13.023 19.387-19.664h-0.003906c1.2891-1.2148 1.9922-2.9258 1.9297-4.6953-2.5703-4.3164-5.75-8.2734-8.9219-12.641-8.2305 8.2617-15.727 15.699-23.055 23.297v-0.003906c-0.72656 1.0781-0.875 2.4414-0.40234 3.6523 2.8047 5.2031 5.8906 10.258 8.8789 15.359l1.0977 12.254-1.3125 0.51953-3.7305-6.3828-9.6875 8.1016 0.003906-0.003906c-0.51172-1.1914-0.32422-2.5703 0.48828-3.5859 8.668-9.2422 8.5508-9.1602 3.0391-19.676-2.0938-3.9961-3.8164-3.6211-6.2734-0.5625-2.1758 2.7109-4.5156 5.293-6.7812 7.9297l-1.9375-1.4766c2.5664-3.5781 5.3008-7.0547 7.6094-10.793h-0.003907c1.0234-1.4688 1.3594-3.3086 0.91797-5.0391-3.0469-3.9688-6.4688-7.6367-10.215-10.949-3.1172-2.707-6.7656-4.3086-8.8398 1.5977v-0.003906c-0.73437 1.2461-1.6875 2.3477-2.8125 3.2578l-1.0352-0.53125 2.3359-7.8008-4.8633-4.5273 10.18-2.9102c3.4258-4.3164 7.8555-9.8984 13.207-16.645l0.003907-0.007813c-1.9531 0.51563-3.8438 1.2461-5.6328 2.1836-8.5195 5.8555-16.719 12.168-24.559 18.906-7.5469 6.5117-13.223 14.918-16.445 24.352-1.875 2.9883-4.3633 5.543-7.3047 7.4922-1.8672-2.4414-3.7773-4.8555-5.5781-7.3438-0.32812-0.69531-0.57812-1.4219-0.75-2.168-2.9766-7.0547-4.1875-7.2734-9.1953-1.5938-4.7617 5.3984-9.4805 10.836-14.512 16.59l-12.023-14.219c-4.7539 5.0547-9.2266 9.8164-13.699 14.574l-1.4727-1.0586 0.003907 0.003906c2.6367-5.9609 6.2969-11.414 10.809-16.113-1.9453-1.4688-3.7891-3.0703-5.5195-4.7891-3.0156-3.3828-5.2773-2.8359-7.8906 0.55859-3.6406 4.7266-7.6133 9.1953-11.488 13.738-2.0156 2.3672-4.1211 4.6641-6.1875 6.9883l-1.6602-1.125h0.003906c0.44531-1.4766 1.0508-2.8945 1.8047-4.2383 2.9141-4.0977 5.8711-8.1836 9.0703-12.055 8.5898-10.387 8.4922-10.969-4.0391-16.414-0.53125-0.23047-1.1211-0.33594-1.625-0.60547l0.007813-0.003906c-1.1172-0.78906-2.5234-1.0469-3.8477-0.71094-1.3242 0.33984-2.4336 1.2383-3.0391 2.4648-2.8125 3.9648-5.9844 7.6719-9.0039 11.492l-1.8438-0.74219c0.98828-2.6914 2.1367-5.3203 3.4453-7.8711 1.7031-2.9219 3.8789-5.5664 6.4141-9.1289l-12.582-4.625c-4.3984 2.6094-5.75 8.5508-12.223 7.5664l7.2031-9.4023c-8.332-2.9258-15.582-6.5352-22.031 2.6172h0.003907c-3.5859 4.0703-7.6211 7.7227-12.031 10.883l-1.7109-1.7539c5.0156-5.2305 10.035-10.465 14.445-15.066l-5.4922-2.9102v0.003906c1.6758-1.5508 3.5273-2.9062 5.5078-4.043 1.7031-0.33594 3.4453-0.42188 5.1719-0.25781 1.1211 0.035156 2.2266-0.27734 3.1602-0.90234 3.7227-3.9531 7.2578-8.0781 10.855-12.145h-0.003907c-2.8242 0.75391-5.5469 1.8633-8.0977 3.293-14.992 5.5312-27.477 16.297-35.148 30.312-8.7305 14.695-14.656 30.887-17.469 47.746-0.48047 4.9062-0.26172 9.8789-0.34766 14.824v-0.003906c-0.58203 5.7227-0.60937 11.488-0.089843 17.215 2.3672 14.602 5.5547 29.059 9.5508 43.301 4.1211 12.23 8.9766 24.203 14.531 35.855 4.0469 10.859 10.309 20.762 18.383 29.078 6.9531 5.9844 13.145 12.805 18.434 20.301 6.7812 8.6484 14.801 16.246 23.801 22.551 16.152 14.055 32.781 27.555 49.078 41.441 3.375 3.168 6.582 6.5117 9.6133 10.008l10.289-12.789zm45.207-54.207-1.5977-0.80078c-4.6172 4.0312-9.0195 8.3477-13.898 12.031-4.6094 2.2969-8.3086 6.082-10.5 10.742-2.1953 4.6562-2.7539 9.918-1.5859 14.934 4.0352-2.8672 8.3008-6.0586 12.766-8.9375 1.3086-0.37109 2.6836-0.43359 4.0234-0.1875 0.054687 1.5391-0.28516 3.0664-0.98438 4.4414-4.5195 3.8477-9.6836 6.9805-14 11.027-9.0859 8.5195-17.789 17.449-27.617 27.168l6.8828 6.4062c5.8828-7.9141 10.938-15.125 16.453-21.965 2.9805-3.6953 6.8164-6.6914 10.16-10.102l0.003906-0.003906c5.668-4.2422 10.5-9.4961 14.254-15.5 2.832-9.543 4.7227-19.34 5.6406-29.254zm25.484-202.39c3.8672-4.4766 8.1016-9.6758 12.656-14.586 8.7891-9.4844 8.8672-9.418-0.83594-17.926h-0.003906c-0.61719-0.74609-1.4219-1.3125-2.332-1.6406-2.8203-0.66406-5.7422-0.76562-8.5977-0.30078-7.3281 3.4219-13.371 9.0938-17.25 16.191-0.48438 1.3086-0.26562 2.7773 0.58203 3.8867 4.9609 4.7812 10.16 9.3125 15.781 14.375zm14.066 146.9c13.426-10.195 25.766-21.273 22.746-40.316-12.461 10.27-25.426 20.977-22.746 40.316zm27.113-67.156c-6.793 3.043-12.477 8.1133-16.27 14.516-3.793 6.4023-5.5117 13.824-4.918 21.242 11.926-9.1406 23.035-18.281 21.188-35.758zm-133.44-62.656c5.9336-7.3008 11.43-14.066 17.516-21.551l-5.9297-7.4883c-7.1641 6.2031-13.805 11.957-20.742 17.965 3.1445 3.8086 5.8164 7.0391 9.1562 11.074zm118.62 68.715c12.312-8.8125 23.039-17.938 21.039-34.16v0.003906c-6.4297 3.0547-11.84 7.9062-15.57 13.965-3.7344 6.0625-5.6328 13.074-5.4688 20.191zm-149.02-118.91c4.4531 4.8281 8.7773 9.5234 13.238 14.363 2.4688-2.6133 4.3672-4.5273 6.1484-6.5469 1.7266-1.957 3.332-4.0234 4.9766-6.0273-15.328-13.008-16.117-12.547-24.363-1.7891zm11.801 18.043c-5.918-5.1523-10.926-9.5078-16.352-14.234-3.1016 4.1094-5.9102 7.8281-8.75 11.586 4.9414 3.2109 8.9961 6.1562 13.375 8.5078l-0.003907 0.007813c1.7578 0.53125 3.6523 0.35547 5.2773-0.49609 2.3359-1.5547 4.5-3.3516 6.457-5.3672zm-60.012-16.906c13.668 6.1328 13.668 6.1328 26.676-9.5273-6.5703 0.65625-4.6914-3.25-3.3047-7.7578zm17.758 5.2422c12.508 7.9961 12.754 7.9961 18.793-0.35156 1.6602-2.293 4.9297-4.4062 1.2031-7.7031-3.1445-2.7852-5.8828-4.5117-9.6094-0.46875h0.003907c-3.2617 3.0781-6.7344 5.9258-10.391 8.5273zm25.516-19.832-4.2031 4.8398c5.9453 5.8438 6.8086 5.6172 11.023-2.5508z"/>
  <path d="m611.35 576.89c-1.0547-0.96875-1.8555-2.1797-2.3438-3.5234-0.097656-16.555-0.046875-33.109 0.14453-49.664 0.14062-2.0391 1.043-3.9492 2.5195-5.3555v58.25z"/>
 </g>
</svg>
