<?xml version="1.0" encoding="UTF-8"?>
<svg width="1200pt" height="1200pt" version="1.1" viewBox="0 0 1200 1200" xmlns="http://www.w3.org/2000/svg">
 <g fill="#e4f9f4">
  <path d="m801.42 615.63 10.801-64.809c-10.598 3.4805-24.152 2.5156-24.152 2.5156l5.5781 65.203c-52.418 19.477-112.21 37.598-208.2 23.066l9.625-57.742c-10.598 3.4805-24.152 2.5156-24.152 2.5156l4.5859 53.598c-24.195-4.125-50.594-10.242-79.703-18.902-7.6172-2.2656-15.066-4.3516-22.441-6.3594l9.4336-56.609c-10.598 3.4805-24.152 2.5156-24.152 2.5156l4.3906 51.312c-328.21-85.367-408.97 85.484-408.97 85.484 767.93 168.2 1091.9-31.715 1091.9-31.715-188.04-114.84-257.97-82.742-344.52-50.074z"/>
  <path d="m541.27 472.49c0 44.004-35.676 79.676-79.68 79.676s-79.68-35.672-79.68-79.676c0-44.008 35.676-79.68 79.68-79.68s79.68 35.672 79.68 79.68"/>
  <path d="m522.71 535.95c7.043 23.664 28.938 40.93 54.891 40.93 31.641 0 57.293-25.648 57.293-57.289s-25.648-57.289-57.293-57.289c-8.3867 0-16.324 1.8438-23.504 5.082 0.10938 1.6953 0.25781 3.3828 0.25781 5.1055 0 25.938-12.453 48.91-31.645 63.461z"/>
  <path d="m837.51 502.05c0 23.539-19.082 42.621-42.621 42.621-23.539 0-42.621-19.082-42.621-42.621 0-23.539 19.082-42.621 42.621-42.621 23.539 0 42.621 19.082 42.621 42.621"/>
 </g>
</svg>
