<?xml version="1.0" encoding="UTF-8"?>
<svg width="1200pt" height="1200pt" version="1.1" viewBox="0 0 1200 1200" xmlns="http://www.w3.org/2000/svg">
 <g fill="#e4f9f4" fill-rule="evenodd">
  <path d="m1193.8 25c0-10.352-8.3984-18.75-18.75-18.75h-1150c-10.352 0-18.75 8.3984-18.75 18.75v1150c0 10.352 8.3984 18.75 18.75 18.75h1150c10.352 0 18.75-8.3984 18.75-18.75zm-37.5 18.75v1112.5h-1112.5v-1112.5z"/>
  <path d="m669.18 218.49c-78.875 0-142.91 64.039-142.91 142.91s64.039 142.91 142.91 142.91c78.887 0 142.93-64.039 142.93-142.91s-64.039-142.91-142.93-142.91zm0 37.5c58.188 0 105.43 47.227 105.43 105.41 0 58.176-47.238 105.41-105.43 105.41-58.176 0-105.41-47.238-105.41-105.41 0-58.188 47.238-105.41 105.41-105.41z"/>
  <path d="m687.93 162.95v-44.625c0-10.352-8.3984-18.75-18.75-18.75-10.336 0-18.75 8.3984-18.75 18.75v44.625c0 10.352 8.4141 18.75 18.75 18.75 10.352 0 18.75-8.3984 18.75-18.75z"/>
  <path d="m684.23 582.25v-44.625c0-10.352-8.4141-18.75-18.75-18.75-10.352 0-18.75 8.3984-18.75 18.75v44.625c0 10.352 8.3984 18.75 18.75 18.75 10.336 0 18.75-8.3984 18.75-18.75z"/>
  <path d="m542.11 207.81-31.551-31.551c-7.3242-7.3242-19.199-7.3242-26.523 0-7.3125 7.3125-7.3125 19.199 0 26.512l31.562 31.551c7.3125 7.3242 19.199 7.3242 26.512 0 7.3125-7.3125 7.3125-19.199 0-26.512z"/>
  <path d="m854.32 520.02-31.562-31.551c-7.3125-7.3242-19.199-7.3242-26.512 0-7.3125 7.3125-7.3125 19.188 0 26.512l31.551 31.551c7.3242 7.3242 19.199 7.3242 26.523 0 7.3125-7.3125 7.3125-19.199 0-26.512z"/>
  <path d="m822.76 234.32 31.562-31.551c7.3125-7.3125 7.3125-19.199 0-26.512-7.3242-7.3242-19.199-7.3242-26.523 0l-31.551 31.551c-7.3125 7.3125-7.3125 19.199 0 26.512 7.3125 7.3242 19.199 7.3242 26.512 0z"/>
  <path d="m510.56 546.54 31.551-31.551c7.3125-7.3242 7.3125-19.199 0-26.512-7.3125-7.3242-19.199-7.3242-26.512 0l-31.562 31.551c-7.3125 7.3125-7.3125 19.199 0 26.512 7.3242 7.3242 19.199 7.3242 26.523 0z"/>
  <path d="m470.73 342.65h-44.625c-10.352 0-18.75 8.3984-18.75 18.75 0 10.352 8.3984 18.75 18.75 18.75h44.625c10.352 0 18.75-8.3984 18.75-18.75 0-10.352-8.3984-18.75-18.75-18.75z"/>
  <path d="m912.26 342.65h-44.625c-10.352 0-18.75 8.3984-18.75 18.75 0 10.352 8.3984 18.75 18.75 18.75h44.625c10.352 0 18.75-8.3984 18.75-18.75 0-10.352-8.3984-18.75-18.75-18.75z"/>
  <path d="m195.43 852.88v105.94c0 10.352 8.3984 18.75 18.75 18.75 10.352 0 18.75-8.3984 18.75-18.75v-105.94c0-10.352-8.3984-18.75-18.75-18.75-10.352 0-18.75 8.3984-18.75 18.75z"/>
  <path d="m327.31 852.88v105.94c0 10.352 8.3984 18.75 18.75 18.75s18.75-8.3984 18.75-18.75v-105.94c0-10.352-8.3984-18.75-18.75-18.75s-18.75 8.3984-18.75 18.75z"/>
  <path d="m262.07 749.68c-0.9375 3.3242-0.9375 6.8516 0 10.176l27.625 98.102c2.2734 8.0859 9.6484 13.676 18.051 13.676h131.89c5.875 0 11.398-2.75 14.949-7.4375 3.5391-4.6758 4.6875-10.75 3.1016-16.398l-93.574-332.23c-2.2734-8.0859-9.6484-13.676-18.051-13.676-8.3984 0-15.773 5.5859-18.051 13.676l-65.938 234.11zm37.523 5.0859 46.461-164.96 68.812 244.32h-92.926l-22.352-79.363z"/>
  <path d="m232.23 515.56c-2.2734-8.0859-9.6484-13.676-18.051-13.676-8.3984 0-15.773 5.5859-18.051 13.676l-93.574 332.23c-1.5859 5.6484-0.4375 11.727 3.1016 16.398 3.5508 4.6875 9.0742 7.4375 14.949 7.4375h187.15c5.875 0 11.398-2.75 14.949-7.4375 3.5508-4.6758 4.6875-10.75 3.1016-16.398zm-18.051 74.238 68.812 244.32h-137.62z"/>
  <path d="m534.88 964.89c76.938-224.95 253.11-240.73 368.94-283.52 75.523-27.914 115.84-85.289 153.62-148.02 34.262-56.898 66.352-118.4 128.14-160.57 8.5391-5.8359 10.75-17.512 4.9141-26.051-5.8359-8.5508-17.512-10.75-26.062-4.9258-66.574 45.449-102.19 110.89-139.11 172.2-33.398 55.461-67.738 107.52-134.5 132.2-123.76 45.738-309.21 66.199-391.41 306.56-3.3516 9.7891 1.875 20.461 11.676 23.812 9.7891 3.3516 20.449-1.8867 23.801-11.676z"/>
  <path d="m1175 940.06h-1150c-10.352 0-18.75 8.4141-18.75 18.75 0 10.352 8.3984 18.75 18.75 18.75h1150c10.352 0 18.75-8.3984 18.75-18.75 0-10.336-8.3984-18.75-18.75-18.75z"/>
 </g>
</svg>
