<?xml version="1.0" encoding="UTF-8"?>
<svg width="1200pt" height="1200pt" version="1.1" viewBox="0 0 1200 1200" xmlns="http://www.w3.org/2000/svg">
 <path d="m985.2 418.8c-14.398-188.4-168-340.8-357.6-354-225.6-15.602-414 163.2-414 386.4 0 80.398 24 154.8 66 216 50.398 74.398 194.4 284.4 271.2 397.2 24 34.801 75.602 34.801 98.398 0 76.801-111.6 220.8-322.8 271.2-397.2 48-69.598 72-156 64.801-248.4zm-385.2 253.2c-122.4 0-222-99.602-222-222s99.602-222 222-222 222 99.602 222 222-99.602 222-222 222z" fill="#5b6864"/>
</svg>
