<?xml version="1.0" encoding="UTF-8"?>
<svg width="1200pt" height="1200pt" version="1.1" viewBox="0 0 1200 1200" xmlns="http://www.w3.org/2000/svg">
 <g fill="#5b6864">
  <path d="m963.03 407.96c0 20.688 0.41016 41.387-0.21484 62.055-0.41406 7.6875-1.9922 15.266-4.6797 22.477-4.2578 12.113-10.004 23.695-14.434 35.754-13.559 36.941-25.305 74.625-40.543 110.85-16.762 39.848-36.219 78.59-55.215 117.46-36.309 74.305-73.098 148.38-109.74 222.52-17.156 34.711-34.66 69.25-51.547 104.09-4.0859 10.238-12.41 18.199-22.82 21.824-20.785 7.0234-41.258 15.016-61.676 23.07-10.789 4.2539-21.32 9.2383-31.746 14.336-15.902 7.7812-22.18 6.6016-32.027-8.7422-17.785-27.719-34.805-55.926-52.555-83.668h-0.003906c-47.422-72.488-90.074-147.99-127.68-226.03-48.703-99.332-85.246-204.18-108.83-312.27-6.8633-37.465-11.301-75.336-13.285-113.37-1.1719-44.133 7.082-88.004 24.207-128.69 13.855-37.77 30.055-74.602 59.195-103.43 22.887-22.648 44.004-47.68 72.73-63.562v-0.003906c40.762-23.832 85.789-39.465 132.55-46.016 59.789-6.3867 120.18-4.1602 179.34 6.6016 27.984 4.2383 55.516 11.066 82.238 20.398 41.84 16.043 78.09 43.945 104.31 80.285 17.059 21.047 31.719 43.926 43.715 68.219 22.59 51.676 32.84 107.9 29.934 164.22-0.11719 3.8789-0.39844 7.7539-0.60156 11.629zm-160.02-245.08c2.1367-6.1406-0.16797-8.8477-10.48-10.176 5.5469 5.1992 8.1172 7.6094 10.691 10.023 4.9375 5.7266 8.5156 14.332 19.605 6.1602-6.6055-2-13.211-4.0039-19.816-6.0078zm-96.758 807.22c0.63672 5 0.82812 11.527 7.793 10.207 5.1289-1.25 9.6992-4.1523 13.012-8.2617 3.0703-3.8125 7.4609-9.9883-1.4727-13.496 8.2461-3.707 14.879-10.262 18.676-18.465 14.008-30.414 29.336-60.223 43.312-90.652v0.003906c7.6328-13.602 13.203-28.258 16.539-43.492-9.7852 2.6992-19.812 4.4219-29.938 5.1484-8.9609-0.24609-18.898 7.8203-29.133-1.9258 18.031-3.543 34.18-6.5 50.23-9.9258 17.941-3.832 19.508-5.8398 22.07-26.262-7.1602 0.51172-14.145 0.76563-21.066 1.5547-10.887 1.2422-21.746 2.7422-32.586 4.3359-5.7148 0.83984-10.516 0.69922-11.074-6.7188 4.7891-1.7656 9.7422-3.0469 14.785-3.8203 15.379-0.87109 30.805-0.85547 46.199-1.4727 13.133-0.52734 14.68-2.7734 13.133-19.164-6.9453 1.5586-13.656 3.6016-20.516 4.4492h-0.003906c-7.8672 2.6445-16.488 1.8398-23.73-2.2148 16.859-3.6484 30.566-6.5312 44.23-9.6016 4.0195-0.21875 7.7422-2.1797 10.195-5.3672 2.457-3.1914 3.3984-7.2891 2.582-11.23-11.422-2.3359-23.258-1.5859-34.293 2.168-44.969 9.9453-35.652-1.7305-52.371 46.445v0.003906c-12.746 16.746-21.203 36.355-24.633 57.121 15.203-1.5039 29.965-2.9609 45.297-4.4766-1.4297 6.168-7.4766 10.105-13.695 8.918-11.418 1.8711-22.906 3.4023-34.211 5.7969-3.1875 0.39844-5.5312 3.1914-5.3672 6.4023 0.16797 3.207 2.7852 5.7461 5.9961 5.8125 8.3047-0.074219 16.598-1.3438 24.895-2.1953 9.0234-0.92188 18.047-1.8594 27.07-2.8086l0.48437 4.7852h0.003907c-22.25 6.2227-45.23 9.4336-68.332 9.5547-2.3711 6.1094-4.9492 12.766-7.4102 19.113 13.457 7.2227 15.441-4.543 20.906-9.0352 7.4023 8.7578 7.9219 9.7773 15.355 5.9883h-0.003906c9.3086-3.543 19.633-3.3008 28.766 0.67188-0.019531 1.7383-0.41406 3.4531-1.1562 5.0273-1.4062 1.0742-3.1367 1.6367-4.9062 1.5898-2.8008-1.2344-5.8125-1.9258-8.875-2.043-14.223 6.6016-29.738 4.6172-44.527 6.918-12.289 1.9141-14.086 8.2344-14.211 19.176 18-3.7109 36.414-4.9844 54.754-3.7891-8.793 6.8633-16.25 12.68-23.707 18.5l0.24609 0.17188h-0.003906c-1.2852-3.0156-3.2852-5.6719-5.832-7.7383-11.551 1.0898-23.035 2.7852-34.41 5.0742-3.0938 0.67969-5.7852 2.5742-7.4648 5.2578-6.2383 12.449-11.844 25.219-19.262 41.324v-0.003907c15.691-1.1875 31.18-4.2852 46.121-9.2266 6.7305-3.0234 14.449-2.9648 21.129 0.16797l-19.828 12.035c-14.746 1.8594-29.496 3.7227-43.977 5.5508v17.109c32.094-8.125 32.094-8.125 44.219-22.996zm-58.168-19.129c-3.2578-2.1445-5.7656-5.2539-7.168-8.8984-1.4023-3.6406-1.6328-7.6289-0.65234-11.406 0.44141-7.5273 1.2461-15.035 2.1914-26.016-9.2695 7.0352-21.793 3.5078-23.684 14.184-3.7383 11.875-2.2227 24.781 4.1641 35.465 3.1523-8.3867 5.2305-13.914 7.3047-19.422v0.003906c5.3828 10.594 5.9922 22.98 1.6758 34.051-0.76953 4.457-0.84375 9-0.21875 13.477l3.6094 0.36328c4.1719-10.668 8.3438-21.34 12.516-32.012h-0.003907c7.25-13.504 7.3477-29.723 0.26563-43.316zm3.8164 100.6c-13.648-2.1406-13.648-2.1406-7.7852 12.602l7.9141-12.852c3.0664 4.2109 6.1289 8.4219 9.9531 13.676l-0.003906-0.003906c-6.3984 0.83203-12.152 4.3086-15.863 9.5859-3.7109 5.2773-5.0312 11.875-3.6445 18.172 13.387-0.125 25.727-7.25 32.531-18.777 11.727-23.566 23.527-47.094 35.062-70.754l-0.003906 0.003906c1.5469-4.1328 2.7344-8.3867 3.543-12.723-20.266 1.1758-16.273 21.297-26.336 28.41-12.113 2.5547-23.965 4.5273-35.473 7.7266h0.003906c-2.6289 0.20703-4.8867 1.9336-5.7773 4.4102-0.89063 2.4805-0.24609 5.25 1.6484 7.0781 10.52-6.0039 23.023-7.4883 34.652-4.1094-10.168 5.8672-20.309 11.719-30.422 17.555zm209.43-853.77c-1.8398-6.0352-2.9492-12.785-13.285-9.9648 4.5156 3.2344 9.0312 6.4648 13.543 9.6992l-23.359 7.8789c3.5117 3.5664 7.6367 6.4688 12.176 8.5703 4.9648 1.0312 11.449-4.5078 14.773 4.5547l-13.332 6.6641 0.37891 4.332c6.4805 0.93359 12.996 1.707 19.422 2.9375l-0.003906 0.003906c1.4609 0.95313 2.6719 2.2422 3.5391 3.7578l-16.246 4.1211v-0.003907c2.3594 6.1758 9.1406 9.4258 15.434 7.3945 3.2773-0.60156 6.625 0.58594 8.793 3.1133 2.168 2.5273 2.8281 6.0195 1.7344 9.1641-6.1094-2.0508-10.668-9.9414-18.699-5.0859 5.1953 14.625 8.1445 15.363 18.477 4.7695 12.547 12.312 27.473 6.3867 41.855 6.5742 0.60938-31.953-19.602-53.223-35.457-76.105-2.7109-3.7461-6.793-6.2656-11.355-7.0117-4.5625-0.75-9.2344 0.33594-13 3.0195 1.5195 3.9961 2.8242 6.875 3.6992 9.8789 0.94141 3.2188 1.4766 6.5586 2.1875 9.8438l-2.5078 1.2695zm19.441 349.14 9.2109 16.871c-5.7812 4.0508-10.43 9.5078-13.504 15.855-0.57422 5.3438-2.8711 10.352-6.5469 14.27-3.043 5.0586-5.4336 10.48-7.1172 16.137 4.0234 1.1445 6.375 2.043 8.8086 2.4492 2.9648 0.49609 6 0.57422 9.0078 0.83594-6.9102 3.4414-14.02 6.4766-21.285 9.0938-10.91 5.6836-1.0625 13.344 0.94141 20.984-15.398 1.8711-29.328 3.8164-43.316 5.1836h0.003906c-4.3516-0.35938-8.5625 1.6484-11.023 5.2539-2.4609 3.6094-2.7969 8.2617-0.875 12.184h45.02l0.25391 4.3125c-18.473 5.1367-37.773 6.5938-56.805 4.2891-6.5195 14.652-12.926 29.047-20.977 47.148 26.074-2.832 48.352-4.8008 70.438-8.0703v0.003906c4.6406-1.8906 8.3359-5.5469 10.281-10.164 4.918-9.6953 8.6289-20 12.988-30.441l-5.7227-5.9805-0.003906-0.003906c5.5703-2.8672 10.52-6.8125 14.559-11.602 10.555-20.992 19.785-42.645 29.531-64.125l-13.785-7.7656c9.9727-3.7031 24.168-1.8477 16.164-17.941v-0.003906c-0.49219-1.1289-0.40625-2.4258 0.22656-3.4805 6.8438-4.8125 10.832-12.723 10.637-21.086 0.078125-7.875 7.6445-15.375 9.7656-23.586 5.7812-22.379 11.031-44.938 15.348-67.645 3.4336-18.062-4.0078-25.547-21.168-22.246h0.003906c-3.9023 1.3203-6.9961 4.3281-8.4219 8.1914 0.53516 3.5547 2.6875 6.6641 5.832 8.4102 4.0547 1.6484 8.3242 2.7227 12.676 3.1875-4.4023 1.8164-8.9805 3.1914-13.656 4.1055-3.6211 1.8633-6.3867 5.0469-7.7305 8.8906 1.4648 3.1992 4.1055 5.707 7.375 7.0039 4.5 1.582 9.1406 2.7305 13.863 3.4336-5.9961 2.7539-12.547 4.0938-19.141 3.9102-2.4375 0.44141-4.4883 2.0781-5.457 4.3555-0.0625 2.9453 0.96094 5.8125 2.8828 8.0508 2.6953 1.8203 5.6953 3.1484 8.8555 3.9297-26.523 7.0312-28.438 9.8359-20.277 27.027-5.1367 3.6992-10.234 7.375-12.047 8.6797-8.1602-0.87109-16.371-1.168-24.574-0.89062-1.6914 3.9336-2.7422 8.1133-3.1133 12.379 5.9453-0.027344 11.887-0.42578 17.781-1.1914 2.3359-1.25 5.1016-1.4102 7.5664-0.43359 2.4609 0.98047 4.3633 2.9961 5.2031 5.5078-3.0625 1.793-5.7695 3.375-8.4727 4.9531-7.957-0.60156-15.953-0.375-23.859 0.67969-3.0781 3.3359-5.207 7.4336-6.1758 11.867 3.25 2.375 7.0273 3.9219 11.012 4.5117 9.3359-1.793 18.973-4.6016 18.82-17.289zm-143.68 151.65 14.582-17.457 10.176 9.0469c19.742-22.984 26.41-54.441 17.695-83.461-8.0117 16.316-10.477 30.027-1.1094 43.055l-11.594 14.742-4.6719-8.4648c-13.375 1.3203-25.027 2.4727-36.684 3.6211l-0.003906 0.003907c9.0078-8.2188 20.492-13.207 32.648-14.188 3.1797-0.36719 5.957-2.3164 7.3867-5.1797 2.8438-10.754 6.8242-21.934-0.99219-32.195-11.504 1.8828-5.4258 12.223-10.039 17.23l-5.8711-21.133 21.629-6.6211 2.5859-21.141-0.003906-0.003906c2.4336 2.9531 3.9336 6.5586 4.3164 10.363 0.42969 2.8477 1.5312 5.5469 3.207 7.8867 11.23-0.81641 8.2734 6.7266 8.3008 12.871 0.03125 5.9336 0.62891 11.867 1.043 18.895v-0.003906c2.1445-0.73047 4.1484-1.8125 5.9375-3.1992 13.965-29.691 28.441-59.168 41.438-89.281h0.003907c7.6641-18.473 14.312-37.352 19.918-56.547 3.5938-11.695 9.6016-23.605 4.3359-37.586-5.293 1.043-9.6914 1.7344-13.996 2.793-5.7773 0.85156-10.773 4.4766-13.379 9.707-2.6055 5.2266-2.4883 11.398 0.3125 16.523 2.543 3.8633 5.5312 7.4141 8.9023 10.578-13.453 4.0469-13.242 13.91-13.023 23.883l-0.003906 0.003907c0.60938 13.684-3.0547 27.223-10.477 38.734-1.3359-13.617-5.7227-26.668-0.46094-40.508 3.75-9.8594 2.5312-10.324-7.9453-19.637 7.293-1.4531 12.098-8.4492 10.84-15.777 0.49219-18.617 1.6484-37.23 3.1914-55.793 1.2812-3.332 3.2891-6.332 5.875-8.7891 0.92188 8.5312 0.81641 17.141-0.32031 25.645-0.50391 2.9883 0.59375 6.0234 2.8984 7.9961 2.3008 1.9727 5.4688 2.5938 8.3438 1.6367 6.3945-0.89844 12.684-2.4258 18.777-4.5547 5.4336-2.0156 8.9453-7.0586 4.5234-12.094h0.003906c-1.9961-2.8906-3.1562-6.2773-3.3477-9.7852-0.19141-3.5078 0.58594-6.9961 2.25-10.09 5.5469-22.746 4.9414-46.559-1.7578-68.992-7.7422-1.0898-14.785-2.0781-25.094-3.5273l22.766-8.4844h-0.003906c0.44141-1.3633 0.76562-2.7617 0.96875-4.1797 0.027344-1.2969-0.12891-2.5898-0.46875-3.8398-14.957-63.957-48.789-121.94-97.102-166.43-8.1797-9.043-18.75-15.59-30.488-18.879-11.742-3.293-24.172-3.1953-35.859 0.28125-18.207 5.0391-19.273 5.6016-11.91 25.148l12.465 2.1992-13.379 9.0508c-0.83594 9.6055 5.9688 18.023 0 27.273-10.883-8.2617 0.33984-25.637-15.352-29.281l0.003906-0.003906c7.7148-19.48 5.2773-41.516-6.5078-58.84l7.1758-8.7891c-13.086-11.004-18.883 3.6523-28.164 4.3789-1.3789 32.895 14.008 63.055 7.5273 95.254-6.4219-31.531-12.844-63.066-19.465-95.586h-12.223c4.0977-3.6875 7.1289-8.4141 8.7695-13.684-2.3633-8.418-10.508-4.1055-16.586-3.4336-1.2852 0.17188-2.5547 0.4375-3.7969 0.79688-13.895 3.7422-15.188 6.0664-12.523 20.395 4.1133 22.129 8.0781 44.281 11.895 66.465 0.23438 3.4883 0.10156 6.9961-0.40234 10.457l-3.3828 0.34766c-7.543-33.379-15.086-66.758-23.09-102.17-6.0938 0.89844-11.988 1.7656-19.266 2.8359 3.9062 25.828 7.543 49.879 11.18 73.926l-4.4414 0.78516c-6.5312-26.184-13.059-52.371-19.844-79.574-11.84 2.4219-22.438 5.3477-33.23 6.6523-27.055 3.2734-50.961 17.023-77.328 22.48l0.003906-0.003906c-9.418 1.1172-18.637 3.5312-27.391 7.1797-35.555 20.129-66.355 47.68-90.305 80.781-26.262 33.77-45.102 72.703-55.285 114.26-12.602 42.949-16.156 88.043-10.441 132.44 7.0156 42.004 16.145 83.625 27.363 124.7 15.199 59.43 34.988 117.59 59.188 173.95 13.055 28.754 25.613 57.734 39.047 86.309 6.0352 12.84 14.043 24.742 20.512 37.398h-0.003906c40.328 80.945 85.184 159.55 134.36 235.44 7.3398 11.082 14.648 22.172 21.93 33.273 13.941-9.4258 14.387-10.262 10.688-21.938h-0.003906c-4.0078-16.73-4.2031-34.148-0.57031-50.965 7.0273 13.059 1.7852 29.18 12.785 43.855 15.496-23.367 27.566-48.832 35.852-75.617l-0.21094 0.24609c3.3008-8.0703 14.121-13.922 7.0234-27.633-17.875 6.0195-35.219 11.988-52.695 17.543l-0.003906 0.003907c-2.7422-0.22266-5.3984-1.0469-7.7852-2.4141 3.0391-5.3828 5.4492-9.6523 7.7656-13.762 13.098 5.0312 19.148 3.1094 21.359-6.8828 1.6523-5.5977 1.9219-11.516 0.79297-17.242-1.5508-3.8281-1.8125-8.0586-0.74219-12.047 1.0703-3.9883 3.4141-7.5195 6.6719-10.055 16.402 1.6602 16.809 1.5 17.172-13.793 0.30078-12.688 0.0625-25.383 0.0625-41.926 12.16 11.336 14.91 3.75 16.891-2.7227l13.117 3.5156c1.0156-11.734 1.8789-21.73 2.7461-31.73l2.8359-0.011719c0.83203 8.9609 1.6602 17.922 2.8477 30.734l5.7812-11.773c4.8633 5.2969 9.7305 10.598 14.602 15.902-11.594 6.6758-11.594 6.6758-8.2891 23.172 3.2617-9.4688 5.6602-16.434 8.0586-23.398l0.003907-0.003906c8.6016-14.25 10.203-31.652 4.3477-47.234-10.918 1.7031-20.656 3.2227-32.32 5.0391 2.457-11.078 4.3047-19.406 6.5508-29.52l2.7891 11.434v0.003906c5.3164 2.6836 11.137 4.2266 17.086 4.5273 5.1211-2.6445 9.6211-6.3555 13.188-10.883 1.5508 4.1328 2.7617 8.3906 3.6172 12.723 0.082031 3.7305-0.24219 7.457-0.96484 11.117 7.0742-7.082 12.062-15.977 14.422-25.707 2.3594-9.7344 1.9961-19.926-1.0469-29.465-23.891-1.6914-32.406 3.7539-38.344 25.164-0.67188-7.8086-1.3555-14.176-1.6797-20.562 0.17578-1.8477 0.625-3.6562 1.332-5.3711 17.078-4.8594 17.078-4.8594 24.047-30.805 1.6016 8.543 2.7109 14.473 4.1016 21.883 13.289-5.375 24.441-10.582 27.738-24.926l6.5117 16.469c12.953-29.461 24.227-55.102 36.105-82.125-7.7891-1.1953-14.641-2.25-21.492-3.3047zm91.02-552.15c14.289 3.6406 14.59 3.4375 27.254 22.27 4.9375 7.3438 9.582 11.957 18.633 6.9922-19.309-46.285-83.082-88.152-128.77-66.051 10.711 1.5234 19.891 2.832 33.238 4.7305l-16.875 5.1562c5.9141 7.1562 12.211 13.988 18.863 20.469 3.6016 2.2188 7.7422 3.4062 11.973 3.4297 10.41 1.25 21.336-0.68359 27.934 11.707h0.003906c4.6016 3.7695 10.094 6.2969 15.949 7.3359l1.3359-2.8281zm58.973 181.34 3.3867-2.5664c11.895 14.398 33.027 1.5312 49.031 17.48h-39.684c3.7031 18.219 14.5 23.172 45.574 21.141-2.4062-14.48-4.7812-28.758-7.4961-45.066l-52.164 0.003906-7.0352-18.465c-0.12891 18.152 1.2227 36.285 4.0391 54.219 0.84766 5.6484 5.5156 6.5312 10.926 1.8477-2.1406-9.2969-4.3594-18.945-6.5781-28.594zm22.152 43.211c0.73438 18.691 19.262 13.02 29.996 22.379h-22.684c-9.5352 20.184 4.707 32.273 33.191 28.875-1.5391-8.0273-3.2578-15.898-4.5078-23.844-1.2695-8.0547-2.0742-16.18-3.1367-24.68l0.003906 0.003907c-10.289-4.7539-21.93-5.7227-32.863-2.7344zm-279.11 679.28c-13.496 7.2305-31.574 40.508-36.773 64.031 9.8047-3.4766 18.867-6.2969 27.613-9.8867 13.32-5.4648 16.602-12.988 13.523-31.492-4.707 7.4844-8.7305 13.879-12.754 20.273l-3.125-1.6094c3.543-12.711 7.0859-25.422 11.516-41.316zm51.645-975.71c28.363 21.059 64.539 28.609 98.957 20.66-31.918-6.6641-63.84-13.328-98.957-20.66zm253.7 214.83c1.6602-8.6875-1.3555-12.531-7.2031-13.391-18.406-2.707-36.898-6.8164-55.441 0.44531 19.176 15.422 41.98 7.3789 62.645 12.945zm-75.449 306.75-2.7344-4.3633h-0.003907c-6.6211 0.44922-13.168 1.6641-19.508 3.6211-4.1367 2.3398-7.1953 6.2031-8.5195 10.766 0.28125 3.6562 2.4648 6.8945 5.7461 8.5273 5.375 1.0195 10.938 0.074219 15.668-2.6719 4.0234-4.7031 7.1914-10.078 9.3516-15.879zm-178.94-473.73c11.832-0.27344 23.164-4.832 31.895-12.828-11.781-3.4219-20.938-6.0781-31.895-9.2617zm209.96 174.76c-2.6523 7.3516-0.91797 11.508 5.7227 12.012 6.8945 0.52344 13.859 0.26172 20.789 0.14453 4.8281-0.082031 9.918-1.6523 8.2422-7.3477-2.0859-3.3477-5.6328-5.5156-9.5664-5.8398-8.4062-0.12891-16.816 0.21875-25.188 1.0312zm-6.957 197.14c-18.414 0.042968-19.23 1.0391-17.543 19.629 15.434 0.26172 15.434 0.26172 17.543-19.629zm-41.352 130.5c-19.465-1.9297-21.301-1.0938-25.41 11.602 20.348 6.1875 24.047 4.5 25.41-11.602zm-194.26 367.37c-7.1367 16.23-18.824 30.648-17.461 49.527 12.734-14.082 14.18-32.293 17.461-49.527zm252.44-576.7c2.7891-9.9609 2.9766-18.18-6.8711-21.766-6.1172-2.2266-8.9727 2.7188-9.9844 8.5-1.5898 9.0664-0.15234 10.375 16.855 13.266zm-19.852 6.1562 1.2695 20.883c9.5859 0.16406 18.617 0.37891 19.027-9.8867 0.51172-12.699-10.895-6.8711-20.297-10.992zm-39.523 160.97c20.504 3.3203 20.504 3.3203 25.719-11.27-9.2461 2.2539-21.227-5.8828-25.719 11.27zm-239.71 408.38 4.668 0.67188c1.4453-9.0117 2.8906-18.023 4.5625-28.465-15.176 4.8828-16.391 10.141-9.2305 27.793zm275.86-528.66c17.301 2.0898 17.301 2.0898 19.324-9.0312-16.395-3.1133-16.395-3.1133-19.32 9.0312zm13.668 10.555c-8.2227 1.9609-16.84-5.6328-20.328 6.3945l0.003906-0.003906c-0.25781 3.0078 1.0547 5.9375 3.4766 7.7383 9.5977 3.7617 14.395-1.2695 16.852-14.133zm-71.129-288.48c1.6094 4.3594 4.7695 7.9766 8.8711 10.16 4.1016 2.1875 8.8633 2.7891 13.379 1.6953-6.2383-15.383-6.2383-15.383-22.25-11.855zm79.059 199.18c-3.4766-13.387-3.4766-13.387-12.5-15.777-1.1523 15.441-1.1523 15.441 12.5 15.777zm-282.86 603.04 4.0391 0.1875c6.0039-14.34 6.0039-14.34-2.8477-25.859-0.46875 10.062-0.82812 17.867-1.1914 25.672zm72.691 11.848c-12.797-0.25781-15.656 4.0234-14.199 16.027 5.5586-6.2734 8.9531-10.105 14.199-16.027zm-33.754 14.578 3.8633 3.1484c2.6055-3.0938 5.2109-6.1836 9.043-10.727-11.02-2.8125-12.836 1.4102-12.906 7.5781zm57.086-212.8-4.1016-0.16016v11.043l1.957 0.25391zm222.18-500.61-2.8867 0.71484 2.2422 9.9883 3.25-0.75781zm-95.387-132.26-1.5078 2.9688 8.2656 4.1875 1.4609-2.9023z"/>
  <path d="m691.68 397.09c8.0859 34.141-7.6562 62.289-24.094 89.445h-0.003906c-21.688 36.418-59.094 60.664-101.19 65.594-30.207 4.125-60.953-1.1523-88.059-15.113-34.867-15.438-61.504-45.004-73.23-81.293-11-33.844-16.84-70.551-0.61719-105.66 6.6953-14.539 14.262-28.664 22.664-42.289 23.82-38.793 64.844-63.77 110.25-67.117 27.961-3.043 54.586 8.5 79.586 21.246 47.246 24.086 66.914 65.781 73.07 115.86 0.78516 6.4102 1.0977 12.883 1.6289 19.328zm-206.86-75.324c28.453-24.32 60.32-44.336 94.586-59.398-24.145-8.3984-46.285-13.238-71.695 0.54297 10.926-0.48438 18.336-0.8125 25.746-1.1406h0.003906c-12.676 4.9414-25.91 8.3125-39.406 10.031-12.879 2.6602-24.238 10.164-31.738 20.965 13.523 4.6602 25.969-5.5039 37.863 2.5781-10.344 2.5156-20.898 2.1055-31.145 3.6953h0.003906c-5.7539-0.19141-11.438 1.2617-16.395 4.1797-4.957 2.9219-8.9805 7.1914-11.605 12.316 18.434 4.0781 32.449-5.1328 47.992-12.898-1.6797 8.1758-2.8359 13.785-3.9883 19.395-3.1406-0.60156-6.3906 0.16406-8.9336 2.1094-2.543 1.9414-4.1367 4.8789-4.3789 8.0664l3.2617 3zm131.4-43.656c-9 0.85938-16.422 1.25-23.738 2.3516h0.003906c-7.6719 0.35938-15.234 1.9844-22.371 4.8203-19.227 10.414-38.078 21.656-56.258 33.801-7.6641 5.8242-14.469 12.691-20.219 20.406-16.574 20.977-25.266 47.098-24.559 73.82 0.15625 36.926 10.797 73.051 30.68 104.16 2.9453 6.1914 7.8438 11.242 13.938 14.383 6.0977 3.1367 13.055 4.1875 19.805 2.9922 6.3281-1.4453 12.91-1.3945 19.215 0.14844 15.117 3.9023 31.121 2.375 45.227-4.3164 18.285-5.9688 63.281-53.352 67.594-71.973 7.0078-30.27 12.59-60.977 3.9609-92.008-3.4414-13.789-7.7461-27.352-12.891-40.602-4.1562-9.3086-9.7148-17.926-16.484-25.551-7.5234-7.9336-15.504-15.426-23.898-22.438zm-169.43 157.12c-8.1133 5.0469-14.27 5.7383-18.98-0.53906-3.0234-4.6641-5.6875-9.5586-7.9609-14.629l-1.2812 0.49219c2.3984 9.2344 4.8008 18.465 6.9727 26.816l23.5 7.5586-0.72656 3.3242-15.34 2.9805 23.762 26.375c-15.664 7.332-17.773-9.625-27.887-14.477l-0.003906-0.003906c9.0078 20.227 26.812 35.191 48.285 40.59l-15.098-12.242c0.82031-7.918 0.73047-15.902-0.26562-23.797-7.3438-24.168-9.4609-49.621-6.207-74.672 0.73828-2.4688 0.82813-5.0859 0.26563-7.6016-1.1367-2.5664-3.1406-4.6445-5.6641-5.8711-3.1953 1.125-5.7617 3.5586-7.0586 6.6875 0.79688 4.8242 2.2969 9.5039 4.4492 13.895l-16.559 3.793c-4.5742 14.164 8.5469 14.367 15.797 21.32zm17.996-105.94-4.1914-6.9414c-6.8125-0.082031-13.621 0.33594-20.375 1.2461-4.2812 1.3945-7.9023 4.3047-10.184 8.1875-2.2773 3.8789-3.0586 8.4609-2.1953 12.879 0.31641 3.9297 2.5273 7.457 5.9297 9.4492s7.5625 2.1992 11.145 0.55078c3.7227-0.46094 7.5-0.21484 11.137 0.72266 9.6367 1.75 11.828-3.5977 12.898-12.773-8.6328 4.5039-15.613 6.8594-18.605-3.8516zm-37.91 47.883c8.832 1.3008 17.762 1.7812 26.68 1.4258 6.7578-0.85547 8.5781-6.8047 3.4492-16.09-8.7227 7.3203-25.184-5.0781-30.129 14.664zm-3.8203-9.3281-4.1914-0.40625c-0.70312 5.832-1.4062 11.668-2.1094 17.5l4.5586 0.44531zm6.1602 22.641c-0.95312 1.9531-1.5234 4.0703-1.6797 6.2344 0.87891 1.3516 2.082 2.4609 3.5039 3.2266 0.92188-1.4688 1.5234-3.1133 1.7695-4.8281-0.85937-1.7773-2.082-3.3555-3.5938-4.6328z"/>
  <path d="m390.25 796.71c-4.2305-7.1602-8.3672-14.383-12.723-21.469-4.7109-7.6641-5.25-18.516-17.926-20.113h0.003906c-4.0391-3.0859-6.8359-7.5234-7.8789-12.5-8.3086-22.297-16.207-44.75-24.078-67.207l-0.003906-0.003906c-0.17969-1.6953 0.003906-3.4102 0.53125-5.0352 0.75-0.31641 1.5234-0.57031 2.3164-0.75 0.60156-0.14453 1.2344-0.066407 1.7773 0.22266 1.8906 1.6992 3.5234 3.6602 4.8477 5.832 18.703 39.52 37.324 79.078 55.871 118.68-0.91016 0.78125-1.8242 1.5664-2.7383 2.3477z"/>
  <path d="m300.46 537.11c-9.2578-18.328-13.809-38.672-13.242-59.199-2.082-29.098-5.5977-58.824 12.258-89.621 2.1602 13.84 3.8047 24.367 5.6445 36.145l-11.551-0.003907c-7.4219 38.387 2.6172 75.34 6.8906 112.68z"/>
  <path d="m806.96 224.99c1.9531 9.1328 4.4297 18.195 5.7266 27.422 1.6133 11.469 1.4766 23.574 22.488 24.941-12.625 6.5977-26.41 8.6797-15.699 24.34h24.863l0.40625 3.7812-33.547 4.6523c-2.1211-19.68-4.2734-39.625-6.5078-60.34l-18.727-1.9453h0.003906c5.9258-0.074219 11.559-2.5898 15.57-6.9531 4.0156-4.3594 6.0547-10.184 5.6406-16.094z"/>
  <path d="m768.42 563.6c3.8828-10.5 7.0508-19.07 10.254-27.738l3.1641 14.777 4.0234 0.078125 5.3672-54.348c-1.7188-0.74219-3.2188-1.4531-4.7617-2.0352-1.7148-0.64453-3.4727-1.1758-7.5625-2.5391l15.492-11.781c4.125 23.383-2.9766 44.637-2.4336 66.707l18.062 7.2773-0.003906 0.003906c-12.996 6.2148-27.199 9.4922-41.602 9.5977z"/>
  <path d="m441.28 831.21c-14.297-24.293-28.711-48.523-42.852-72.91-7.9727-13.754-15.496-27.766-24.77-44.438 5.4766 1.4727 8.5234 2.0781 11.383 3.1758 1.0625 0.73828 1.8633 1.7969 2.2891 3.0195 18.484 36.637 36.953 73.285 55.398 109.94z"/>
  <path d="m741.92 142.88c-3.7422 2.1523-7.4805 4.3047-13.535 7.7852 2.0547 26.504 4.1953 54.148 6.3359 81.793-13.984-26.57-13.043-55.648-15.883-86.301 5.2773-2.043 13.168-5.0977 21.055-8.1484z"/>
  <path d="m771.91 197.36c0.67188 15.191 0.92188 30.418 2.1484 45.562 1.0859 13.398 3.4023 26.691 4.7734 40.07h0.003906c-1.2812 3.2305-3.1406 6.2031-5.4922 8.7695-4.7656-36.789-9.1133-69.594-13.047-102.45l0.003906-0.003906c1.0586-3.6328 2.8398-7.0156 5.2344-9.9453 2.8164 7.8594 4.6641 13.031 6.5156 18.203z"/>
  <path d="m613.1 1024.4c-20.246-1.1094-18.477 14.551-23.102 27.938l-5-18.836c-7.2656 3.2109-14.25 6.3008-24.242 10.719 1.0234-7.8906 1.7617-13.582 2.793-21.535 2.6523 4.0703 7.0078 6.7148 11.844 7.1875 4.8359 0.47266 9.6211-1.2773 13.012-4.7578 7.3203-5.7344 16.164-10.289 24.484-0.46875z"/>
  <path d="m392.98 794.36c13.664 27.57 27.332 55.141 42.113 84.965-10.941-9.0508-33.633-52.016-44.844-82.617 0.90625-0.77734 1.8203-1.5586 2.7305-2.3477z"/>
  <path d="m725.71 659.48c-1.4023 7.875-3.2617 15.703-4.1055 23.641h0.003906c-1.1133 4.3984 0.21484 9.0586 3.4805 12.211 3.2656 3.1484 7.9688 4.3086 12.328 3.0391-2.2227 1.293-4.5469 2.4062-6.9453 3.332-14.246 4.332-24.715 11.219-20.707 28.73-0.58984 1.3984-1.4844 2.6484-2.6133 3.6641-0.67969-9.6523-1.3711-18.5-1.8711-27.359-0.39062-1.8945-0.082031-3.8672 0.87109-5.5508 14.242-8.5586 11.078-22.961 12.848-35.871v-0.003906c1.6875-2.5 4-4.5117 6.7109-5.832z"/>
  <path d="m804.25 406.75c-0.66016 20.281-3.8438 40.398-9.4805 59.891l-5.0977-0.82031 9.0469-60.113z"/>
  <path d="m764.63 492.3-3.8711 48.285-5.0625-0.4375c-6.582-16.781 6.1719-31.883 8.9336-47.848z"/>
  <path d="m732.07 612.16c-8.4141 10.508-8.4141 10.508-18.98 7.6133l10.855-19.98z"/>
  <path d="m719.22 574.03c12.609-4.0391 25.219-8.0781 37.828-12.117l1.4258 4.1562c-12.234 5.0977-24.738 9.5156-37.461 13.227z"/>
  <path d="m700.12 753.29c8.8984-3.7617 17.793-7.5195 26.691-11.281l1.625 4.0508c-2.7852 4.7227-7.3398 8.1445-12.656 9.5-5.3125 1.3555-10.949 0.53906-15.66-2.2695z"/>
  <path d="m623.34 861.77c-8.7617 6.5234-14.488 10.789-20.273 15.098-3.1719-11.594-3.1719-11.594 20.273-15.098z"/>
  <path d="m654.57 810.29c-8.5195 4.3516-13.801 7.0508-22.168 11.32 1.8203-7.0664 2.8047-10.879 4.1055-15.93 5.1406 1.3164 9.7148 2.4805 18.062 4.6094z"/>
  <path d="m488.41 676.84-11.535-26.586 3.8789-1.7227v0.003906c5.7773 8.25 8.4883 18.266 7.6562 28.305z"/>
  <path d="m442.35 702.09c-3.1641-4.7969-6.668-9.4062-9.3867-14.441-2.4883-5.3164-4.7109-10.754-6.6562-16.293 9.0625 7.8789 14.734 18.949 15.836 30.906z"/>
  <path d="m771.45 169.79h-24.09c2.9219-3.668 7.3555-5.8086 12.043-5.8086 4.6914 0 9.125 2.1406 12.047 5.8086z"/>
  <path d="m834.79 371.36h-23.121c15.461-5.5312 15.461-5.5312 23.121 0z"/>
  <path d="m367.95 603.54c2.4883 7.2461 4.9727 14.496 7.457 21.746l-3.4648 1.2969-7.168-21.906z"/>
  <path d="m664.82 694.8c-1.9531-10.852-2.1992-17.258 7.3086-21.02z"/>
  <path d="m505.57 722.64 6.8672 23.156-4.3438 1.2188c-2.0859-7.7656-4.168-15.527-6.2539-23.293z"/>
  <path d="m688.59 704.18c-0.58984 5.1445-1.1797 10.289-1.7695 15.434l-3.6992-0.13281v-15.957z"/>
  <path d="m311.67 579.45 5.9414 14.789-3.2695 1.4688c-2.0977-4.793-4.1992-9.5859-6.3008-14.379z"/>
  <path d="m365.46 278.41 11.465-12.559 2.5273 2.0547c-3.4336 4.3594-6.8711 8.7148-10.305 13.074z"/>
  <path d="m807.18 224.79-17.473-3.9102c11.625-5.4258 11.625-5.4258 17.254 4.1055z"/>
  <path d="m453.99 729.29c-7.6562-6.9375-11.906-16.863-11.641-27.188l-0.20703 0.16797c3.8672 9.0742 7.7305 18.148 11.594 27.227z"/>
  <path d="m302.91 352.73 2.7148-10.742 3.0664 0.66016-2.3633 10.613z"/>
  <path d="m442.73 830 10.816 17.598v0.003906c-3.457-1.1836-6.4766-3.3789-8.6641-6.3047s-3.4414-6.4453-3.5938-10.094z"/>
  <path d="m687.59 676.49c-1.6289-11.738 3.5117-10.934 11.645-7.1953z"/>
  <path d="m322.18 295.45 6.6016-12.176 2.9648 1.4258-5.9844 13.059z"/>
  <path d="m852.83 361.79 7.9102-1.0195 0.74219 2.9062-7.9922 2.6094z"/>
  <path d="m691.99 214.51-5.0508 3.2812h-0.003906c-1.1094-1.8047-2.0781-3.6875-2.8984-5.6367 0.44531-0.92188 1.1875-1.6719 2.1016-2.1211 2.0352 1.3789 3.9883 2.875 5.8516 4.4766z"/>
  <path d="m598.46 913.46v-13.863h2.168v13.863z"/>
  <path d="m654.63 778.03v12.691l-1.3008 0.52734v0.003906c-0.63281-2.0234-1.082-4.1016-1.3438-6.207 0.042969-2.3828 0.26172-4.7617 0.65234-7.1133z"/>
  <path d="m649.85 708.36-2.5273 10.043-1.9492-0.20312 0.54297-10.414z"/>
  <path d="m453.73 729.49 6.6641 12.445-3.3555 1.1094c-1.0195-4.5859-2.0352-9.1719-3.0547-13.758z"/>
  <path d="m736.7 727.29 1.3125-11.832 2.5117 0.16016v12.023z"/>
  <path d="m305.79 556.51 2.4375 8.1367-2.5352 0.98437-3.3828-7.8945z"/>
  <path d="m619.56 837.95v8.5195l-1.418 0.007812v-8.5039z"/>
  <path d="m772.05 197.57 14.062-4.4297 0.67188 5.0352c-4.957-0.26953-9.9141-0.54297-14.871-0.8125z"/>
  <path d="m677.92 627.66c-1.2773 1.1758-2.7734 2.0898-4.3984 2.6953-1.2305-0.63672-2.2695-1.5938-3.0039-2.7656 1.4297-0.91016 2.9688-1.6484 4.5781-2.1914 1.1094 0.51953 2.0781 1.293 2.8242 2.2617z"/>
  <path d="m637.56 854.56-5.7227 7.5664-2.9492-1.9531 4.6914-7.832z"/>
  <path d="m656.84 750.32v-11.457l1.7461 0.007812v11.453z"/>
  <path d="m405.56 622.64c1.7188 2.7578 3.4375 5.5156 5.1523 8.2734l-2.8711 1.8516-5.2109-8.293z"/>
  <path d="m767.87 445.88v8.8984l-2.3359 0.16406-0.91406-9.1602z"/>
  <path d="m793.61 698c14.84-2.543 29.68-5.082 44.52-7.625l0.8125 4.4727c-14.695 3.0742-29.395 6.1484-44.09 9.2227z"/>
  <path d="m725.32 923.37 3.3008 10.777c-9.9531 12.562-23.785 9.9922-38.094 11.055 0.12109-3.3867 1.7266-6.5469 4.3867-8.6445 2.6602-2.0977 6.1094-2.918 9.4297-2.25 8.4805 0.41797 16.551-3.6719 21.223-10.762z"/>
  <path d="m891.25 254.73c-2.4844-5.7656-5.168-11.992-7.8555-18.219 10.906 6.0234 16.199 19.781 31.633 17.074l0.003906 0.003907c-7.4531 3.5586-16.023 3.9727-23.781 1.1406z"/>
  <path d="m881.47 224.84-6.4766-5.6328 2.082-2.4375 6.5078 5.5977z"/>
  <path d="m524.07 277.4c-8.6875 6.3594-19.941 8.0625-30.125 4.5664 8.8672-7.7852 8.8672-7.7852 30.125-4.5664z"/>
 </g>
</svg>
