<?xml version="1.0" encoding="UTF-8"?>
<svg width="1200pt" height="1200pt" version="1.1" viewBox="0 0 1200 1200" xmlns="http://www.w3.org/2000/svg">
 <g fill="#e4f9f4">
  <path d="m577.47 904.9 48.98-0.24609-1.7148-280.41 280.16-1.7148-0.24609-48.98-280.41 1.7148-1.7148-280.16-48.98 0.24609 1.7148 280.41-280.16 1.7148 0.24609 48.98 280.41-1.7148z"/>
  <path d="m708.49 1190.2c69.164-12.621 135.51-37.5 195.92-73.469l-37.223-63.184c-52.969 31.105-111 52.66-171.43 63.672z"/>
  <path d="m303.92 1121.9 36.246-63.918c-53.344-30.297-101-69.664-140.82-116.33l-56.082 47.512c45.434 53.238 99.797 98.156 160.65 132.73z"/>
  <path d="m398.94 1165.5c65.797 23.355 135.16 35.039 204.98 34.531v-73.469c-61.238 0.53906-122.09-9.7422-179.75-30.367z"/>
  <path d="m9.7969 710.2c12.699 69.141 37.578 135.48 73.469 195.92l63.672-39.184c-31.184-52.957-52.816-110.98-63.918-171.43z"/>
  <path d="m1094.9 781.71 69.062 24.488c23.859-65.535 36.047-134.75 36-204.49v-2.2031l-73.469 2.2031c0.12109 61.391-10.57 122.32-31.594 180z"/>
  <path d="m775.59 103.35 24.488-69.305v-0.003907c-65.516-23.074-134.54-34.59-204-34.039h-1.4688l1.9609 73.469h-0.003907c60.953-0.45703 121.52 9.6523 179.02 29.879z"/>
  <path d="m103.59 423.92-69.305-24.488h-0.003906c-23.273 65.641-34.875 134.85-34.285 204.49l73.469-1.4688c-0.38281-60.805 9.8125-121.21 30.125-178.53z"/>
  <path d="m1118.2 508.41 73.469-12.98v0.003907c-12.41-69-36.777-135.3-72-195.92l-63.43 37.223h0.003906c30.68 53.094 51.66 111.23 61.957 171.67z"/>
  <path d="m258.12 199.59-47.754-55.84c-53.223 45.387-98.066 99.766-132.49 160.65l63.918 36.246c30.215-53.469 69.586-101.21 116.32-141.06z"/>
  <path d="m1000.2 257.63 55.836-47.754c-45.539-53.102-99.984-97.852-160.9-132.25l-36 63.918c53.418 30.191 101.15 69.477 141.06 116.08z"/>
  <path d="m941.14 1001.1 48.98 55.836h-0.003906c53.223-45.359 98.141-99.637 132.73-160.41l-63.918-36.246v0.003906c-30.738 53.457-70.609 101.11-117.79 140.82z"/>
  <path d="m503.75 82.285-13.957-72.246c-69.141 12.703-135.48 37.578-195.92 73.473l38.938 63.426c52.676-31.555 110.57-53.449 170.94-64.652z"/>
 </g>
</svg>
