<?xml version="1.0" encoding="UTF-8"?>
<svg width="1200pt" height="1200pt" version="1.1" viewBox="0 0 1200 1200" xmlns="http://www.w3.org/2000/svg">
 <g fill="#e4f9f4">
  <path d="m180.65 616.18v278.5c0 26.473 21.527 48 48 48h742.7c26.473 0 48-21.527 48-48v-278.16h53.941c6.625 0 12-5.375 12-12s-5.375-12-12-12h-53.941v-167.51c0-26.473-21.527-48-48-48h-36.938v-5.4258c0-26.473-19.199-48-42.781-48h-51.66c-23.594 0-42.781 21.527-42.781 48v5.4258h-45.613v-101.11c0-31.871-21.527-57.805-48-57.805l-207.16 0.003906c-26.473 0-48 25.934-48 57.805v101.11l-219.77-0.003906c-26.473 0-48 21.527-48 48v167.86c-0.57422-0.085937-1.0781-0.33594-1.6797-0.33594h-65.941c-6.625 0-12 5.375-12 12s5.375 12 12 12h65.941c0.59766-0.011719 1.1016-0.26172 1.6797-0.34766zm640.55-244.6c0-13.234 8.4258-24 18.781-24h51.66c10.355 0 18.781 10.766 18.781 24v5.4258h-89.219zm-592.55 29.426h231.77c6.625 0 12-5.375 12-12v-113.11c0-18.324 10.992-33.805 24-33.805h207.17c13.008 0 24 15.48 24 33.805v113.11c0 6.625 5.375 12 12 12h231.77c13.234 0 24 10.766 24 24v91.094h-41.148c-5.7617-34.824-35.988-61.488-72.422-61.488s-66.66 26.664-72.422 61.488h-60.133c-31.297-59.316-94.922-74.785-97.633-75.395-96-27.672-148.97 32.062-166.64 57.719-27.492-14.676-102-43.441-174.54 25.199-4.8125 4.5469-5.0273 12.145-0.48047 16.969 4.5586 4.8242 12.145 5.0156 16.969 0.48047 76.066-71.953 151.8-18.898 154.96-16.621 2.832 2.0625 6.4688 2.7617 9.875 1.957 3.4219-0.81641 6.3125-3.1211 7.9062-6.2539 1.7773-3.5039 44.688-85.367 145.96-56.219 0.80469 0.19141 80.555 19.344 94.738 99.875 0.3125 1.2344 28.957 123.93-171.96 277.89-170.2-30.469-238.32-97.656-263.86-135.24-3.7305-5.4844-11.184-6.9102-16.668-3.1797-5.4844 3.7305-6.9102 11.195-3.1797 16.668 27.938 41.113 102.07 114.77 284.76 146.3 0.68359 0.12109 1.3555 0.17969 2.0391 0.17969 2.5938 0 5.1367-0.83984 7.2461-2.4375 218.04-164.98 186.34-300.46 185.06-305.24-1.1523-6.5898-2.7461-12.758-4.5703-18.66h50.16c5.7617 34.812 35.988 61.488 72.422 61.488 36.422 0 66.66-26.664 72.406-61.488h41.148v354.56c0 13.234-10.766 24-24 24h-165.38v-156.76c0-6.625-5.375-12-12-12s-12 5.375-12 12v156.77h-553.32c-13.234 0-24-10.766-24-24v-354.57h53.281c6.625 0 12-5.375 12-12s-5.375-12-12-12h-53.281v-91.094c0-13.234 10.762-24 24-24zm702.61 127.09c0 27.289-22.199 49.488-49.488 49.488-27.289 0-49.488-22.199-49.488-49.488 0-27.289 22.199-49.488 49.488-49.488 27.285 0 49.488 22.199 49.488 49.488z"/>
  <path d="m532.13 381.12h132.46c6.625 0 12-5.375 12-12v-90.445c0-6.625-5.375-12-12-12h-132.46c-6.625 0-12 5.375-12 12v90.445c0 6.6211 5.375 12 12 12zm12-90.445h108.46v66.445h-108.46z"/>
  <path d="m885.64 736.25c27.098 0 49.141-22.043 49.141-49.141 0-27.098-22.043-49.141-49.141-49.141-27.098 0-49.129 22.043-49.129 49.141 0 27.098 22.031 49.141 49.129 49.141zm0-74.266c13.859 0 25.141 11.27 25.141 25.141s-11.27 25.141-25.141 25.141c-13.859 0-25.129-11.27-25.129-25.141 0-13.875 11.27-25.141 25.129-25.141z"/>
  <path d="m885.64 864.98c27.098 0 49.141-22.043 49.141-49.141s-22.043-49.129-49.141-49.129c-27.098 0-49.129 22.031-49.129 49.129s22.031 49.141 49.129 49.141zm0-74.27c13.859 0 25.141 11.27 25.141 25.129s-11.27 25.141-25.141 25.141c-13.859 0-25.129-11.27-25.129-25.141-0.011718-13.848 11.27-25.129 25.129-25.129z"/>
  <path d="m264.48 595.77c-4.2461 13.801-6.3594 27.984-6.2656 42.121 0.046875 6.6016 5.4102 11.914 12 11.914h0.085937c6.625-0.046875 11.965-5.4609 11.914-12.086-0.070313-11.688 1.668-23.426 5.207-34.883 1.957-6.3359-1.5977-13.043-7.9336-15-6.3203-1.9453-13.051 1.5977-15.008 7.9336z"/>
  <path d="m879.27 193.87c3.8398 0 7.6211-1.8359 9.9375-5.2578l17.137-25.234c3.7305-5.4844 2.293-12.949-3.1797-16.668-5.4961-3.7305-12.949-2.293-16.668 3.1797l-17.137 25.234c-3.7305 5.4844-2.293 12.949 3.1797 16.668 2.0625 1.4062 4.4141 2.0781 6.7305 2.0781z"/>
  <path d="m842.41 214.78-17.137 25.234c-3.7305 5.4844-2.293 12.949 3.1797 16.668 2.0625 1.4023 4.4141 2.0742 6.7305 2.0742 3.8398 0 7.6211-1.8359 9.9375-5.2578l17.137-25.234c3.7305-5.4844 2.293-12.949-3.1797-16.668-5.4805-3.7422-12.934-2.2891-16.668 3.1836z"/>
  <path d="m839.24 198.16c2.0625 1.4023 4.4141 2.0742 6.7305 2.0742 3.8398 0 7.6211-1.8359 9.9375-5.2578 3.7305-5.4844 2.293-12.949-3.1797-16.668l-25.234-17.137c-5.4961-3.7305-12.949-2.293-16.668 3.1797-3.7305 5.4844-2.293 12.949 3.1797 16.668z"/>
  <path d="m875.71 208.41c-3.7305 5.4844-2.293 12.949 3.1797 16.668l25.234 17.148c2.0625 1.4023 4.4141 2.0742 6.7305 2.0742 3.8398 0 7.6211-1.8359 9.9375-5.2578 3.7305-5.4844 2.293-12.949-3.1797-16.668l-25.234-17.148c-5.4961-3.7148-12.957-2.2852-16.668 3.1836z"/>
  <path d="m554.66 584.05h54.602v52.934c0 6.625 5.375 12 12 12s12-5.375 12-12v-64.934c0-6.625-5.375-12-12-12h-66.602c-6.625 0-12 5.375-12 12s5.3633 12 12 12z"/>
  <path d="m420.39 648.98c6.625 0 12-5.375 12-12v-52.934h54.602c6.625 0 12-5.375 12-12s-5.375-12-12-12h-66.602c-6.625 0-12 5.375-12 12v64.934c0 6.625 5.3789 12 12 12z"/>
  <path d="m420.39 769.95h66.602c6.625 0 12-5.375 12-12s-5.375-12-12-12h-54.602v-52.934c0-6.625-5.375-12-12-12s-12 5.375-12 12v64.934c0 6.6211 5.3789 12 12 12z"/>
  <path d="m621.25 681.01c-6.625 0-12 5.375-12 12v52.934h-54.602c-6.625 0-12 5.375-12 12s5.375 12 12 12h66.602c6.625 0 12-5.375 12-12v-64.934c0-6.625-5.3672-12-12-12z"/>
  <path d="m457.92 669.76c0 6.625 5.375 12 12 12h37.754v37.754c0 6.625 5.375 12 12 12s12-5.375 12-12v-37.754h37.754c6.625 0 12-5.375 12-12s-5.375-12-12-12h-37.754v-37.754c0-6.625-5.375-12-12-12s-12 5.375-12 12v37.754h-37.754c-6.625 0-12 5.3633-12 12z"/>
  <path d="m228.67 283.74c1.3789 0.51562 2.8203 0.78125 4.2734 0.78125 1.8125 0 3.6133-0.40625 5.2695-1.2227 11.891-5.8203 22.766-12.059 32.891-18.48 18.59 10.703 47.09 20.102 90.336 20.605h0.14453c3.2656 0 6.4062-1.332 8.6641-3.707 36.371-37.98 48.086-69.551 50.977-91.32h79.43c6.625 0 12-5.375 12-12s-5.375-12-12-12h-79.598c-0.88672-5.0039-2.0391-7.9062-2.1602-8.1836-12.719-36.73-50.723-39.648-51.672-39.695-11.242-1.3555-20.734-0.046875-28.801 2.7461-12.48-19.871-31.535-28.656-31.969-28.836-35.617-18.266-65.102-5.7344-81.289 8.0039-17.328-12.238-47.746-22.117-81.109-0.98438-1.7266 0.96094-42.109 24.059-36.984 70.285 0.085937 2.8164 3.5898 69.023 121.6 114.01zm129.57-141.77c1.9336 0 3.9492 0.12109 6.7305 0.44531 0.23828 0.011719 23.676 1.8008 31.488 24.301 0.14453 0.37109 13.402 36.719-39.973 94.598-78.695-2.3867-95.375-37.309-95.832-38.281-10.141-20.363 4.3906-38.184 5.375-39.383 7.7148-10.066 17.125-15.168 27.984-15.168 8.4102 0 14.809 3.0586 14.82 3.0586 3.1094 1.5703 6.7578 1.668 10.008 0.34766 3.2266-1.3203 5.7461-4.043 6.8398-7.3555 0.78516-2.3086 8.25-22.562 32.559-22.562zm-201.93-21.887c33.996-21.516 58.188 2.1836 60.781 4.9062 2.375 2.5547 5.6641 3.9844 9.2891 3.793 3.5039-0.13281 6.7812-1.8242 8.9648-4.5586 2.375-3 24.348-28.789 60.758-10.141 0.15625 0.070312 13.414 6.3711 21.898 19.754-4.0938 3.9492-7.4531 8.1836-9.9609 12.277-3.9609-0.92578-8.7227-1.6328-14.016-1.6328-12.863 0-31.465 4.2617-46.609 24.047-1.043 1.2227-25.559 30.406-8.6172 64.355 0.3125 0.76953 3.3711 7.7773 11.879 16.43-5.832 3.4453-11.914 6.8281-18.348 10.094-96.926-38.566-101.27-90.109-101.35-91.367-3.4219-31.098 23.664-46.988 25.332-47.957z"/>
 </g>
</svg>
