<?xml version="1.0" encoding="UTF-8"?>
<svg width="1200pt" height="1200pt" version="1.1" viewBox="0 0 1200 1200" xmlns="http://www.w3.org/2000/svg">
 <g fill="#e4f9f4">
  <path d="m595.2 433.2c2.3984 2.3984 7.1992 2.3984 9.6016 0l75.602-75.602c21.602-21.602 19.199-57.602-8.3984-75.602-19.199-13.199-45.602-9.6016-62.398 7.1992l-9.6055 10.805-10.801-12c-21.602-21.602-57.602-19.199-75.602 8.3984-13.199 19.199-9.6016 45.602 7.1992 62.398z"/>
  <path d="m600 200.4c18 0 32.398-14.398 32.398-32.398v-98.398c0-18-14.398-32.398-32.398-32.398s-32.398 14.398-32.398 32.398v98.398c0 18 14.398 32.398 32.398 32.398z"/>
  <path d="m433.2 222c6 10.801 16.801 15.602 27.602 15.602 6 0 10.801-1.1992 15.602-4.8008 15.602-8.3984 20.398-28.801 12-43.199l-49.199-85.199c-8.3984-15.602-28.801-20.398-43.199-12-15.602 8.3984-20.398 28.801-12 43.199z"/>
  <path d="m256.8 286.8 85.199 49.199c4.8008 2.3984 10.801 4.8008 15.602 4.8008 10.801 0 21.602-6 27.602-15.602 8.3984-15.602 3.6016-34.801-12-43.199l-85.199-49.199c-15.602-8.3984-34.801-3.6016-43.199 12-8.4062 13.199-3.6055 32.398 11.996 42z"/>
  <path d="m813.6 324c6 10.801 16.801 15.602 27.602 15.602 6 0 10.801-1.1992 15.602-4.8008l85.199-49.199c15.602-8.3984 20.398-28.801 12-43.199-8.3984-15.602-28.801-20.398-43.199-12l-85.199 49.199c-15.605 9.5977-20.406 30-12.004 44.398z"/>
  <path d="m723.6 234c4.8008 2.3984 10.801 4.8008 15.602 4.8008 10.801 0 21.602-6 27.602-15.602l49.199-85.199c8.3984-15.602 3.6016-34.801-12-43.199-15.602-8.3984-34.801-3.6016-43.199 12l-49.199 85.199c-8.4062 13.199-3.6055 33.602 11.996 42z"/>
  <path d="m1137.6 494.4h-50.398v-56.398c0-9.6016-4.8008-19.199-12-25.199s-16.801-8.3984-26.398-7.1992l-448.8 87.598-448.8-87.602c-9.6016-2.3984-19.199 1.1992-26.398 7.1992s-12 15.602-12 25.199v56.398l-50.402 0.003907c-18 0-32.398 14.398-32.398 32.398v603.6c0 18 14.398 32.398 32.398 32.398h1075.2c18 0 32.398-14.398 32.398-32.398l0.003906-604.8c0-16.801-14.398-31.203-32.398-31.203zm-570 596.4-390-75.602v-538.8l390 75.602zm454.8-75.602-390 75.602v-537.6l390-75.602z"/>
  <path d="m267.6 645.6 196.8 38.398c2.3984 0 3.6016 1.1992 6 1.1992 15.602 0 28.801-10.801 31.199-26.398 3.6016-18-8.3984-34.801-25.199-37.199l-196.8-38.398c-18-3.6016-34.801 8.3984-37.199 25.199-3.5977 16.797 8.4023 34.797 25.203 37.199z"/>
  <path d="m267.6 796.8 196.8 38.398c2.3984 0 3.6016 1.1992 6 1.1992 15.602 0 28.801-10.801 31.199-26.398 3.6016-18-8.3984-34.801-25.199-37.199l-196.8-38.398c-18-3.6016-34.801 8.3984-37.199 25.199-3.6016 16.797 8.3984 33.598 25.199 37.199z"/>
  <path d="m267.6 948 196.8 38.398c2.3984 0 3.6016 1.1992 6 1.1992 15.602 0 28.801-10.801 31.199-26.398 3.6016-18-8.3984-34.801-25.199-37.199l-196.8-38.398c-18-3.6016-34.801 8.3984-37.199 25.199-3.6016 16.801 8.3984 33.598 25.199 37.199z"/>
  <path d="m728.4 685.2c2.3984 0 3.6016 0 6-1.1992l196.8-38.398c18-3.6016 28.801-20.398 25.199-37.199-3.6016-18-20.398-28.801-37.199-25.199l-196.8 38.398c-18 3.6016-28.801 20.398-25.199 37.199 3.6016 15.598 16.801 26.398 31.199 26.398z"/>
  <path d="m728.4 835.2c2.3984 0 3.6016 0 6-1.1992l196.8-38.398c18-3.6016 28.801-20.398 25.199-37.199-3.6016-18-20.398-28.801-37.199-25.199l-196.8 38.398c-18 3.6016-28.801 20.398-25.199 37.199 3.6016 16.801 16.801 26.398 31.199 26.398z"/>
  <path d="m728.4 986.4c2.3984 0 3.6016 0 6-1.1992l198-37.199c18-3.6016 28.801-20.398 25.199-37.199-3.6016-18-20.398-28.801-37.199-25.199l-196.8 38.398c-18 3.6016-28.801 20.398-25.199 37.199 2.4023 14.402 15.602 25.199 30 25.199z"/>
 </g>
</svg>
