<?xml version="1.0" encoding="UTF-8"?>
<svg width="1200pt" height="1200pt" version="1.1" viewBox="0 0 1200 1200" xmlns="http://www.w3.org/2000/svg">
 <path d="m253.04 755.88 154.19-142.62c4.6211-4.2812 11.766-4.1953 16.27 0.058594l164.51 152.15 177.36-218.48c4.1523-5.1172 11.707-5.8945 16.824-1.7422l1.4023 1.332 169.19 190.19c8.5039-30.926 13.039-63.496 13.039-97.129 0-101.01-40.961-192.49-107.15-258.68-66.203-66.203-157.68-107.16-258.68-107.16-101.01 0-192.49 40.961-258.68 107.16-66.203 66.191-107.16 157.66-107.16 258.68 0 40.637 6.6484 79.727 18.879 116.25zm267.95-278.09c19.133 0 36.512 7.7812 49.109 20.367 12.645 12.656 20.422 30.047 20.422 49.168 0 19.133-7.7812 36.512-20.367 49.109-12.684 12.645-30.047 20.422-49.168 20.422-19.133 0-36.523-7.7812-49.109-20.367-12.645-12.684-20.422-30.047-20.422-49.168 0-19.133 7.7812-36.523 20.367-49.109 12.656-12.645 30.047-20.422 49.168-20.422zm79.016-228.01c107.65 0 205.1 43.641 275.66 114.2 70.527 70.527 114.18 168.02 114.18 275.66 0 107.65-43.652 205.12-114.2 275.64-70.527 70.539-168 114.2-275.64 114.2-107.63 0-205.13-43.652-275.66-114.2-70.539-70.527-114.2-168-114.2-275.64 0-107.63 43.652-205.13 114.2-275.66 70.527-70.539 168.02-114.2 275.66-114.2zm-339.38 8.6328h-90.426c-34.938 0-66.727 14.172-90.215 37.332-23.543 23.555-37.969 55.617-37.969 90.867v579.18c0 35.25 14.43 67.309 37.66 90.539 23.203 23.23 55.262 37.66 90.523 37.66h859.61c34.938 0 66.727-14.172 90.215-37.332 23.543-23.555 37.969-55.617 37.969-90.867v-579.18c0-35.234-14.441-67.297-37.672-90.523-23.188-23.258-55.246-37.672-90.512-37.672h-90.469c-76.863 0-102.98-40.902-129.09-81.781-22.551-35.293-45.129-70.625-108.98-70.625h-202.57c-63.852 0-86.414 35.32-108.98 70.625-26.105 40.875-52.23 81.781-129.11 81.781z" fill="#527870"/>
</svg>
