<?xml version="1.0" encoding="UTF-8"?>
<svg width="1200pt" height="1200pt" version="1.1" viewBox="0 0 1200 1200" xmlns="http://www.w3.org/2000/svg">
 <g fill="#e4f9f4">
  <path d="m390 888c0 13.199 10.801 22.801 22.801 22.801h237.6c-1.1992-10.801 1.1992-21.602 7.1992-31.199l8.3984-14.398-253.2-0.003906c-12 0-22.801 10.801-22.801 22.801z"/>
  <path d="m412.8 736.8c-13.199 0-22.801 10.801-22.801 22.801s10.801 22.801 22.801 22.801h253.2c0-13.199 2.3984-28.801 7.1992-45.602z"/>
  <path d="m745.2 608.4h-332.4c-13.199 0-22.801 10.801-22.801 22.801 0 13.199 10.801 22.801 22.801 22.801h300c10.801-15.602 21.598-31.199 32.398-45.602z"/>
  <path d="m412.8 525.6h373.2c13.199 0 22.801-10.801 22.801-22.801 0-13.199-10.801-22.801-22.801-22.801h-373.2c-13.199 0-22.801 10.801-22.801 22.801 0 13.199 10.801 22.801 22.801 22.801z"/>
  <path d="m825.6 578.4s-1.1992 1.1992-1.1992 2.3984l-16.801 88.801-13.203-45.598c-1.1992-2.3984-4.8008-3.6016-6-1.1992-15.602 19.199-30 39.602-42 58.801 0 1.1992-1.1992 1.1992 0 2.3984l12 91.199-32.398-40.801c-1.1992-2.3984-6-1.1992-6 1.1992-15.602 42-15.602 79.199 13.199 103.2l-38.398 63.602c-2.3984 4.8008 0 10.801 6 10.801h31.199c3.6016 0 6-2.3984 7.1992-6 2.3984-9.6016 8.3984-32.398 18-55.199 51.602 20.398 92.398-22.801 122.4-85.199 1.1992-2.3984-1.1992-6-3.6016-4.8008l-51.602 7.1992 78-61.199s1.1992-1.1992 1.1992-2.3984c8.3984-24 14.398-49.199 20.398-74.398 0-2.3984-1.1992-4.8008-4.8008-4.8008l-55.199 10.801 67.199-57.602c1.1992 0 1.1992-1.1992 1.1992-2.3984 7.1992-48 7.1992-84 1.1992-87.602-9.5898-2.4023-58.789 36-107.99 88.797z"/>
  <path d="m1051.2 1005.6h-123.6v-244.8c-14.398 36-30 62.398-45.602 82.801v162h-438c-12 0-22.801 10.801-22.801 22.801v44.398c0 27.602-22.801 50.398-51.602 50.398-27.602 0-50.398-22.801-50.398-50.398v-644.4c0-19.199-6-36-15.602-50.398h164.4c34.801 31.199 81.602 50.398 132 50.398s97.199-19.199 132-50.398h98.398c27.602 0 50.398 22.801 50.398 50.398v43.199c18-13.199 33.602-20.398 45.602-21.602v-21.602c0-52.801-43.199-96-96-96h-61.199c18-30 28.801-64.801 28.801-102 0-110.4-88.801-199.2-199.2-199.2-109.2 0-199.2 88.801-199.2 199.2 0 37.199 10.801 72 28.801 102l-206.4 0.003907c-52.801 0-96 43.199-96 96v44.398c0 12 10.801 22.801 22.801 22.801h124.8v578.4c0 52.801 43.199 96 96 96h608.4c52.801 0 96-43.199 96-96v-44.398c0-13.199-9.6016-23.996-22.801-23.996zm-451.2-930c85.199 0 153.6 69.602 153.6 153.6 0 83.996-68.402 153.6-153.6 153.6s-153.6-69.602-153.6-153.6 68.402-153.6 153.6-153.6zm-326.4 374.4h-102v-21.602c0-27.602 22.801-50.398 50.398-50.398 28.801 0 51.602 22.801 51.602 50.398zm756 624c0 27.602-22.801 50.398-50.398 50.398h-528c9.6016-14.398 14.398-32.398 14.398-50.398v-21.602h562.8v21.602z"/>
  <path d="m546 247.2c2.3984 2.3984 3.6016 4.8008 2.3984 7.1992l-8.3984 42c-2.3984 10.801 9.6016 19.199 19.199 14.398l37.199-21.602c2.3984-1.1992 6-1.1992 8.3984 0l37.199 21.602c9.6016 6 21.602-3.6016 19.199-14.398l-8.3984-42c0-2.3984 0-6 2.3984-7.1992l31.199-28.801c8.3984-7.1992 3.6016-21.602-7.1992-22.801l-43.195-5.9961c-2.3984 0-4.8008-2.3984-6-4.8008l-18-38.402c-4.8008-10.801-19.199-10.801-24 0l-18 38.398c-1.1992 2.3984-3.6016 4.8008-6 4.8008l-42 4.8008c-10.801 1.1992-15.602 15.602-7.1992 22.801z"/>
 </g>
</svg>
