<?xml version="1.0" encoding="UTF-8"?>
<svg width="1200pt" height="1200pt" version="1.1" viewBox="0 0 1200 1200" xmlns="http://www.w3.org/2000/svg">
 <path d="m1125 525c0-248.12-201.88-450-450-450-162.51 0-305.16 86.605-384.26 216.07-133.16 81.188-215.74 227.74-215.74 383.93 0 248.14 201.88 450 450 450 156.19 0 302.74-82.574 383.95-215.74 129.45-79.125 216.05-221.75 216.05-384.26zm-600 562.5c-227.46 0-412.5-185.04-412.5-412.5 0-120.11 53.363-233.98 142.59-311.51-19.367 50.176-30.094 104.59-30.094 161.51 0 248.12 201.88 450 450 450 56.926 0 111.36-10.742 161.53-30.113-77.531 89.23-191.4 142.61-311.53 142.61zm150-150c-227.46 0-412.5-185.04-412.5-412.5s185.04-412.5 412.5-412.5 412.5 185.04 412.5 412.5-185.04 412.5-412.5 412.5zm-185.76-694.93c-5.1953-8.9609-2.1758-20.438 6.7695-25.633 67.875-39.508 149.06-55.406 226.78-45 10.273 1.3867 17.477 10.82 16.086 21.074-1.3672 10.273-10.781 17.438-21.074 16.086-69.523-9.3203-142.22 4.9141-202.93 40.238-2.9609 1.7266-6.207 2.5508-9.4141 2.5508-6.4688 0-12.75-3.3359-16.219-9.3164zm-151.74 301.54c-10.367 0-18.75-8.0625-18.75-18.395v-0.71094c0-79.82 25.781-155.23 74.57-218.14 6.3555-8.1758 18.113-9.6953 26.305-3.3203 8.1758 6.3359 9.6758 18.113 3.3203 26.289-43.652 56.285-66.695 123.75-66.695 195.17 0 10.352-8.3828 19.105-18.75 19.105zm693.75-20.492v1.3867c0 80.062-25.949 155.68-75.02 218.7-3.6953 4.7422-9.2266 7.2383-14.812 7.2383-4.0312 0-8.082-1.293-11.492-3.957-8.1758-6.375-9.6367-18.148-3.2812-26.305 43.91-56.383 67.105-124.05 67.105-195.68 0-10.367 8.3828-19.445 18.75-19.445s18.75 7.6875 18.75 18.059zm-171.05 284.21c5.1953 8.9609 2.1367 20.438-6.8242 25.613-53.965 31.273-115.65 47.812-178.37 47.812-16.219 0-32.551-1.125-48.523-3.3008-10.258-1.3867-17.438-10.836-16.031-21.113 1.4062-10.258 10.875-17.492 21.133-16.031 69.395 9.4883 142.24-4.5938 203.01-39.805 8.9219-5.1758 20.414-2.1367 25.609 6.8242zm109.74-403.95c-26.773-65.156-75.242-120.38-136.5-155.53-8.9805-5.1562-12.094-16.613-6.918-25.594 5.1367-8.9805 16.594-12.113 25.594-6.918 68.418 39.281 122.59 101.01 152.51 173.81 3.9375 9.582-0.63672 20.531-10.219 24.469-2.3242 0.95703-4.7422 1.4062-7.125 1.4062-7.3672-0.019531-14.363-4.3867-17.344-11.645zm-447.07 423.05c-3.4883 6.0195-9.7695 9.3945-16.258 9.3945-3.1875 0-6.3945-0.80469-9.3555-2.5117-68.363-39.43-122.38-101.27-152.14-174.13-3.918-9.6016 0.67578-20.531 10.273-24.449 9.5625-3.9375 20.531 0.65625 24.449 10.273 26.625 65.195 74.98 120.54 136.18 155.83 8.9297 5.1562 12.023 16.613 6.8477 25.594zm358.39-301.93c0 10.352-8.3828 18.75-18.75 18.75h-168.75v168.75c0 10.352-8.3828 18.75-18.75 18.75s-18.75-8.3984-18.75-18.75v-168.75h-168.75c-10.367 0-18.75-8.3984-18.75-18.75 0-10.367 8.3828-18.75 18.75-18.75h168.75v-168.75c0-10.367 8.3828-18.75 18.75-18.75s18.75 8.3828 18.75 18.75v168.75h168.75c10.367 0 18.75 8.3828 18.75 18.75z" fill="#e4f9f4"/>
</svg>
