<?xml version="1.0" encoding="UTF-8"?>
<svg width="1200pt" height="1200pt" version="1.1" viewBox="0 0 1200 1200" xmlns="http://www.w3.org/2000/svg">
 <path d="m1038.2 1154h-2.1602c-1.0781-0.12109-2.2812-0.48047-3.3594-0.48047-32.641 0-65.281-0.12109-97.922-0.12109-0.96094 0-1.8008 0.12109-2.7617 0.12109-0.60156 0-1.3203-0.12109-1.9219-0.12109h-144.12c-0.71875 0-1.4414 0.12109-2.1602 0.12109-0.96094 0-1.8008-0.12109-2.7617-0.12109h-359.4c-0.96094 0-2.0391 0-3 0.12109-0.96094 0-1.8008-0.12109-2.7617-0.12109h-141.36c-0.96094 0-2.0391 0-3 0.12109-0.60156 0-1.3203-0.12109-1.9219-0.12109-33.961 0-67.922 0-102 0.12109-0.83984 0-1.6797 0.12109-2.3984 0.23828-5.0391 0.96094-8.6406-1.9219-8.7617-7.0781v-3.8398c-0.35938-309-0.60156-618-0.96094-927 0-53.641 0-107.16-0.23828-160.8 0-5.8789 4.0781-9.2383 9.1211-9 2.0391 0.12109 4.0781 0.12109 6.1211 0.12109 111.6 0 223.2-0.12109 334.8-0.12109 80.398 0 160.8 0.12109 241.32 0.12109h286.08c1.9219 0 3.8398-0.12109 5.7617 0.12109 2.8789 0.23828 5.1602 1.6797 6.2383 4.3203 0.60156 1.3203 0.48047 2.8789 0.48047 4.3203v84.719c0 0.96094 0 2.0391 0.12109 3 0 0.96094-0.12109 1.8008-0.12109 2.7617-0.23828 265.92-0.35938 531.84-0.60156 797.76 0 67.32-0.12109 134.76-0.23828 202.08-0.23047 5.5195-1.1914 6.8398-6.1133 8.7578zm-868.92-255.12c-0.12109 0.83984-0.23828 1.6797-0.23828 2.3984 0.12109 78.84 0.12109 157.8 0.23828 236.64 0 0.83984 0.12109 1.5586 0.12109 2.5195h5.3984c106.56-0.12109 213-0.35938 319.56-0.48047 72.602 0 145.2 0.12109 217.68 0.12109 105.24 0.12109 210.48 0.23828 315.72 0.23828 0.71875 0 1.5586 0.12109 2.1602-0.12109 0.35938-0.12109 0.48047-0.71875 0.83984-1.1992 0-1.1992 0.12109-2.3984 0.12109-3.6016 0.12109-123.6 0.23828-247.08 0.35938-370.68 0.12109-185.88 0.35938-371.88 0.48047-557.76 0-48.238 0.12109-96.48 0.12109-144.72v-3.2383h-863.76v3.7188c0.12109 79.922 0.12109 159.84 0.23828 239.76 0.23828 197.52 0.35938 395.04 0.60156 592.68 0.12109 1.3203 0.24219 2.5195 0.36328 3.7227zm803.04-393.72v371.52 5.0391c-0.12109 5.0391-3 7.9219-7.9219 7.9219h-16.922c-50.879 0.12109-101.88-0.12109-152.76 0.23828-97.559 0.71875-195.12-0.23828-292.68 0.23828-29.52 0.12109-59.039 0.60156-88.559 0.12109-44.762-0.71875-89.398-0.23828-134.16-0.60156-14.52-0.12109-28.922 0-43.441 0-5.1602 0-7.9219-2.6406-8.1602-7.6797v-3c0.125-73.438 0.24609-146.88 0.24609-220.2 0.12109-175.56 0.35938-351 0.48047-526.56v-2.7617c-0.35938-4.8008 1.6797-8.0391 8.2812-9 0.60156-0.12109 1.0781 0 1.6797 0h257.28c65.281 0 130.56-0.12109 195.84-0.12109 90.121 0 180.24 0.12109 270.36 0.12109 1.4414 0 3 0.23828 4.3203 0.71875 3.9609 1.3203 5.5195 3.6016 5.5195 7.9219 0 60.84 0 121.8 0.12109 182.64v193.44c0.11719-0.003906 0.35547-0.003906 0.47656-0.003906zm-223.8 141.96-0.60156 0.60156v-0.12109c-0.23828 0.23828-0.48047 0.60156-0.71875 0.83984-0.35938 0.35938-0.71875 0.60156-0.96094 0.96094-7.1992 8.1602-14.281 16.32-21.48 24.48-4.6797 5.3984-9.4805 10.801-14.16 16.199-1.6797 1.6797-3.2383 3.4805-4.9219 5.1602 0.48047 0.83984 0.83984 1.5586 1.3203 2.1602 16.199 24.359 33.48 48 51.238 71.16 4.3203 5.6406 8.5195 11.398 12.602 17.16 1.9219 2.6406 3 5.5195 1.4414 8.7617-0.23828 0.35937-0.60156 0.71875-0.83984 1.0781-2.7617 2.7617-6.4805 2.8789-9.3594 0.12109-0.71875-0.71875-1.3203-1.5586-1.9219-2.3984-2.8789-3.9609-5.6406-7.9219-8.6406-11.879-17.641-23.16-35.16-46.441-51.359-70.559-20.762-30.961-41.762-61.68-62.641-92.52-2.3984-3.4805-4.9219-6.8398-7.3203-10.32-0.23828-0.23828-0.60156-0.48047-0.83984-0.71875l0.12109 0.12109 0.12109-0.12109c-0.23828-0.35938-0.48047-0.71875-0.71875-1.0781l0.12109 0.12109c-0.35937-0.48047-0.60156-0.83984-0.96094-1.3203-0.60156-0.83984-1.0781-1.6797-1.6797-2.5195-6.8398-9.6016-13.801-19.199-20.641-28.801-23.398-32.762-48.238-64.559-74.398-95.16-9.9609-11.641-20.52-22.801-32.879-31.922-8.1602-6-16.559-11.762-25.559-16.441-9.3594-4.8008-19.078-5.8789-29.281-3.2383-9.7188 2.5195-18.602 6.6016-26.879 12-13.199 8.5195-24.84 19.078-36.238 29.879-16.68 15.84-31.801 33.121-46.801 50.52-19.68 22.922-38.281 46.559-56.762 70.441-3.2383 4.1992-6.4805 8.5195-9.7188 12.719-2.7617 3.4805-5.3984 6.9609-8.1602 10.441-5.0391 6.3594-10.078 12.602-15.121 18.961-1.6797 1.1992-2.8789 2.5195-2.8789 4.9219 0 78.84-0.12109 157.8-0.23828 236.64v3c239.64 0.48047 478.8 0.48047 718.2 0v-3-55.078c0-0.60156-0.12109-1.3203-0.12109-1.9219 0-0.96094 0.12109-2.0391 0.12109-3 0-66.359-0.12109-132.72-0.23828-199.2 0-0.96094-0.12109-2.0391-0.23828-3v-12.602-11.641c0-0.96094 0.12109-1.8008 0.12109-2.7617 0-26.762-0.12109-53.52 0.12109-80.281 0-5.2812-1.0781-9.3594-4.8008-13.199-5.0391-5.2812-9.3594-11.16-14.281-16.559-2.1602-2.3984-4.6797-4.4414-7.3203-6.2383-3.7188-2.5195-7.8008-3-12.121-1.6797-4.6797 1.3203-9 3.4805-12.719 6.4805-4.0781 3.2383-8.0391 6.7188-11.879 10.441-14.039 13.68-27.121 28.441-40.32 43.078-32.039 35.52-64.32 70.68-95.398 107.04-3.8398 4.4414-7.5586 9-11.398 13.559l0.12109 0.12109c0.23047-0.25 0.10938-0.011719-0.13281 0.10938zm94.562-275.76c0.12109-0.23828 0.35938-0.48047 0.48047-0.60156 1.1992-1.4414 2.2812-3.1211 3.7188-4.3203 2.2812-2.0391 5.1602-2.3984 7.4414-1.1992 2.3984 1.3203 3.3594 3.6016 3 6.8398 0 0.23828 0 0.60156-0.12109 0.83984-0.23828 0.71875-0.60156 1.3203-0.83984 2.0391-0.96094 2.0391-0.96094 2.1602 0.71875 3.4805 0.96094 0.71875 1.9219 1.4414 2.8789 2.0391 7.5586 4.6797 15.602 6.1211 24.359 4.6797 12-2.0391 21.238-8.0391 27.84-18.238 2.0391-3 3.3594-6.3594 3.2383-10.078 0.12109-2.3984 0-4.8008 0.23828-7.1992 0.12109-1.6797 0.48047-3.4805 1.0781-5.0391 0.83984-2.2812 2.6406-3.4805 5.1602-3.6016 2.3984-0.12109 4.4414 0.96094 5.3984 3.1211 0.83984 1.9219 1.4414 4.0781 1.5586 6.1211 0.12109 3.8398-0.23828 7.6797-0.35938 11.52-0.71875 2.3984-1.4414 4.6797-2.1602 6.9609 8.1602 7.8008 24.719 13.32 31.922 10.68v-10.441c0-0.71875 0.12109-1.4414 0.12109-2.1602 0-44.281-0.12109-88.559-0.12109-132.84v-2.5195c-0.60156-0.12109-0.96094-0.12109-1.3203-0.12109h-1.6797c-10.199 0.71875-18.84 4.8008-26.281 11.52-3.4805 3.1211-6 6.7188-7.1992 11.281-1.3203 5.1602-2.0391 10.441-1.3203 15.84 0.12109 1.1992 0.35938 2.3984 0.23828 3.6016-0.12109 3.9609-2.3984 6.8398-5.5195 7.1992-3.3594 0.48047-6.2383-1.9219-7.1992-5.8789-0.12109-0.35938-0.12109-0.71875-0.23828-1.0781-0.23828-2.2812-0.60156-4.5586-0.60156-6.8398 0-1.9219-0.83984-3-2.5195-3.8398-7.0781-3.1211-14.281-4.0781-21.84-2.5195-5.1602 1.1992-9.7188 3.3594-13.68 7.1992 1.4414 2.2812 2.8789 4.5586 4.3203 6.8398 1.8008 2.7617 1.5586 5.7617-0.60156 7.8008-2.1602 2.0391-5.2812 2.1602-7.8008 0.12109-1.0781-0.83984-1.9219-1.9219-2.7617-3.1211-1.5586-2.0391-2.8789-4.3203-4.4414-6.3594-3.4805-4.6797-8.0391-8.1602-13.32-10.559-12.238-5.7617-28.801-2.7617-39.121 7.5586-2.6406 2.7617-4.1992 6-4.9219 9.7188-0.96094 5.1602-1.0781 10.32-0.23828 15.359 0.48047 3.2383 1.1992 6.3594 1.5586 9.4805 0.23828 1.5586 0.23828 3.1211-0.12109 4.6797-0.48047 2.6406-2.2812 4.1992-4.9219 4.5586-2.6406 0.48047-4.8008-0.48047-6.1211-2.7617-0.83984-1.4414-1.1992-3-1.8008-4.5586-0.35938-0.96094-0.48047-1.9219-0.71875-2.8789-11.879 3.8398-20.641 10.68-26.16 21.602-0.60156 1.3203-0.96094 2.7617-1.3203 4.1992-1.3203 3.1211-1.4414 6.4805-0.96094 9.7188 1.4414 9.3594 7.1992 15.238 15.719 18.602 6.6016 2.5195 13.441 3.7188 20.398 4.1992 0.35938 0 0.71875-0.12109 0.71875-0.23828 0.23828-2.7617 0.35938-5.2812 0.60156-7.8008 0.83984-0.83984 1.4414-1.9219 2.3984-2.6406 3.7188-2.5195 8.2812 0 8.8789 4.5586 0.35937 2.3984 0.96094 4.8008 1.3203 7.1992 2.0391 8.3984 7.6797 13.32 15.84 15.359 6.9883 1.918 12.625 0.71875 17.188-7.082l-0.12109-0.12109zm-479.64-11.879c-0.71875 1.1992-1.3203 2.3984-2.1602 3.7188 1.9219 1.1992 3.7188 2.3984 5.5195 3.3594 9.1211 5.0391 17.879 4.4414 26.16-1.6797 2.3984-1.8008 4.6797-3.9609 6.8398-6 0.48047-0.48047 0.83984-1.0781 1.4414-1.8008-0.83984-0.83984-1.4414-1.5586-2.1602-2.2812-0.48047-0.71875-0.96094-1.3203-1.4414-2.0391-1.3203-2.2812-2.7617-4.5586-3.7188-6.9609-1.0781-2.6406-0.71875-5.2812 1.4414-7.4414 2.1602-2.1602 5.6406-2.2812 8.2812 0 1.4414 1.1992 2.3984 3 3.6016 4.4414 0.48047 0.83984 0.83984 1.6797 1.3203 2.3984 2.5195 3.7188 6.2383 5.8789 10.32 7.5586 10.078 4.1992 20.641 5.1602 31.441 4.0781 6.8398-0.71875 12.719-3.2383 17.879-7.8008 6.7188-5.8789 12-12.719 16.078-20.52 3.4805-6.6016 4.3203-13.441 2.5195-20.641-0.48047-2.3984-0.96094-4.8008-1.4414-7.1992-0.23828-1.0781-0.60156-2.1602-0.60156-3.2383 0-2.2812 1.1992-4.0781 3.2383-5.0391 2.1602-1.0781 4.3203-0.71875 6.1211 0.71875 0.60156 0.48047 1.0781 1.0781 1.5586 1.5586 0.71875 1.8008 1.4414 3.7188 2.1602 5.6406 4.8008-0.96094 9.3594-1.4414 13.199-4.1992 5.2812-3.7188 9.8398-8.3984 13.441-13.68 1.1992-1.6797 2.0391-3.4805 2.7617-5.3984 2.7617-8.0391 1.5586-18.121-7.0781-25.078l-1.5586-1.5586c-8.8789-6.9609-19.078-9.9609-30.238-9.2383-2.7617 0.12109-5.6406 0.60156-8.5195 0.96094 0.12109 0.96094 0.23828 1.6797 0.35938 2.2812 0.35938 3.2383 0.48047 6.4805-0.35938 9.6016-0.83984 3.3594-3.7188 5.1602-6.9609 4.4414-3-0.60156-4.8008-3.2383-4.5586-6.7188 0.35937-3.4805-0.23828-6.7188-1.9219-9.6016-1.9219-3.3594-3.9609-6.7188-6.3594-9.7188-4.3203-5.5195-9.9609-9.3594-16.68-11.398-5.3984-1.6797-11.039-2.3984-16.68-2.0391-14.039 0.71875-26.039 6.2383-35.641 16.68-3.6016 3.9609-7.4414 7.9219-7.9219 13.922-0.23828 2.7617-2.6406 4.6797-5.2812 4.9219-2.7617 0.23828-4.8008-0.96094-6.2383-3.3594-1.8008-3.1211-1.9219-6.3594-0.48047-9.6016 0.71875-1.8008 1.6797-3.4805 2.5195-5.1602-2.5195-2.8789-5.0391-5.6406-7.1992-8.6406-3.6016-4.8008-13.32-6.4805-18.84-2.3984-2.8789 2.0391-5.0391 4.8008-7.1992 7.6797 1.4414 2.7617 2.7617 5.5195 4.0781 8.2812 1.0781 2.1602 1.6797 4.3203 1.3203 6.6016-0.71875 3.8398-4.3203 5.8789-7.9219 4.5586-2.0391-0.71875-3.4805-2.1602-4.4414-3.9609-1.1992-2.1602-2.3984-4.4414-3.3594-6.6016-1.8008-3.8398-4.0781-7.1992-6.9609-10.199-7.5586-7.8008-17.039-12.238-27.602-14.16-12.238-2.2812-24.121-0.48047-35.641 3.6016-6.3594 2.2812-11.762 6-16.199 11.16-1.5586 1.8008-2.3984 3.7188-2.3984 6.2383 0 45.961 0 91.922-0.12109 137.88 0 0.96094 0.12109 1.8008 0.12109 2.7617 0 2.2812 0 4.5586-0.23828 6.8398-0.12109 2.0391 0.60156 3 2.3984 3.8398 8.3984 3.7188 16.078 2.0391 23.039-3.2383 4.4414-3.3594 6.9609-8.1602 9.3594-13.078-2.0391-1.9219-3.9609-3.7188-5.8789-5.5195-0.48047-0.83984-0.96094-1.5586-1.3203-2.3984-1.3203-3.1211-0.60156-6.2383 1.6797-8.0391 2.1602-1.6797 5.3984-1.5586 8.0391 0.23828 0.83984 0.60156 1.6797 1.4414 2.5195 2.1602 1.6797 1.5586 3.2383 3.2383 5.0391 4.6797 5.8789 4.8008 12.359 8.8789 19.922 10.199 14.16 2.5195 26.879-1.1992 37.801-10.441 5.5195-4.5586 9.1211-10.441 11.398-17.281l0.35938-0.35938c2.2812-2.5195 5.0391-3.1211 7.5586-1.8008 2.3984 1.3203 3.6016 3.9609 2.7617 7.0781-0.48047 1.8008-1.1992 3.4805-1.9219 5.1602 0.125 0.94922-0.11719 1.6719-0.35547 2.2695zm335.16 325.2c3.4805-4.1992 6.6016-8.2812 9.9609-12.238 9.3594-10.68 18.719-21.359 28.078-32.039 19.559-22.32 38.879-44.879 58.68-67.078 21.121-23.762 42.48-47.16 63.719-70.68 10.32-11.398 20.762-22.801 32.039-33.238 5.8789-5.5195 12.121-10.441 19.68-13.68 6.6016-2.8789 13.32-4.3203 20.398-2.6406 5.8789 1.4414 10.922 4.4414 15.121 8.7617 3.7188 3.7188 7.0781 7.8008 10.559 11.762 0.48047 0.60156 1.0781 1.0781 1.8008 1.9219v-82.199c-7.3203 0.48047-14.16-0.48047-20.762-3.1211-6.6016-2.6406-12.602-6.3594-18.121-10.801-2.3984 2.3984-4.6797 4.8008-7.0781 6.9609-7.6797 6.7188-16.68 10.32-26.641 11.879-14.16 2.1602-26.762-1.0781-37.32-11.039-0.35938-0.23828-0.71875-0.48047-1.0781-0.71875-7.6797 6.3594-16.441 7.4414-25.68 5.0391-9.2383-2.5195-16.559-7.5586-21-16.199-1.3203 0.12109-2.3984 0.23828-3.4805 0.23828-9.1211-0.35938-18.121-1.9219-26.762-5.1602-21.359-8.1602-30.359-31.199-19.922-51.359 6.7188-12.84 16.801-21.84 30.961-25.68 1.5586-0.48047 3.1211-0.83984 5.0391-1.4414 0-2.7617-0.12109-5.3984 0-8.0391 0.71875-11.398 5.3984-20.641 14.879-27.48 17.039-12.121 40.922-13.559 58.32 0.83984 0.23828 0.23828 0.60156 0.35938 0.96094 0.60156 6.6016-5.8789 14.281-9 22.922-10.32 8.7617-1.3203 16.922 0.48047 24.961 4.4414 2.7617-11.281 10.078-18.602 19.078-24.48 9.1211-6.1211 19.078-8.8789 30.121-8.0391v-85.32h-716.64v83.281c14.039-10.922 30.121-13.559 46.922-13.078 17.16 0.48047 32.039 6.9609 44.52 18.961 1.3203-1.5586 2.5195-3 3.8398-4.4414 10.559-11.398 29.398-11.039 39.48 0.83984 1.9219 2.2812 3.8398 4.4414 5.8789 6.8398 0.71875-0.60156 1.3203-1.1992 1.9219-1.6797 15.238-14.281 33.121-20.281 53.762-17.641 13.441 1.6797 24.48 7.6797 33 18.359 1.5586 1.9219 2.8789 3.9609 4.3203 6 1.1992-0.23828 2.1602-0.60156 3.3594-0.83984 3.9609-0.71875 7.8008-1.6797 11.762-1.8008 14.039-0.71875 26.398 3.9609 37.32 12.719 4.9219 3.9609 8.8789 8.6406 11.281 14.52 5.5195 13.559 3.2383 26.039-5.6406 37.441-3 3.7188-6.4805 7.0781-9.9609 10.32-4.8008 4.5586-10.441 7.5586-16.922 8.7617-1.3203 0.23828-2.7617 0.60156-4.0781 0.83984-0.60156 0.12109-1.1992 0.35938-1.8008 0.60156 0.96094 7.6797-1.3203 14.641-4.6797 21.121-5.0391 9.7188-11.762 18.238-20.281 25.32-5.6406 4.6797-12.121 7.8008-19.32 9.1211-9.4805 1.8008-18.961 1.8008-28.32-0.12109-5.5195-1.1992-11.039-3-16.801-4.6797-0.12109 0.23828-0.71875 0.71875-1.1992 1.1992-2.1602 2.3984-4.3203 4.8008-6.6016 7.0781-3.7188 3.6016-7.8008 6.8398-12.84 8.3984-10.801 3.2383-21.121 2.5195-30.84-3.4805-2.0391-1.1992-4.0781-2.5195-5.8789-3.6016-21.238 15.961-43.441 20.52-67.68 6.9609-3.7188 8.6406-8.7617 16.199-17.52 20.281-8.6406 3.9609-17.641 5.1602-27.121 2.1602v210.96c0.96094-1.3203 1.8008-2.1602 2.5195-3.1211 23.762-31.32 47.762-62.398 73.078-92.52 14.762-17.52 29.762-34.801 45.84-51 12.359-12.359 25.078-24.238 39.121-34.68 10.441-7.6797 21.48-13.922 33.961-17.762 8.7617-2.6406 17.641-3.8398 26.762-2.3984 7.5586 1.1992 14.52 4.1992 21.121 8.0391 20.879 11.879 39 27.238 54.602 45.48 23.281 27.238 45.602 55.078 66.84 84 31.801 43.32 62.281 87.48 92.039 132.12 0.35938 0.22656 0.83984 0.82422 1.4414 1.6641z" fill="#e4f9f4"/>
</svg>
