<?xml version="1.0" encoding="UTF-8"?>
<svg width="1200pt" height="1200pt" version="1.1" viewBox="0 0 1200 1200" xmlns="http://www.w3.org/2000/svg">
 <path d="m958.92 370.32h-717.84c-3.3125 0-6 2.6875-6 6v300c-0.12109 0.75391-0.12109 1.5234 0 2.2812v158.4c0 1.5898 0.63281 3.1172 1.7578 4.2422s2.6523 1.7578 4.2422 1.7578h717.84c1.5898 0 3.1172-0.63281 4.2422-1.7578s1.7578-2.6523 1.7578-4.2422v-460.68c0-1.5898-0.63281-3.1172-1.7578-4.2422s-2.6523-1.7578-4.2422-1.7578zm-711.84 312h-0.003906c23.508-10.953 46.387-23.211 68.523-36.719 22.469-12.043 42.754-27.785 60-46.562 13.922-16.922 24-36.719 40.199-51.48 12.031-11.645 25.547-21.648 40.199-29.758 2.6133 1.8594 5.6055 3.1289 8.7617 3.7188 4.2305 16.391 15.66 29.98 31.078 36.961l-3.8398 15.961-10.559 1.8008v-0.003907c-2.5391 0.39062-4.5312 2.3828-4.9219 4.9219-37.199 5.2812-84 21.238-84 71.281v48.602l-94.68-0.003907c-16.801 0-33.84 0-50.762-0.71875zm216-174.72v0.71875h-0.003906c-2.7383-1.875-4.3945-4.9609-4.4375-8.2812 0.003906-3.3281 1.668-6.4336 4.4375-8.2773zm28.078-75.602c1.8125-0.93359 3.4102-2.2422 4.6797-3.8398 8.832-6.3281 19.668-9.2305 30.48-8.1602 5.75-0.058594 11.484 0.66797 17.039 2.1602 4.9297 1.9023 10.098 3.1133 15.359 3.6016 4.1289 0.054687 8.1484-1.3008 11.402-3.8398 0.83984 1.9219 1.5586 3.8398 2.5195 5.6406v-0.003906c1.0547 2.0117 3.2773 3.125 5.5195 2.7617-0.14453 9.0469-3.125 17.816-8.5195 25.078-3.2188 3.832-7.3438 6.8047-12 8.6406l-2.1602 0.71875-2.2812 0.71875v0.003907c-1.6953 0.44531-3.418 0.76562-5.1602 0.96094l-2.6406 0.71875h-4.1992c-1.3516 0.18359-2.7266 0.18359-4.0781 0h-2.043c-1.0117-0.19922-1.9844-0.5625-2.8789-1.082-1.3789-0.41797-2.6758-1.0664-3.8398-1.918-1.1797-0.92188-2.5234-1.6133-3.9609-2.0391h-6.4805l-1.5586 0.96094v-0.003906c-1.168 0.83594-2.4141 1.5586-3.7188 2.1602l-2.5195 1.3203-2.5195 1.4414-1.9219 0.71875-3.9609 1.3203c-8.5547 2.3242-17.598 2.1133-26.039-0.59766-0.83984 0-1.3203-1.6797-1.5586-3.8398-0.67188-8.1211 0.35156-16.297 3-24 1.0781-3.3594 3.3594-10.32 7.8008-10.199 1.918-0.12109 3.5977 1.1992 6.2383 0.59766zm237.84 57.238c8.5312 1.4062 16.953 3.4102 25.199 6h-3.1211c-6.4805 0-12.961-0.83984-19.559-1.6797-0.83594-0.74609-1.8867-1.207-3-1.3203l-37.441-5.0391v-50.398c9.457 2.3984 17.844 7.875 23.84 15.566 5.9961 7.6914 9.2617 17.16 9.2812 26.914 0.058593 1.0781 0.058593 2.1602 0 3.2383-0.089844 2.9844 1.9062 5.6289 4.8008 6.3594zm67.199 180-0.83984 0.71875-1.6797 0.96094v0.003906c-0.76563 0.42969-1.5703 0.79297-2.3984 1.0781h-1.4414c-0.875 0.11328-1.7617 0.11328-2.6406 0-0.71875 0.058594-1.4414 0.058594-2.1602 0h-1.6797c-3.4883-1.1406-6.4883-3.4219-8.5195-6.4805v-0.71875c-1.6367-2.3984-3.5273-4.6094-5.6406-6.6016-2.8594-2.3438-6.0039-4.3203-9.3594-5.8789-2.3867-1.1719-4.6758-2.5352-6.8398-4.082l-2.6406-2.2812v0.003907c-1.1328-1.2031-2.1758-2.4844-3.1211-3.8398-0.32031-0.45312-0.60156-0.9375-0.83984-1.4414-0.84766-0.70703-1.6484-1.4688-2.3984-2.2812-1.8008-3.7188-2.8789-7.6797-4.4414-12-0.71875-1.6797-1.5586-3.7188-2.6406-5.8789h0.003906c-2.4375-5.2656-5.1602-10.395-8.1602-15.359l30.359-1.3203c7.0664-1.0391 14.258 0.72656 20.039 4.9219 12 9.5117 20.453 22.781 24 37.68 1.7852 8.3281-0.84766 16.988-6.9609 22.918zm-141.96 161.76 4.4414-60.719 31.32-21.359c1.875-1.3828 2.8086-3.707 2.3984-6l54.84-31.68v-0.003907c0.91016-0.53906 1.7578-1.1836 2.5234-1.918v121.68zm-102.12 0-4.5586-64.441c-0.12891-1.8438-1.1016-3.5273-2.6367-4.5586l-30.121-20.52v-0.71875l7.0781-28.801v-0.83984-0.71875c8.6406 1.1992 17.281 2.6406 18.961 3.2383 1.6328 0.77734 3.5273 0.77734 5.1602 0 2.4219-1.1758 4.9023-2.2188 7.4414-3.1211h1.4414-0.003906c4.5117-0.097656 8.9727-0.94922 13.199-2.5195l2.1602 1.3203c2.5195 1.1992 4.9219 2.3984 7.5586 3.3594h0.003906c2.9805 1.0078 6.0273 1.8125 9.1211 2.3984h1.9219-0.003906c2.3555 0.17969 4.7227 0.17969 7.082 0h2.2812-0.003906c3.3438 0.03125 6.6836-0.29297 9.9609-0.95703 2.8867-0.61719 5.7344-1.418 8.5195-2.4023 4.5977-1.6562 8.957-3.918 12.961-6.7188h0.60156l5.7578 3h1.3203l4.4414 1.6797h1.0781l3.2383 1.3203 1.8008 0.83984c0.87109 0.53125 1.8633 0.82031 2.8828 0.83984 7.1133-0.14063 14.211-0.78125 21.238-1.918v1.4414l7.0781 28.68-29.637 21.117c-1.4648 1.0781-2.3867 2.7461-2.5195 4.5586l-4.6797 64.441zm-116.76 0-7.1992-99.719h24.961v99.719zm42.359-233.28 4.1992 44.16h0.007813c0.21875 2.2383 1.6484 4.1719 3.7188 5.043 0.75 0.16797 1.5273 0.16797 2.2812 0 1.4102-0.003906 2.7734-0.51562 3.8398-1.4414l31.922-26.52 13.32 11.039h-0.003906c-12.504 6.0273-21.199 17.875-23.195 31.613-1.9961 13.738 2.9648 27.57 13.234 36.906l-8.3984-1.1992c-2.6602-0.36328-5.2266 1.1172-6.2422 3.6016l-44.398-25.441c-4.6602-2.6602-10.188-3.3516-15.359-1.9219-4.5508 1.1992-8.5352 3.957-11.258 7.7969-2.7188 3.8398-4.0039 8.5156-3.6211 13.203h-28.203v-40.078c0-43.32 52.441-54.48 68.16-56.762zm-2.3984-113.76v-1.4414h1.0781l2.3984 0.60156 0.007812 0.003906c2.5781 0.45703 5.1836 0.73828 7.8008 0.83984h2.1602c3.2148 0.0625 6.4297-0.17969 9.5977-0.72266h1.3203c2.7656-0.53516 5.4922-1.2578 8.1602-2.1602l2.1602-1.0781 3.2383-1.4414c2.332-0.875 4.6172-1.875 6.8398-3l2.3984-1.5586s0.60156 0 1.4414 0.83984h0.003906c1.4492 1.168 3.1211 2.0273 4.918 2.5195h1.5586c0.83984 0.054687 1.6836 0.054687 2.5234 0l4.1992 0.83984c2.5117 0.30078 5.0469 0.30078 7.5586 0 4.043-0.55859 8.0508-1.3594 12-2.3984 2.1367-0.53906 4.2266-1.2617 6.2422-2.1602v33.121c-0.003906 8.7148-2.582 17.234-7.4062 24.492-4.8242 7.2578-11.684 12.93-19.715 16.305-4.918 2.0352-10.16 3.1719-15.48 3.3633-4.5586 0-11.039-1.4414-14.762-2.1602l-1.5586-0.12109c-8.2969-3.2109-15.426-8.8633-20.441-16.215-5.0156-7.3477-7.6797-16.047-7.6367-24.945zm117.6 18.121h0.003906c5.3711 1.4336 10.883 2.2812 16.438 2.5234h7.8008c-2.4141 3.5352-3.7109 7.7148-3.7188 12 0.019532 4.8242 1.6328 9.5039 4.582 13.324 2.9492 3.8164 7.0742 6.5547 11.738 7.793 1.1445 15.367 9.1133 29.414 21.719 38.281l-6 18c-2.1055-0.011719-4.0664 1.082-5.1602 2.8789l-1.0781 1.9219h-0.003907c-23.043-8.9766-46.703-16.277-70.797-21.84-0.58984-0.36328-1.2422-0.60938-1.9219-0.72266l-10.559-1.8008-7.0781-18.719h-0.003906c11.898-7.2539 20.73-18.605 24.84-31.918 5.293-0.67188 10.16-3.2461 13.695-7.2422 3.5312-3.9961 5.4883-9.1445 5.5078-14.48zm-16.32 8.2812 0.003906-16.559c2.7227 1.8711 4.3438 4.9727 4.3203 8.2773 0 3.3008-1.6133 6.3945-4.3203 8.2812zm53.52 15.602h0.003906c-2.625-1.8359-4.1953-4.8359-4.1992-8.0391-0.042969-3.3398 1.6328-6.4688 4.4375-8.2812v7.8008zm41.883 58.801h1.1992c2.9727 0.51562 5.9844 0.79688 9 0.83984h0.96094c3.1914-0.10547 6.3633-0.50781 9.4805-1.2031h1.3203c2.9922-0.72266 5.9219-1.6836 8.7578-2.8789h0.71875l8.3984 17.641v0.60156h0.003906c-1.1875 2.2812-2.6367 4.4141-4.3203 6.3594h-0.71875c-1.7305 1.8984-3.707 3.5508-5.8789 4.918h-0.72266c-2.2812 1.3242-4.6953 2.4062-7.1992 3.2422-2.6992 0.75-5.4805 1.1523-8.2812 1.1992-2.918-0.027344-5.8203-0.43359-8.6406-1.1992l-2.5195-1.1992v-0.003906c-1.8594-0.55078-3.6367-1.3594-5.2773-2.3984-0.89453-0.61328-1.7344-1.2969-2.5195-2.0391-1.4688-1.0312-2.8359-2.1953-4.082-3.4805-0.81641-0.92969-1.5391-1.9336-2.1602-3-0.82812-1.0469-1.5547-2.1719-2.1602-3.3594l5.8789-17.52c2.8086 1.4258 5.7422 2.5898 8.7617 3.4805zm45.359 27.238v-0.71875c1.4414 2.5195 3 4.9219 4.3203 7.4414l2.1602 3.8398c0.96094 1.8008 1.6797 3.3594 2.2812 4.6797v0.71875c0 1.1992 0.96094 2.1602 1.1992 2.8789 1.0781 3 1.9219 6.1211 3.1211 9 1.2773 3 2.8008 5.8906 4.5586 8.6406 0.59375 0.64844 1.1562 1.332 1.6797 2.0391 1.3203 1.7773 2.8086 3.4258 4.4414 4.9219l1.1992 1.4414 2.2812 1.5586 1.4414 1.1992 2.5195 4.3203v13.559h-0.003906c-3.1641-2.5312-7.0195-4.0586-11.062-4.3789-4.043-0.32031-8.0898 0.57812-11.617 2.5781l-43.559 26.281c-0.82422-3.0352-3.8906-4.8867-6.9609-4.1992-8.6406 1.8008-19.199 3.8398-22.922 4.0781l-3.6016-1.5586h-1.0781l-4.5586-1.9219h-0.96094l-2.1602-0.83984c2.0117-2.2656 3.8555-4.6719 5.5234-7.1992l1.3203-2.2812c1.1562-1.9336 2.1992-3.9375 3.1172-6l1.0781-2.5195h0.003906c1.1172-2.8125 2.0391-5.6992 2.7578-8.6367 0.88672-3.9414 1.3711-7.9648 1.4414-12-0.03125-3.7539-0.43359-7.4922-1.1992-11.16-0.19141-1.2305-0.51562-2.4375-0.96094-3.6016-0.59375-2.3984-1.3125-4.7617-2.1602-7.082l-1.9219-3.9609c-1.0781-1.9219-2.0391-3.9609-3.3594-5.8789l-2.7617-3.7188-2.3984-3.2383 6.6016-11.16v0.71875c0.93359 1.3711 1.9336 2.6914 3 3.9609l1.3203 1.4414 2.7617 2.7617 1.6797 1.4414 2.8789 2.0391 1.9219 1.3203 3.1211 1.6797 2.0391 0.96094 3.3594 1.3203 2.1602 0.60156 3.8398 0.83984h1.8008l-0.003907-0.007812c1.9961 0.17969 4.0039 0.17969 6 0 3.0312-0.054688 6.0469-0.41797 9-1.0781h1.5625c2.7617-0.70703 5.4531-1.6719 8.0391-2.8828l1.4414-0.83984h-0.003906c2.6641-1.2969 5.1602-2.9102 7.4414-4.7969 2.5234-1.9375 4.8164-4.1484 6.8398-6.6016zm-27.84 118.92-4.1992-16.68 48-27.48c1.8984-1.0547 4.1289-1.3555 6.2383-0.83984 2.0781 0.58594 3.8438 1.9648 4.9219 3.8398 1.1602 1.8633 1.4648 4.1328 0.83984 6.2383-0.50781 2.1484-1.9062 3.9805-3.8398 5.0391zm-140.16-105.6-17.758-14.879 21.359-24 5.6406 0.60156-2.7617 29.879c-0.82422 0.86328-1.5859 1.7852-2.2812 2.7578-0.71875 0.83984-1.5586 1.5586-2.1602 2.3984l-0.71875 0.96094s-0.96094 0.96094-1.3203 2.0391zm-25.68-24v-37.32c4.9883-0.019531 9.9531-0.70703 14.762-2.0391l6.3594 16.801zm91.441 1.8008c-5.7539-1.9961-11.793-3.0508-17.883-3.1211-9.9844 0.039062-19.789 2.6875-28.438 7.6797l1.6797-17.879c15.094 3.6445 29.992 8.0469 44.641 13.199zm24 72.719c-0.71875 1.6602-1.5625 3.2656-2.5195 4.8008-0.3125 0.74219-0.67578 1.4648-1.082 2.1602-1.332 2.1055-2.8164 4.1094-4.4414 6-1.4766 1.6797-3.082 3.2422-4.7969 4.6797-0.52344 0.14062-1.0156 0.38672-1.4414 0.71875-3.6406 2.8906-7.6836 5.2344-12 6.9609l-6.4805 1.4414c-3.3594 0-6.6016 0.96094-8.6406 1.1992s-7.0781-0.96094-10.32-1.5586v-0.003907c-1.6328-0.23828-3.2422-0.64062-4.7969-1.1992-1.1523-0.40625-2.2734-0.88672-3.3633-1.4375h-0.83984l-4.0781-2.1602c-1.4414-0.96094-3-1.8008-4.3203-2.8789h-1.0781v-0.003906c-7.8008-6.2734-13.359-14.902-15.844-24.598v-1.5586-0.003906c0.80469-2.5938 1.8086-5.1211 3-7.5586 0.27344-0.625 0.59375-1.2266 0.96094-1.8008 1.3984-2.7617 3.1289-5.3438 5.1602-7.6797 2.125-2.4375 4.4961-4.6523 7.082-6.5977h0.60156-0.003906c2.8164-2.0898 5.8789-3.8242 9.1211-5.1602 13.422-5.7383 28.785-4.668 41.281 2.8789 2.6797 1.5547 5.1758 3.4062 7.4375 5.5195l2.1602 2.3984c1.4102 1.3984 2.7344 2.8828 3.9609 4.4414 0.71875 0.96094 1.1992 2.0391 1.9219 3.1211 0.99219 1.4922 1.875 3.0547 2.6367 4.6797 0.54687 1.1602 0.98828 2.3633 1.3203 3.5977 0.60938 1.4492 1.1289 2.9336 1.5625 4.4414 0 1.3203-0.83984 2.6406-1.1992 3.9609-0.36328 1.3203-0.12109 0.23828-0.48047 1.0781zm-10.68-51.121c2.4062 2.2656 4.5391 4.8008 6.3594 7.5625 0.58984 0.87891 1.1094 1.8008 1.5586 2.7578 1.1445 1.8438 2.1445 3.7695 3 5.7617-0.85547-0.69922-1.6602-1.4609-2.3984-2.2812-0.70313-0.74219-1.4648-1.4219-2.2812-2.0391-2.582-2.3945-5.3945-4.5234-8.3984-6.3594-15.816-9.5117-35.23-10.848-52.203-3.6016-1.9219 0.83984-3.9609 1.8008-5.8789 2.8789-2.207 1.2188-4.332 2.582-6.3594 4.082l-4.1992 3.4805c-0.72656 0.5-1.3711 1.1094-1.9219 1.8008l-2.1602 2.1602c0-1.5586 1.3203-3.1211 2.0391-4.5586l0.003906-0.003906c1.2656-2.3711 2.7539-4.6211 4.4375-6.7188 1.4062-1.9648 3.0156-3.7734 4.8008-5.4023 8.5234-8.1211 19.848-12.648 31.621-12.648 11.773 0 23.094 4.5273 31.617 12.648zm2.3984-13.32c-3.7305-2.6914-7.7539-4.9453-12-6.7188l12.719 4.6797zm-136.8-25.078 21.84 24-23.039 19.078-4.0781-42.359zm-29.641 120c-0.96484-2.043-3.0195-3.3477-5.2773-3.3594l-5.3984-3h-0.003906c-1.9062-1.0938-3.2891-2.9141-3.8398-5.0391-0.51562-2.1133-0.21484-4.3398 0.83984-6.2422 1.0938-1.9062 2.9141-3.2891 5.043-3.8398h2.1602c1.4297 0 2.8359 0.375 4.0781 1.082l48 27.48-4.0781 16.68zm0.71875 18.719v-4.4414l26.883 15.844v19.559l17.641 25.801v49.801h-44.52zm236.04-156h0.003906c-12.109 6.7305-26.848 6.6836-38.914-0.125-12.07-6.8047-19.734-19.391-20.246-33.234 0.066406-0.51563 0.066406-1.043 0-1.5586v-41.641l78.84 12v29.879c0.027344 14.164-7.4648 27.273-19.68 34.441zm32.641-54.84h0.003906c2.707 1.8867 4.3203 4.9805 4.3203 8.2812 0.023437 3.3047-1.5977 6.4062-4.3203 8.2812zm-135.24-31.918c10.352 3.6367 20.988 6.4062 31.801 8.2773v5.8789l-3.9609 1.3203v0.003907c-3.9688-3.5625-9.0703-5.6055-14.398-5.7617h-13.316l-4.9219-1.3203c-1.5938-0.42578-3.293-0.16406-4.6836 0.71875-3.1055-4.8867-8.0273-8.3398-13.68-9.5977v-6.4805zm164.28 348.72-1.0781-7.8008v-154.08l2.5195 3.2383c1.8164 2.6523 3.9492 5.0703 6.3594 7.1992 0.63672 0.46875 1.3203 0.87109 2.0391 1.2031 0.55078 0.46484 1.1562 0.87109 1.8008 1.1992l2.8789 1.3203h1.082c1.3555 0.46094 2.7695 0.74609 4.1992 0.83984 2.0273 0.29688 4.0898 0.29688 6.1211 0l3.2383-0.12109c1.4727-0.32812 2.9141-0.76953 4.3203-1.3203h1.3203l-8.0391 148.32zm47.16-159c4.7305-8.5469 6.3438-18.473 4.5586-28.078-3.1836-12.641-9.3555-24.328-18-34.082-6.9297-9.6836-17.586-16.031-29.398-17.52-11.457-0.12109-22.914 0.35938-34.32 1.4414h-10.559l-8.8789-18.84h-0.003906c10.07-7.7109 16.949-18.863 19.32-31.32 6.7148-1.3867 12.395-5.8242 15.359-12 34.32 19.559 62.879 48 93.961 72 16.129 12.773 33.836 23.422 52.68 31.68 18.938 7.8242 38.383 14.359 58.203 19.559v42.84c-15.121 0.60156-30.359 0.60156-45.48 0.83984l-98.879 0.83984zm142.92-289.68v259.8c-18.992-4.9844-37.598-11.32-55.684-18.961-18.672-8.5781-36.172-19.508-52.078-32.52-31.078-24.719-60-53.16-96-72-0.84766-4.582-3.1133-8.7812-6.4805-12h7.5586l44.281 1.1992c2.9258-0.019532 5.4141-2.1523 5.8789-5.0391 0.51562-2.9102-1.1641-5.7617-3.957-6.7227l-37.801-12c-7.5938-2.4609-15.328-4.4648-23.16-6-0.46484-17.758-9.3281-34.246-23.883-44.434-14.555-10.191-33.078-12.875-49.926-7.2344-16.848 5.6367-30.023 18.934-35.512 35.828-7.7383-0.69141-15.512-0.97266-23.281-0.83984l-24 0.71875v0.003906c9.5312-13.785 13.082-30.84 9.8398-47.281-0.83984-5.0391-6.7188-5.0391-9.8398-2.3984-0.60156-1.6797-1.1992-3.4805-1.6797-5.2812-0.57422-2.8594-3.0859-4.9141-6-4.9141-2.9141 0-5.4258 2.0547-6 4.9141-0.40234 2.3359-1.8477 4.3672-3.9258 5.5117-2.0781 1.1406-4.5625 1.2773-6.7539 0.36719-5.7617-1.3203-11.16-3.4805-17.039-4.3203-11.164-1.5859-22.531-1.0156-33.48 1.6797-4.2695 1.0156-8.3281 2.7617-12 5.1602-1.1523 0.74609-2.2344 1.5859-3.2383 2.5195-0.5 0.37891-0.94531 0.82422-1.3203 1.3203-0.95703-0.11328-1.9258-0.11328-2.8828 0-10.68 0-16.199 10.441-19.199 19.078v0.003907c-3.3477 10.121-4.332 20.879-2.8789 31.441 0.19922 1.2188 0.60547 2.3945 1.1992 3.4766v5.6406c-6.1445 1.6016-11.293 5.7812-14.121 11.465-2.832 5.6797-3.0625 12.309-0.63672 18.176-13.633 7.7539-26.352 17.012-37.922 27.602-15.098 15.059-28.461 31.766-39.84 49.797-16.734 19.895-37.098 36.426-60 48.723-20.641 12.602-42 24-63.719 34.32v-286.8zm-705.84 329.88c16.922 0.96094 33.961 0 50.762 0.71875h100.8l8.5195 117.96h-160.08zm554.52 118.8 6.2383-120 99.602-0.83984c15.121 0 30.359 0 45.48-0.83984l0.003906 121.68zm262.56-459c0.35547-3.3008-1.9883-6.2852-5.2812-6.7188l-24.719-2.8789v-36.004c0-1.5898-0.63281-3.1172-1.7578-4.2422s-2.6523-1.7578-4.2422-1.7578h-347.16l-472.44-55.438c-1.5938-0.20313-3.1992 0.24219-4.4648 1.2344-1.2617 0.99219-2.0742 2.4492-2.2539 4.043l-6 50.641h-24c-3.3125 0-6 2.6875-6 6v247.56l-24 206.76-6 46.797c-0.35547 3.3008 1.9883 6.2852 5.2812 6.7188l24.719 2.8789v50.402c0 1.5898 0.63281 3.1172 1.7578 4.2422s2.6523 1.7578 4.2422 1.7578h475.32l344.28 40.801h0.71875c1.3398 0.027344 2.6484-0.39844 3.7188-1.1992 1.207-1.0586 2.0156-2.5 2.2812-4.082l4.1992-36h25.801c1.5898 0 3.1172-0.63281 4.2422-1.7578s1.7578-2.6523 1.7578-4.2422v-261.96zm-42 509.88h-844.32v-549h844.32v549.36z" fill="#e4f9f4"/>
</svg>
