<?xml version="1.0" encoding="UTF-8"?>
<svg width="1200pt" height="1200pt" version="1.1" viewBox="0 0 1200 1200" xmlns="http://www.w3.org/2000/svg">
 <path d="m469.09 1185.7v-465.68l404.95 413.91c-82.145 42.246-175.3 66.094-274.04 66.094-44.965 0-88.77-4.9453-130.91-14.324zm-64.441-18.195c-130.77-45.008-241.09-133.94-313.35-249.17l319.57-319.57zm-345.68-307.76c-37.797-78.59-58.973-166.68-58.973-259.72 0-43.992 4.7344-86.883 13.723-128.18h441.73zm-27.473-452.09c42.531-125.73 125.61-232.79 233.66-305.59l311.56 311.56zm290.53-339.5c83.102-43.52 177.66-68.133 277.97-68.133 35.344 0 69.973 3.0547 103.64 8.918v449.27zm445.9-44.312c131.15 38.156 243.75 119.88 321.09 228.46l-327.17 327.17zm356.41 284.29c48.195 86.395 75.66 185.94 75.66 291.89 0 36.297-3.2227 71.844-9.3984 106.36h-473.33zm50.965 462.81c-40.43 136.29-127.96 252.32-243.74 329.22l-335.56-335.56z" fill="#e4f9f4" fill-rule="evenodd"/>
</svg>
