<?xml version="1.0" encoding="UTF-8"?>
<svg width="1200pt" height="1200pt" version="1.1" viewBox="0 0 1200 1200" xmlns="http://www.w3.org/2000/svg">
    <path d="m597.73 125.02c-259.82 0-470.46 210.62-470.46 470.45 0 259.82 210.62 470.46 470.46 470.46 259.84 0 470.46-210.64 470.46-470.46 0-259.82-210.62-470.45-470.46-470.45zm-185.69 268.89c41.785 0 75.66 33.863 75.66 75.66 0 41.797-33.875 75.672-75.66 75.672-41.785 0-75.672-33.875-75.672-75.672 0-41.793 33.875-75.66 75.672-75.66zm440.59 378.17c-1.1758 4.6445-2.6992 9.457-4.4023 14.773-2.2578 5.375-5.2305 10.789-8.3867 16.934-3.168 6.1797-7.1289 12.266-11.27 19.117-2.0508 3.5898-4.4023 6.4805-6.8047 9.5156-2.4492 3.0703-4.9453 6.2148-7.5 9.4336-5.1953 6.4336-10.906 12.938-17.102 19.477-6.4922 5.9648-13.465 12-20.902 17.988-7.3555 6.168-15.254 12.098-23.93 16.945-8.5547 5.2305-17.531 10.262-26.855 15.203-19.129 8.0273-39.422 16.754-61.164 20.785-21.516 5.5781-44.074 6.8633-66.562 7.9219-22.5-1.0312-45.059-2.2305-66.602-7.7539-21.758-3.9844-42.035-12.758-61.199-20.746-9.3242-4.8945-18.324-9.9375-26.879-15.18-4.2617-2.6289-8.5312-5.0273-12.492-7.9453-3.9258-3-7.7773-5.9297-11.461-9-7.4414-5.9883-14.41-12.035-20.914-18-6.2031-6.5391-11.902-13.066-17.125-19.488-5.0273-6.6836-10.273-12.18-14.113-18.863-3.8633-6.6484-7.5977-12.602-10.633-18.648-3.0234-6.0469-5.9648-11.375-8.1953-16.738-2.0273-5.6055-3.8281-10.668-5.1602-15.469-5.6523-18.781-6.6133-30.312-6.6133-30.312s12.504 0.625 30.395 3.1328c4.5703 0.50391 9.2539 1.3789 14.375 2.125 5.4844 0.28906 10.883 1.1055 16.754 1.6094 11.531 1.3086 23.555 3.2266 36.816 3.8281 6.5156 0.48047 12.961 1.2617 19.465 2.0391 6.793 0.22656 13.586 0.5625 20.293 1.1289 3.3828 0.21484 6.6836 0.625 10.02 0.97266 3.3945 0.10938 6.8398 0.20312 10.32 0.30078 6.9102 0.16797 13.691 0.67188 20.426 1.3438 13.98-0.43359 27.395 1.3438 41.281 0.94922 13.68 1.0664 27.504 0 41.207 0.96094 13.727-0.9375 27.551 0.22656 41.219-0.80469 13.906 0.45703 27.324-1.3672 41.34-0.875 6.7578-0.67188 13.523-1.1641 20.438-1.332 3.4062-0.20312 6.9375-0.097656 10.332-0.30078 3.3242-0.37109 6.6602-0.73047 10.043-0.96094 6.707-0.57422 13.488-0.92578 20.293-1.1406 6.5039-0.79297 12.938-1.5859 19.465-2.0625 6.3945-0.46875 13.246-0.91016 18.875-1.5352 5.8438-0.49219 11.352-1.3672 17.113-1.7539 5.7461-0.39453 11.102-1.1055 16.559-1.4023 5.4375-1.0195 10.391-2.1484 15.133-2.8086 18.539-3.1562 30.539-3.3945 30.539-3.3945-0.003906-0.015625-1.418 11.902-6.4336 30.031zm-69.215-226.84c-41.785 0-75.66-33.875-75.66-75.672 0-41.797 33.863-75.66 75.66-75.66s75.672 33.863 75.672 75.66c0 41.797-33.879 75.672-75.672 75.672z"
          fill="#4DCE44FF"/>
</svg>
