<svg xmlns="http://www.w3.org/2000/svg" xmlns:xlink="http://www.w3.org/1999/xlink" width="52.622" height="37" viewBox="0 0 52.622 37">
  <defs>
    <clipPath id="clip-path">
      <rect width="52.622" height="37" fill="none"/>
    </clipPath>
  </defs>
  <g id="Repeat_Grid_3" data-name="Repeat Grid 3" clip-path="url(#clip-path)">
    <g transform="translate(-11828 -16568)">
      <g id="Component_2_7" data-name="Component 2 – 7" transform="translate(11828 16568)">
        <g id="Rectangle_14" data-name="Rectangle 14" transform="translate(6 3.849)" fill="#fff" stroke="#707070" stroke-width="1">
          <rect width="39" height="29" stroke="none"/>
          <rect x="0.5" y="0.5" width="38" height="28" fill="none"/>
        </g>
        <path id="youtube" d="M66.455,69.789A6.612,6.612,0,0,0,61.8,65.107C57.7,64,41.244,64,41.244,64s-16.455,0-20.559,1.107a6.612,6.612,0,0,0-4.652,4.682c-1.1,4.13-1.1,12.748-1.1,12.748s0,8.618,1.1,12.748a6.514,6.514,0,0,0,4.652,4.608C24.789,101,41.244,101,41.244,101S57.7,101,61.8,99.893a6.514,6.514,0,0,0,4.652-4.608c1.1-4.13,1.1-12.748,1.1-12.748S67.555,73.92,66.455,69.789ZM35.862,90.361V74.713l13.753,7.824Z" transform="translate(-14.933 -64)" fill="#e31c1c"/>
      </g>
    </g>
  </g>
</svg>
