<?xml version="1.0" encoding="UTF-8"?>
<svg width="1200pt" height="1200pt" version="1.1" viewBox="0 0 1200 1200" xmlns="http://www.w3.org/2000/svg">
 <g>
  <path d="m995.81 331.41h-791.62c-33.027 0-59.895-26.867-59.895-59.895v-106.96c0-33.027 26.867-59.895 59.895-59.895h791.62c33.027 0 59.895 26.867 59.895 59.895v106.96c-0.015625 33.016-26.867 59.895-59.895 59.895zm-791.62-201.38c-19.039 0-34.52 15.48-34.52 34.52v106.96c0 19.039 15.48 34.52 34.52 34.52h791.62c19.039 0 34.52-15.48 34.52-34.52v-106.96c0-19.039-15.492-34.52-34.52-34.52z"/>
  <path d="m604.15 1096.9c-124.72 0-232.89-7.0547-314.93-14.961-76.215-7.3477-132.67-71.852-128.54-146.84 0.011718-0.22656 0.027343-0.46484 0.054687-0.69141l64.492-587.97c0.77344-7.0547 7.1211-12.133 14.172-11.375 7.0547 0.77344 12.148 7.1211 11.375 14.172l-64.453 587.61c-3.1875 61.039 43.027 113.51 105.36 119.52 143.2 13.801 366.77 25.012 618.59 0.011719 62.465-6.1992 108.62-58.812 105.25-119.87l-66.332-587.24c-0.80078-7.0547 4.2812-13.414 11.32-14.215 7.0664-0.78516 13.414 4.2812 14.215 11.32l66.387 587.59c0.027344 0.22656 0.039063 0.46484 0.054687 0.69141 4.3867 75.012-52 139.71-128.35 147.28-109.62 10.887-213.92 14.965-308.67 14.965z"/>
  <path d="m806.29 853.64h-412.59c-36.734 0-66.625-29.879-66.625-66.613l-0.003906-257.91c0-36.734 29.879-66.625 66.625-66.625h412.59c36.734 0 66.613 29.895 66.613 66.625v257.91c0.003906 36.734-29.875 66.613-66.609 66.613zm-412.59-365.45c-22.559 0-40.922 18.359-40.922 40.922v257.91c0 22.559 18.359 40.922 40.922 40.922h412.59c22.559 0 40.922-18.359 40.922-40.922v-257.89c0-22.559-18.359-40.922-40.922-40.922h-412.59z"/>
  <path d="m600 275.46c-7 0-12.68-5.6797-12.68-12.68v-89.492c0-7 5.6797-12.68 12.68-12.68s12.68 5.6797 12.68 12.68v89.492c0 7-5.6797 12.68-12.68 12.68z"/>
  <path d="m423.24 275.46c-7 0-12.68-5.6797-12.68-12.68v-89.492c0-7 5.6797-12.68 12.68-12.68s12.68 5.6797 12.68 12.68v89.492c0.003906 7-5.6797 12.68-12.68 12.68z"/>
  <path d="m777.69 275.46c-7 0-12.68-5.6797-12.68-12.68v-89.492c0-7 5.6797-12.68 12.68-12.68s12.68 5.6797 12.68 12.68v89.492c0.003906 7-5.6797 12.68-12.68 12.68z"/>
  <path d="m246.48 275.46c-7 0-12.68-5.6797-12.68-12.68v-89.492c0-7 5.6797-12.68 12.68-12.68s12.68 5.6797 12.68 12.68v89.492c0 7-5.6797 12.68-12.68 12.68z"/>
  <path d="m953.52 275.46c-7 0-12.68-5.6797-12.68-12.68v-89.492c0-7 5.6797-12.68 12.68-12.68s12.68 5.6797 12.68 12.68v89.492c0 7-5.6797 12.68-12.68 12.68z"/>
  <path d="m600 782.24c-2.7734 0-5.5469-0.89453-7.8672-2.6914l-6.2812-4.8516c-57.852-44.785-92.785-71.812-113.16-107.97-19.586-34.668-17.238-62.066-11.812-78.945 6.6016-20.547 21.48-37.078 41.895-46.547 10.508-4.8672 21.906-7.332 33.895-7.332 25 0 48.094 10.508 63.348 27.879 15.254-17.375 38.348-27.879 63.348-27.879 11.988 0 23.375 2.4648 33.867 7.3203 20.426 9.4805 35.309 26 41.906 46.547 5.4258 16.879 7.7734 44.281-11.828 78.961-20.387 36.16-55.359 63.227-113.29 108.07l-6.1328 4.7461c-2.3359 1.8086-5.1094 2.6992-7.8828 2.6992zm-63.348-222.64c-8.2266 0-15.988 1.668-23.078 4.9453-13.828 6.4141-23.852 17.453-28.238 31.094-5.5352 17.199-2.1602 37.414 9.7344 58.453 17.68 31.348 48.762 55.574 104.93 99.055 56.172-43.48 87.254-67.719 104.92-99.039 11.895-21.055 15.266-41.266 9.7344-58.465-4.3867-13.641-14.414-24.68-28.238-31.094-7.0781-3.2812-14.84-4.9336-23.066-4.9336-22.359 0-43.133 12.398-51.691 30.84-2.1055 4.5352-6.6523 7.4414-11.652 7.4414s-9.5469-2.9062-11.652-7.4414c-8.5742-18.469-29.348-30.855-51.707-30.855z"/>
 </g>
</svg>
