<svg xmlns="http://www.w3.org/2000/svg" xmlns:xlink="http://www.w3.org/1999/xlink" width="153" height="157" viewBox="0 0 153 157">
  <defs>
    <clipPath id="clip-Logo">
      <rect width="153" height="157"/>
    </clipPath>
  </defs>
  <g id="Logo" clip-path="url(#clip-Logo)">
    <g id="noun-location-4750125-E4F9F5" transform="translate(-49.138 -37.508)">
      <path id="Path_172" data-name="Path 172" d="M74.906,553.322l1.4-5.979,6.262,1.471-1.4,5.979Z" transform="translate(-22.183 -439.037)" fill="#e4f9f4"/>
      <path id="Path_173" data-name="Path 173" d="M201.912,146.374l-7.061-56.122-3.421.731A110.977,110.977,0,0,1,153.9,92.211c-1.15-.106-2.35-.259-3.591-.442,5.428-9.443,10.194-19.583,10.194-26.142a28.12,28.12,0,0,0-56.24,0c0,4.858,2.635,11.692,6.2,18.744-1.092-.106-2.191-.218-3.2-.263-31.045-2.5-36.932,8.64-37.509,9.917L49.138,186.352l4.827-.954c.119-.025,12.842-2.479,33.943-1.482A248.163,248.163,0,0,1,136.363,191c.709.195,1.475.333,2.328.483a87.4,87.4,0,0,0,19.019,2.26,53.551,53.551,0,0,0,15.71-2.153,14.68,14.68,0,0,0,9.654-8.135l.107.063,17.146-29.088.084-.105a10.816,10.816,0,0,0,1.5-7.953Zm-45.56-47.5a119.6,119.6,0,0,0,32.995-.94l4.964,39.37-43.263-3.764ZM132.386,43.935a21.716,21.716,0,0,1,21.693,21.693c0,9.264-13.872,31.028-21.693,42.21-7.82-11.179-21.693-32.939-21.693-42.21a21.717,21.717,0,0,1,21.693-21.693ZM109.59,90.75c1.458.136,2.985.3,4.575.513a277.471,277.471,0,0,0,15.628,24l2.592,3.537,2.592-3.537c1.167-1.593,6.388-8.811,11.807-17.581,1.09.193,2.16.374,3.169.515l-5.323,34.787-42.847-3.729ZM75.7,96.568c.914-1.223,6.532-7.247,27.421-6.273l-7.785,38.4-26.281-2.287ZM85.466,177.4a181.158,181.158,0,0,0-27.978.977L67.649,132.74l26.4,2.3Zm51.281,7.112a256.115,256.115,0,0,0-44.792-6.753L100.5,135.6l43.156,3.755ZM183.3,170.675l-1.745-7.345a41.47,41.47,0,0,0,7.05-1.656Zm11.832-20.037-.144.22a4.733,4.733,0,0,1-.828.835c-2.624,2.2-7.676,4.965-16.808,5.624l-3.766.276,4.274,17.989a8.2,8.2,0,0,1-6.176,9.829c-7.676,2.369-17.461,2.407-28.617.316l7.012-45.816,45.06,3.921.459,3.643a4.542,4.542,0,0,1-.465,3.162Z" transform="translate(0 0)" fill="#e4f9f4"/>
      <path id="Path_174" data-name="Path 174" d="M595.488,186.763l5.3,2.788-1.013-5.905,4.29-4.182-5.929-.861-2.652-5.373-2.651,5.373-5.93.861,4.291,4.182-1.013,5.905Z" transform="translate(-463.101 -116.841)" fill="#e4f9f4"/>
      <path id="Path_175" data-name="Path 175" d="M99.4,300.229c14.813-10.632,34.492-8.809,34.712-8.783l.648-6.407c-.918-.085-23.225-2.2-40.176,10.748l-.912.7-5.256,22.347,6.262,1.471Z" transform="translate(-33.814 -213.019)" fill="#e4f9f4"/>
      <path id="Path_176" data-name="Path 176" d="M849.693,86.3l5.986,2.358a42.481,42.481,0,0,0-5.847-41.415l-5.105,3.923a36.078,36.078,0,0,1,4.967,35.132Z" transform="translate(-685.118 -8.377)" fill="#e4f9f4"/>
      <path id="Path_177" data-name="Path 177" d="M556.755,128.482a17.7,17.7,0,1,0-17.705,17.7A17.723,17.723,0,0,0,556.755,128.482Zm-28.965,0a11.264,11.264,0,1,1,11.261,11.264A11.273,11.273,0,0,1,527.79,128.482Z" transform="translate(-406.666 -63.079)" fill="#e4f9f4"/>
    </g>
  </g>
</svg>
