<svg xmlns="http://www.w3.org/2000/svg" xmlns:xlink="http://www.w3.org/1999/xlink" width="365" height="89" viewBox="0 0 365 89">
  <defs>
    <clipPath id="clip-LogoTypo">
      <rect width="365" height="89"/>
    </clipPath>
  </defs>
  <g id="LogoTypo" clip-path="url(#clip-LogoTypo)">
    <g id="Group_214" data-name="Group 214" transform="translate(-14770.575 2645.815)">
      <path id="Path_178" data-name="Path 178" d="M146.235,95.63a32.5,32.5,0,0,1-12.42-2.25,20.245,20.245,0,0,1-8.775-6.66,18.2,18.2,0,0,1-3.465-10.62h16.38a7.948,7.948,0,0,0,2.43,5.355,7.811,7.811,0,0,0,5.4,1.845,8.445,8.445,0,0,0,5.4-1.575,5.267,5.267,0,0,0,1.98-4.365,5.167,5.167,0,0,0-1.575-3.87,12.706,12.706,0,0,0-3.87-2.52,62.249,62.249,0,0,0-6.525-2.25,71.047,71.047,0,0,1-9.99-3.78,18.458,18.458,0,0,1-6.66-5.58,15.548,15.548,0,0,1-2.79-9.63q0-8.82,6.39-13.815t16.65-5q10.44,0,16.83,5t6.84,13.905h-16.65a6.512,6.512,0,0,0-2.25-4.815,7.926,7.926,0,0,0-5.31-1.755,6.618,6.618,0,0,0-4.5,1.485,5.356,5.356,0,0,0-1.71,4.275,5.3,5.3,0,0,0,2.88,4.77,47.211,47.211,0,0,0,9,3.69,83.234,83.234,0,0,1,9.945,3.96,18.933,18.933,0,0,1,6.615,5.49,14.7,14.7,0,0,1,2.79,9.27A18.191,18.191,0,0,1,166.53,86a19.225,19.225,0,0,1-7.965,7.02A27.267,27.267,0,0,1,146.235,95.63Zm72.54-63.81V44.15h-16.74V95h-15.39V44.15H169.9V31.82Zm32.22,63.81a32.974,32.974,0,0,1-16.335-4.14,30.948,30.948,0,0,1-11.79-11.565A32.322,32.322,0,0,1,218.5,63.23a32.082,32.082,0,0,1,4.365-16.65,31.046,31.046,0,0,1,11.79-11.52,34.3,34.3,0,0,1,32.67,0,30.4,30.4,0,0,1,11.7,11.52A32.606,32.606,0,0,1,283.3,63.23a32.583,32.583,0,0,1-4.32,16.695,30.716,30.716,0,0,1-11.7,11.565A32.724,32.724,0,0,1,250.995,95.63Zm0-14.04q7.56,0,12.105-5.04t4.545-13.32q0-8.37-4.545-13.365T250.995,44.87q-7.65,0-12.195,4.95t-4.545,13.41q0,8.37,4.545,13.365T250.995,81.59ZM318.675,95l-13.14-23.85h-3.69V95h-15.39V31.82h25.83a28.436,28.436,0,0,1,12.735,2.61,17.978,17.978,0,0,1,7.875,7.155A19.965,19.965,0,0,1,335.5,51.71a18.806,18.806,0,0,1-3.555,11.25,19.134,19.134,0,0,1-10.485,7.02L336.045,95Zm-16.83-34.74h9.54q4.23,0,6.345-2.07a7.813,7.813,0,0,0,2.115-5.85,7.569,7.569,0,0,0-2.115-5.67q-2.115-2.07-6.345-2.07h-9.54Zm92.07-28.44-21.87,42.3V95h-15.39V74.12l-21.87-42.3h17.46l12.24,26.46,12.15-26.46Z" transform="translate(14649 -2672)" fill="#e4f9f4"/>
      <path id="Path_180" data-name="Path 180" d="M216.858,93.839V55.7h-7.075V46.4h7.075V44.21q.088-8.944,5.515-13.788t15.315-4.845A50.906,50.906,0,0,1,252.1,28.164l-1.846,10.478A56.347,56.347,0,0,0,243.577,37a32.9,32.9,0,0,0-5.1-.373q-8.877,0-8.877,7.848V46.4h9.36V55.7H229.6V93.839Zm41.177,0H245.291V46.4h12.744Zm22.857-17.931L289.681,46.4H303.3l-19.116,54.8-1.055,2.5Q278.87,113,269.07,113a20.026,20.026,0,0,1-5.625-.833v-9.6l1.934.044a10.468,10.468,0,0,0,5.383-1.1,7.2,7.2,0,0,0,2.791-3.639l1.494-3.9L258.392,46.4h13.667Z" transform="translate(14832.271 -2670.392)" fill="rgba(228,249,244,0.54)"/>
    </g>
  </g>
</svg>
