<svg xmlns="http://www.w3.org/2000/svg" xmlns:xlink="http://www.w3.org/1999/xlink" width="40" height="36.68" viewBox="0 0 40 36.68">
  <defs>
    <clipPath id="clip-Wb-header-logo">
      <rect width="40" height="36.68"/>
    </clipPath>
  </defs>
  <g id="Wb-header-logo" clip-path="url(#clip-Wb-header-logo)">
    <g id="Group_68" data-name="Group 68" transform="translate(-309.188 -151.896)">
      <path id="Path_3" data-name="Path 3" d="M10740.685,24108.68h-10.265a4.02,4.02,0,0,1-3.6-2.162,4.348,4.348,0,0,1,0-4.316l15.586-28.043a4.1,4.1,0,0,1,5.749-1.557l-2.151,3.871-.06.111-.747,1.342-.07.137-1.162,2.086-.089.16-1.262,2.273-12.061,21.7h4.942l13.257-23.857.043.025q1.093-1.9,2.2-3.781l2.423,4.359-.918,1.65h0l-12.007,21.6h2.7l-2.524,4.4Z" transform="translate(-10417.063 -23920.443)" fill="#119da4" fill-rule="evenodd"/>
      <path id="Path_4" data-name="Path 4" d="M13577.335,25242.324h0l3.651-6.322,2.653,4.426-3.7,6.4,7.049,12.209a4.318,4.318,0,0,1-3.736,6.477H13564l2.537-4.395h0l4.34-7.523-.043-.025,3.959-6.857h0l2.537-4.4Zm-5.591,18.8h11.366l-5.683-9.846Z" transform="translate(-13238.396 -25077.281)" fill="#898989" fill-rule="evenodd"/>
    </g>
  </g>
</svg>
